<svg width="800" height="453" viewBox="0 0 800 453" fill="none" xmlns="http://www.w3.org/2000/svg">
<g clip-path="url(#clip0_1_12212)">
<path d="M295.572 268.661C298.103 269.351 300.863 269.581 303.623 269.351C304.773 269.121 305.923 269.121 307.073 268.891C313.974 267.28 315.124 265.9 315.814 259C316.274 255.09 313.974 251.179 310.293 250.029C306.153 248.649 301.783 247.729 297.413 248.189C295.802 248.419 294.192 248.879 292.582 249.569C290.742 250.259 289.592 251.639 289.592 253.709C289.592 255.55 289.362 257.16 289.132 259C288.672 263.83 290.742 267.05 295.572 268.661Z" fill="#ED1C25"/>
<path d="M798.62 267.05C797.47 264.52 790.339 256.009 785.279 263.6C784.589 264.75 791.72 267.74 790.339 275.561C778.839 320.874 759.517 335.825 756.757 338.125C754.457 323.404 744.336 293.272 737.435 279.011C734.215 272.34 730.765 265.9 728.695 258.769C728.465 258.079 728.235 257.389 728.465 256.469C731.455 244.508 734.675 232.547 736.515 220.356C737.666 213.226 738.586 206.095 737.895 198.965C737.435 194.365 735.365 192.294 730.765 191.604C725.705 190.914 720.644 191.834 715.814 193.444C703.393 197.585 696.032 205.865 693.502 218.516C691.892 226.567 691.662 234.388 691.892 242.668C692.352 258.079 696.952 272.11 704.543 285.451C704.773 285.911 704.773 286.371 705.003 286.831C706.153 288.672 705.923 290.512 705.233 292.582C703.853 296.262 702.703 299.942 701.323 303.623C699.253 309.833 697.412 316.044 695.342 322.254C694.882 322.944 690.282 334.675 689.362 337.665C683.151 355.377 675.331 372.398 666.59 389.189C666.36 389.879 666.13 390.569 665.21 391.029C664.52 380.908 664.98 371.018 665.44 360.897C665.9 352.386 666.13 344.106 665.67 335.595C665.44 331.685 663.37 329.385 659.69 328.005C655.549 326.624 651.179 325.934 647.039 327.775C646.579 328.235 642.668 329.385 641.058 330.075C638.528 331.225 637.608 333.525 636.918 336.055C635.768 339.735 635.768 343.416 635.308 347.096C635.078 350.316 635.538 353.766 633.928 356.987C630.477 364.117 626.107 370.788 621.507 377.228C620.587 378.608 619.667 379.988 618.517 381.369C617.826 382.059 617.366 382.059 617.136 380.909C617.136 380.448 617.136 379.988 616.906 379.298C616.216 368.488 617.827 357.677 620.127 347.096C622.427 336.745 626.797 327.084 631.167 317.654C634.158 311.443 636.918 305.003 640.828 299.022C644.278 293.732 648.189 289.132 652.099 284.301C652.099 284.301 652.099 284.301 652.329 284.301C653.939 284.991 654.399 286.601 654.629 288.212C655.319 292.352 654.629 296.262 653.249 300.172C651.179 306.383 647.959 312.133 644.509 317.654C642.668 320.644 638.068 327.545 637.608 328.005C637.608 328.695 638.068 329.155 638.988 329.385C640.138 329.615 641.058 329.615 641.978 329.155C642.208 329.155 645.659 328.005 645.889 327.544C648.189 325.704 650.259 323.634 651.869 321.334C657.159 313.513 661.07 305.233 663.83 296.262C664.75 293.272 665.44 290.282 665.67 287.291C665.9 284.531 665.67 281.771 663.14 279.701C662.22 278.321 660.84 277.861 659.46 277.401C656.239 276.251 653.019 276.251 649.799 276.711C639.218 277.631 631.858 284.301 624.497 290.972C619.207 295.342 614.836 300.402 610.466 305.693C592.295 328.695 584.014 354.687 585.854 383.899C585.854 384.819 585.854 385.739 585.394 386.659C583.094 391.489 580.794 396.32 578.264 401.15C578.034 401.61 577.804 402.3 576.883 402.76C576.653 401.15 576.653 400 576.653 398.62C576.653 394.48 576.653 390.339 576.423 386.199C575.503 369.868 575.273 353.306 575.733 336.745C576.193 324.094 575.963 311.443 575.043 298.562C574.813 295.112 574.353 291.662 573.433 288.442C572.283 284.991 570.443 282.231 566.763 281.081C561.932 279.241 556.872 279.471 552.042 281.311C550.661 281.771 549.281 282.691 548.821 284.071C546.981 288.672 542.611 298.562 541.461 301.553C537.32 313.513 533.87 325.704 530.19 337.665C529.96 338.355 529.96 339.275 529.27 339.735C528.81 334.445 528.35 329.155 528.12 323.864C527.66 316.044 527.66 308.223 526.05 300.632C525.13 296.262 523.979 292.122 520.989 288.902C517.769 284.991 513.169 284.301 508.338 284.991C503.738 285.681 499.598 298.102 499.598 298.102C498.678 299.942 494.997 311.673 494.537 314.434C492.237 322.714 490.167 331.225 486.947 339.505C486.717 337.895 486.487 336.285 486.487 334.905C485.797 320.874 485.107 306.843 483.496 293.042C483.036 287.982 482.346 282.921 480.736 278.091C480.046 274.181 478.666 270.27 477.056 266.59C475.446 263.14 473.376 261.99 469.695 262.45C466.475 262.68 464.175 264.52 463.025 267.51C461.645 270.96 461.185 274.641 460.955 278.321C460.035 293.042 460.725 307.533 460.725 322.254C460.725 323.404 460.725 324.324 460.265 325.474C454.974 334.675 450.144 344.106 444.624 353.306C444.394 353.766 444.164 354.687 443.473 354.687C442.783 353.996 442.783 353.076 442.553 352.156C440.253 343.646 439.103 335.135 438.413 326.394C436.343 302.013 437.263 277.401 436.573 252.789C436.573 251.639 437.033 251.179 438.183 250.949C439.333 250.949 440.483 250.719 441.403 250.719C450.374 250.029 459.115 249.109 467.625 245.888C481.886 240.138 492.237 230.937 494.767 215.066C495.687 208.856 495.917 202.875 492.697 197.355C489.707 192.294 486.027 188.154 481.886 184.014C477.516 179.873 467.165 181.024 463.485 183.554C462.105 184.474 461.645 185.624 462.105 187.234C463.715 194.134 465.555 200.805 466.475 207.936C466.935 212.766 466.935 217.596 465.785 222.197C463.485 231.627 457.965 238.068 448.304 240.598C445.314 241.288 442.093 241.978 439.103 242.438C436.573 242.898 436.573 242.898 436.343 240.138C435.883 234.157 435.423 228.407 433.583 222.887C432.663 220.126 431.053 217.826 428.062 217.136C422.082 215.986 416.791 217.136 414.721 224.267C412.651 231.167 412.191 238.298 411.961 245.428C411.961 247.038 411.501 247.499 409.891 247.959C402.76 249.569 396.09 251.639 389.649 255.089C387.119 256.469 384.819 258.079 382.749 260.149C378.839 264.52 379.529 268.43 384.589 271.65C386.429 273.26 388.729 273.03 390.799 272.11C392.87 271.19 392.18 269.35 392.41 267.74C392.41 266.82 392.41 265.9 392.41 264.98C393.33 263.14 394.48 261.53 396.32 260.609C400.69 257.619 405.521 256.009 410.581 254.859C411.961 254.399 412.191 255.319 412.191 256.469C411.731 270.5 411.961 284.761 412.191 298.792C412.191 299.942 411.961 301.093 411.271 302.013C408.051 306.153 404.601 310.293 401.38 314.434C400.23 315.814 399.77 315.814 399.08 314.204C395.63 306.153 391.72 298.332 386.659 291.202C382.289 284.991 377.689 279.241 372.858 273.49C372.168 272.8 371.708 271.88 371.938 270.73C373.088 262.91 374.238 255.089 375.618 247.268C376.998 239.678 376.998 232.317 374.928 224.957C372.628 216.906 366.648 211.386 357.677 211.846C345.946 212.306 336.285 220.126 333.525 231.627C332.605 235.308 332.375 239.218 332.375 242.898C332.605 252.099 336.515 259.919 341.116 267.51C345.486 274.641 350.546 281.311 355.837 287.752C356.987 288.902 356.987 290.282 356.527 291.892C354.457 299.252 352.387 306.613 349.856 313.743C343.646 330.765 336.285 347.326 326.165 362.507C325.705 363.197 325.245 364.117 324.094 364.807C323.634 361.587 323.174 358.597 323.174 355.837C322.484 340.195 322.024 324.784 319.724 309.143C319.034 303.853 317.884 298.792 315.124 294.422C311.444 288.442 302.243 288.442 298.793 294.422C296.952 297.642 295.802 300.862 295.572 304.543C295.112 312.133 295.572 319.724 296.032 327.544C296.032 328.695 296.262 329.845 295.802 330.995C290.742 347.096 284.992 362.737 278.091 377.918C277.861 378.608 277.401 379.528 276.481 380.218C276.481 379.528 276.251 378.838 276.251 378.378C275.791 371.478 275.561 364.347 275.791 357.447C276.481 342.726 278.091 328.005 279.471 313.283C279.931 309.373 280.161 305.463 279.471 301.553C278.321 296.032 275.101 292.582 269.58 291.432C266.59 290.972 263.6 290.742 260.61 290.742C255.549 290.972 250.259 290.742 245.199 290.052C244.278 289.822 243.358 289.822 243.358 288.442C244.048 280.851 244.969 274.871 244.969 265.44C244.969 258.309 242.898 255.089 233.928 254.399C232.778 254.399 231.628 254.399 230.707 254.629C219.437 256.239 211.386 264.75 210.236 276.021C209.316 284.991 212.766 290.972 221.047 294.652C224.497 296.032 227.947 296.952 231.628 297.642C233.008 297.872 233.238 298.332 233.238 299.712C232.778 307.073 232.548 314.434 232.088 321.794C230.017 352.386 221.507 381.139 209.316 408.971C209.086 409.431 209.086 410.121 208.396 410.351C207.706 409.661 207.936 408.741 207.706 407.821C206.096 396.32 205.866 384.589 205.866 373.088C205.636 352.846 206.096 332.605 204.485 312.363C203.795 303.853 202.415 295.342 199.655 287.061C197.815 281.541 193.675 279.011 187.924 279.241C183.554 279.241 180.334 281.311 177.573 284.301C175.273 286.831 173.663 289.822 172.053 292.812C163.542 307.533 158.252 323.174 154.572 339.735C154.342 340.655 154.342 341.576 153.652 342.496C153.652 341.346 153.422 340.425 153.422 339.505C153.192 329.615 153.192 319.724 153.652 309.833C154.112 295.112 155.032 280.391 157.562 265.67C157.792 264.52 157.792 263.6 158.942 262.91C162.622 260.609 165.613 257.389 168.833 254.399C177.803 245.888 185.164 236.228 190.914 225.417C194.365 219.206 196.895 212.536 195.745 205.175C195.285 201.725 194.135 200.345 190.684 199.655C187.004 198.735 183.554 198.965 180.104 200.115C162.392 205.405 149.281 216.446 141.461 233.237C137.09 242.438 134.56 252.099 132.72 261.99C132.03 265.44 131.34 268.89 130.19 272.11C127.2 279.931 125.36 288.212 123.519 296.492C121.219 307.073 118.459 317.424 116.619 327.775C115.239 335.825 79.3561 450.834 56.5844 432.892C43.0134 422.082 40.2532 402.99 37.953 385.739C34.9628 364.117 34.5027 342.496 36.3429 320.644C38.6431 296.492 43.4734 272.8 49.6839 249.569C53.8242 234.158 59.5746 219.436 66.0151 204.715C66.4751 203.795 66.7052 202.645 68.3153 203.105C77.286 204.485 86.0266 203.795 94.7673 201.725C101.668 200.115 108.568 197.815 113.629 192.754C123.289 182.864 128.58 170.903 128.81 157.102C129.04 148.821 125.59 145.141 117.539 142.841C109.488 140.54 101.668 141.231 93.8472 143.301C79.1261 146.981 66.9352 154.802 56.8144 165.842C55.6643 166.992 54.7443 169.293 53.5942 169.063C52.4441 168.603 51.524 166.532 50.834 164.922C44.8535 152.961 40.7132 140.08 37.723 127.199C35.8828 119.839 34.7328 112.248 31.7425 105.118C30.3624 101.898 28.2923 99.3674 24.382 99.1374C20.2417 98.9074 16.5614 100.057 14.2612 103.968C12.8811 106.498 11.731 109.028 11.041 111.558C7.36071 121.909 6.67066 133.41 8.74081 144.911C9.8909 150.891 11.731 156.872 13.8012 162.622C17.9415 174.583 26.2221 183.094 36.3429 190.224C37.493 190.914 37.493 191.374 36.8029 192.524C35.1928 195.285 33.5827 198.275 32.2026 201.265C21.6218 224.267 14.0312 248.419 8.51079 273.26C0.46019 310.063 -2.76005 346.866 2.07031 384.359C4.6005 404.14 11.501 422.082 22.7719 438.183C25.7621 442.553 29.9024 446.003 34.7328 448.304C46.4636 454.054 58.4245 453.364 70.6155 449.684C98.6776 441.403 118.229 366.647 123.519 345.026C124.209 342.036 125.36 339.045 126.28 336.055C126.74 336.515 126.74 336.975 126.74 337.665C127.43 350.086 126.51 362.737 126.28 375.158C126.28 380.909 126.97 386.659 133.87 388.729C134.1 388.729 134.33 388.959 134.33 388.959C141.231 391.029 152.272 387.119 154.112 386.659C158.712 385.279 158.022 383.439 158.482 378.378C159.402 363.887 160.322 349.396 163.542 335.135C167.223 318.344 172.743 302.243 182.634 287.752C183.094 287.061 183.324 286.141 184.474 285.911C184.704 286.141 184.704 286.371 184.704 286.371C184.934 287.522 184.934 288.672 184.934 289.592C185.854 302.243 183.784 314.894 182.174 327.314C178.724 352.616 178.724 377.918 180.564 403.22C181.024 410.121 182.404 416.791 184.704 423.462C186.544 428.752 190.224 431.742 195.745 432.432C200.575 433.122 205.406 432.892 210.006 431.282C213.686 429.902 216.216 427.602 217.596 423.692C219.437 418.401 221.047 412.881 222.197 407.36C225.417 392.639 227.947 377.918 231.628 363.427C234.618 351.466 236.918 339.505 238.528 327.314C239.678 318.114 240.828 309.143 241.518 299.942C241.748 298.332 242.208 297.642 243.818 297.872C245.659 298.102 247.729 298.102 249.569 298.102C254.859 298.102 254.859 298.102 254.399 303.393C253.479 312.823 251.869 322.254 250.949 331.685C249.569 346.176 248.189 360.667 249.109 375.158C249.339 380.448 250.489 385.279 253.019 389.879C254.169 392.179 255.779 394.249 258.31 395.4C264.06 398.39 269.81 398.39 275.791 397.01C281.081 395.63 283.381 391.719 285.682 387.349C290.052 378.838 292.352 369.408 295.112 360.437C295.342 359.517 295.342 358.597 296.492 357.447C296.492 358.827 296.722 359.977 296.722 360.897C297.412 366.647 298.563 372.168 301.093 377.228C302.473 379.988 304.773 382.059 307.763 383.209C318.344 387.119 330.075 383.209 335.595 373.548C339.276 367.567 342.266 361.127 345.026 354.687C352.157 337.895 358.137 320.644 362.967 303.163C363.197 302.243 363.197 301.323 364.117 300.632C364.348 300.862 364.348 301.093 364.578 301.093C365.038 302.013 365.728 302.933 366.188 304.083C371.018 313.053 374.008 322.254 376.538 332.145C377.919 337.205 377.458 340.885 373.548 344.796C368.258 350.086 363.657 356.067 360.667 363.197C357.907 369.868 360.437 375.618 367.338 377.918C374.698 380.218 382.059 379.758 389.189 376.768C390.799 376.078 392.18 375.158 393.33 374.008C399.08 368.258 403.45 361.587 404.371 353.306C405.291 345.256 403.91 337.435 402.07 329.845C401.38 327.314 401.61 325.704 403.22 323.634C405.751 320.644 408.051 317.194 410.351 313.973C411.041 314.434 410.811 315.124 410.811 315.584C411.041 319.724 411.271 323.634 411.731 327.775C412.651 338.125 413.801 348.476 417.251 358.597C418.632 362.277 420.242 365.727 423.462 368.028C430.362 373.548 438.183 373.778 446.234 371.478C449.914 370.558 452.444 368.258 454.054 364.577C455.894 360.667 457.965 357.217 459.805 353.306C460.035 353.076 460.035 352.386 460.955 352.616C460.955 358.827 460.955 365.267 461.645 371.478C462.335 378.378 462.565 379.758 465.095 384.359C465.555 385.049 466.245 385.509 466.935 385.969C471.766 387.809 476.596 387.349 481.196 384.819C486.027 382.289 487.177 370.788 487.407 368.718C487.637 362.737 486.717 356.527 488.787 350.546C491.317 342.956 493.617 335.135 495.687 327.314C497.067 322.944 500.748 311.213 501.208 310.523C502.358 311.903 501.438 324.324 502.128 329.155C502.818 343.876 502.818 358.827 503.048 373.548C503.048 380.448 503.048 387.349 503.048 394.249C503.048 397.47 504.888 399.31 507.648 400.23C512.249 401.61 516.619 401.84 521.219 400.23C527.2 398.16 528.81 396.32 528.81 390.339C528.81 378.838 528.81 367.337 532.49 356.297C532.95 354.687 533.41 352.846 533.87 351.236C538.011 335.135 541.691 318.804 547.671 303.163C547.901 302.243 548.131 301.323 549.051 300.632C549.511 310.983 549.741 321.334 549.511 331.455C549.051 348.476 548.821 365.727 549.971 382.749C550.431 389.419 551.352 396.09 553.652 402.53C555.952 408.741 560.322 413.111 566.763 414.951C575.273 417.711 581.484 414.721 584.704 406.67C586.314 402.76 587.694 399.08 589.304 395.17C589.534 394.48 589.764 393.559 590.914 394.249C595.745 397.7 601.265 398.62 607.016 398.62C618.056 398.85 627.487 395.63 632.778 385.049C633.008 384.819 633.008 384.359 633.468 384.359C633.928 385.049 633.698 385.969 633.698 386.659C633.928 391.259 634.388 395.86 635.538 400.46C637.378 407.36 641.978 411.501 648.879 412.881C652.559 413.801 656.239 413.571 659.92 412.651C664.75 411.731 668.43 409.201 671.19 404.83C673.261 401.38 675.101 397.93 676.481 394.249C677.861 390.339 679.471 386.199 680.851 382.289C686.142 367.798 692.122 353.766 696.722 339.045C697.182 338.125 703.853 321.794 704.313 321.104C706.383 315.354 708.453 309.833 710.523 304.083C710.753 303.853 710.753 303.853 710.983 303.623C710.983 303.853 711.213 304.313 711.443 304.543C713.744 312.363 717.194 319.954 719.034 328.005C722.254 341.576 725.475 358.597 727.775 372.398C728.235 374.468 709.603 395.63 703.393 407.36C699.483 414.951 696.262 422.772 697.642 431.742C699.253 441.403 707.073 450.144 716.504 451.984C725.705 453.824 734.445 451.754 742.726 447.383C754.227 441.403 759.747 430.822 762.507 418.631C764.347 409.661 764.117 400.69 764.117 391.719C763.887 379.528 761.127 362.507 758.597 350.546C758.597 350.546 764.117 344.566 765.498 342.956C775.158 331.685 783.899 318.804 790.339 305.233C802.3 281.311 800.46 271.42 798.62 267.05ZM162.392 241.518C166.303 229.327 172.053 218.286 181.484 209.086C181.714 208.856 184.244 205.865 185.164 206.325C186.314 206.785 186.084 207.936 186.084 210.006C186.084 213.456 185.164 216.676 183.784 219.896C178.954 230.477 172.283 239.678 164.002 247.959C162.852 249.109 161.472 250.489 160.322 251.639C160.322 247.959 161.242 244.738 162.392 241.518ZM76.3659 184.014C79.8161 178.263 83.4964 172.513 87.8667 167.453C92.0071 162.392 96.3774 157.562 100.518 152.501C102.588 149.971 105.118 147.901 108.798 148.131C110.178 148.361 111.098 148.821 111.789 150.201C112.939 152.961 112.939 155.722 112.249 158.712C110.638 167.222 106.038 174.353 100.058 180.563C96.3774 184.474 91.777 187.004 87.1767 188.384C82.5764 188.614 79.3561 186.774 76.1359 185.624C74.9858 185.394 76.1359 184.704 76.3659 184.014ZM234.618 262.68C234.848 267.05 235.078 271.19 234.618 275.561C234.158 278.551 234.388 281.771 234.158 284.991C232.548 284.301 231.858 283.151 231.398 282.001C229.097 275.331 228.867 268.43 232.548 261.99C232.778 261.53 233.238 260.379 234.158 260.609C234.618 261.07 234.388 261.99 234.618 262.68ZM362.737 259.689C355.837 249.799 351.467 239.908 351.927 228.177C352.157 224.727 353.307 221.507 355.837 219.206C356.987 218.056 357.907 217.826 359.057 219.206C361.357 221.507 362.967 224.267 363.657 227.487C366.418 238.068 364.808 248.649 362.737 259.689ZM721.104 439.103C716.734 436.573 714.894 432.662 713.974 428.062C713.284 424.612 713.054 420.931 714.204 417.711C717.654 406.9 723.404 397.47 729.845 387.809C731.455 410.351 729.155 423.232 721.104 439.103ZM720.874 239.908C720.184 239.218 720.184 238.298 720.184 237.378C719.264 228.177 719.034 218.976 720.644 210.006C721.104 207.476 721.794 204.945 723.864 202.645C724.785 205.635 725.245 208.396 725.245 211.386C725.015 220.816 722.714 230.017 721.104 239.218C721.104 239.448 721.104 239.678 720.874 239.908Z" fill="#ED1C25"/>
<path d="M37.2627 191.374C37.2627 191.374 56.3541 201.495 66.7049 202.185C66.7049 202.185 66.2448 201.725 65.3248 203.795C65.3248 203.795 60.9544 213.456 59.1143 218.976C59.1143 218.976 40.4829 217.136 28.292 210.235C28.292 210.235 30.5922 204.485 37.2627 191.374Z" fill="#AF2A30"/>
<path d="M126.51 336.515C126.51 336.515 135.02 300.633 157.332 262.68C157.332 262.68 154.342 278.091 153.652 296.032C153.652 296.032 136.17 339.735 127.2 353.076" fill="#AF2A30"/>
<path d="M232.088 296.952C232.088 296.952 240.138 299.022 242.899 298.332C242.899 298.332 241.979 297.872 241.749 301.092L240.829 311.673C240.829 311.673 236.228 312.823 232.318 311.443L232.088 296.952Z" fill="#AF2A30"/>
<path d="M364.808 301.093C364.808 301.093 369.638 280.851 371.018 270.73C371.018 270.73 374.928 275.561 380.909 283.841C380.909 283.841 378.149 304.083 370.788 313.054L364.808 301.093Z" fill="#AF2A30"/>
<path d="M711.674 303.853C711.674 303.853 727.315 266.36 728.465 256.239C728.465 256.239 728.235 259.69 733.525 270.5C737.666 279.011 739.736 283.611 741.576 288.212C741.576 288.212 726.855 318.344 719.494 327.315L711.674 303.853Z" fill="#AF2A30"/>
<path d="M411.041 254.4C411.041 254.4 427.142 250.949 437.493 250.719C437.493 250.719 436.803 250.259 436.803 252.789L437.033 269.121C437.033 269.121 415.411 271.191 411.271 272.801L411.041 254.169" fill="#AF2A30"/>
<path d="M729.845 387.579C729.845 387.579 750.776 359.977 759.287 350.546C759.287 350.546 761.817 363.197 762.277 367.797C762.277 367.797 735.595 395.629 730.305 403.45C730.305 403.45 730.535 391.029 729.845 387.579Z" fill="#AF2A30"/>
<path d="M617.366 121.679C612.536 120.299 607.705 119.609 602.645 120.069C595.974 120.759 589.534 122.139 583.323 124.209C581.713 124.669 581.253 124.669 581.023 122.829C580.103 108.568 578.033 94.537 575.043 80.7359C573.663 74.5255 572.513 68.315 569.522 62.5646C567.452 58.4243 564.232 56.5841 559.402 56.8141C554.571 57.0442 552.731 58.8843 552.501 63.7147C552.041 69.9251 552.501 76.1356 553.421 82.3461C553.651 83.7262 553.421 85.1063 552.731 86.4864C546.981 97.7572 541.23 109.028 535.25 120.069C531.339 127.659 526.049 134.33 520.299 140.54C519.839 141 519.379 141.691 518.919 141.691C518.228 141.46 518.458 140.54 518.458 140.08C517.538 131.57 518.688 123.289 519.839 115.009C521.909 102.128 523.289 89.0166 523.289 75.9056C523.289 73.8354 523.059 71.7653 522.599 69.9251C521.909 67.855 520.529 66.2448 518.458 66.0148C516.158 65.5548 514.088 66.0148 512.478 68.085C510.638 70.1551 509.258 72.6853 508.338 75.2155C504.887 83.0361 502.587 91.3167 500.747 99.5973C500.517 100.747 500.287 102.128 499.597 103.278C492.697 114.318 485.796 125.129 478.895 136.17C478.665 136.63 478.435 137.32 477.515 137.32C477.745 134.79 477.975 132.49 478.435 130.19C480.966 115.929 484.416 101.898 487.866 87.8665C489.476 81.886 491.086 75.6756 491.776 69.4651C492.467 63.4846 490.166 59.8044 484.876 57.7342C484.646 57.2742 483.956 57.2742 483.496 57.0442C478.895 55.434 474.295 54.514 469.465 53.5939C468.315 53.1339 468.775 52.4438 469.005 51.5237C470.615 44.8532 472.225 38.1827 473.375 31.5122C473.835 29.2121 474.065 26.9119 473.375 24.6117C473.145 23.2316 472.455 22.0815 471.075 21.3915C469.925 20.4714 468.775 20.2414 467.395 20.0114C458.884 18.6313 451.293 20.2414 445.083 26.6819C442.093 29.9021 439.793 33.3524 438.182 37.4927C435.192 44.8532 437.952 53.3639 444.853 57.5042C446.463 59.1143 448.303 59.5743 450.373 60.2644C453.364 61.4145 456.584 61.6445 459.804 62.3346C459.574 63.9447 459.114 65.5548 458.424 67.1649C457.274 70.1551 456.354 73.1454 455.204 76.1356V76.3656C454.054 79.3558 452.904 82.3461 451.753 85.3363C450.833 86.4864 432.662 133.41 419.091 149.971C418.401 150.891 418.171 152.041 416.791 152.501C416.561 147.671 417.021 143.301 417.481 138.7C419.091 122.829 422.771 107.188 426.682 91.5467C428.982 82.8061 430.362 74.0654 429.902 65.0948C429.672 62.1045 429.442 58.8843 426.912 56.8141C425.532 54.974 423.691 54.0539 421.621 53.1339C418.171 51.7538 414.721 50.8337 411.04 50.1436C409.66 49.9136 409.43 49.4536 409.89 48.0735C411.27 42.7831 412.651 37.7227 412.881 32.4323C413.111 25.7618 411.04 23.0016 404.6 21.6215C403.68 21.3915 402.76 21.3915 401.84 21.1615C391.719 20.7014 385.969 24.3817 384.588 34.7325C383.668 41.173 385.739 46.4634 391.259 49.6836C393.099 50.8337 395.169 51.9838 397.239 52.9038C398.389 53.3639 398.619 54.0539 398.159 55.204C391.719 75.9056 375.618 135.25 354.226 135.94C353.536 135.94 353.536 135.02 353.306 134.33C353.306 134.1 353.076 133.87 353.076 133.64C350.316 121.909 349.396 110.178 350.776 98.2172C351.006 97.0672 351.466 96.6071 352.386 96.1471C357.676 93.8469 362.507 90.8567 366.187 86.2564C371.247 79.8159 374.238 72.6853 372.858 64.1747C372.167 59.8044 369.177 57.2742 364.807 57.0442C363.657 57.0442 362.277 56.8141 361.127 57.0442C347.556 59.5743 337.205 66.4749 332.374 79.8159C328.464 90.3967 327.544 101.437 327.774 112.478C328.004 117.539 327.314 121.909 325.704 126.739C322.254 138.24 318.573 149.511 313.513 160.322C313.053 161.012 313.053 162.622 311.903 162.622C311.673 161.932 311.673 161.242 311.443 160.782C308.913 146.061 309.143 131.34 310.063 116.619C311.443 92.6968 314.433 68.775 316.273 44.8532C316.963 35.1925 317.883 25.3018 316.733 15.6411C316.503 12.8808 313.283 5.29027 308.913 2.30005C303.622 -1.38023 296.492 -1.38023 292.812 3.91017C289.591 8.74053 287.061 14.0309 284.991 19.3213C282.921 23.2316 279.931 34.9625 279.931 34.9625C279.241 37.0327 275.33 55.204 275.33 55.204C273.26 62.5646 271.88 70.3852 270.5 77.9757C270.04 78.6658 270.27 79.5859 269.81 80.2759C270.04 79.5859 270.27 78.8958 269.81 78.2057C269.81 62.3346 269.35 46.4634 268.2 30.8222C267.97 26.6819 267.74 22.3116 266.36 18.1712C265.9 14.951 264.979 11.7308 263.599 8.97055C258.309 -1.84026 243.128 -3.45038 236.687 6.44036C234.847 9.20057 233.467 11.9608 232.317 14.951C229.327 23.6917 226.567 32.6623 223.806 41.633C223.576 42.3231 223.346 43.0131 223.346 43.7032C222.196 42.3231 221.966 40.4829 221.276 38.8728C219.896 36.1126 218.286 33.3524 216.216 31.0522C211.615 25.9918 205.865 24.3817 199.195 25.3018C196.894 25.5318 195.284 26.9119 193.674 28.292C185.163 36.1126 182.863 45.3133 182.863 57.0442C183.093 62.3345 185.393 63.9447 186.774 63.7147C188.384 63.4846 187.924 60.2644 187.924 60.2644C188.154 41.633 198.964 32.4323 199.655 32.6623C200.345 32.8923 200.115 33.8124 200.345 34.2724C201.955 40.9429 202.185 47.6134 202.645 54.2839C203.795 71.3052 203.795 88.3265 204.715 105.578C205.405 119.609 205.405 133.87 207.245 147.901C207.475 149.971 208.395 151.351 210.005 152.041C215.756 154.571 221.736 154.571 227.487 152.041C229.787 150.891 230.247 149.741 230.017 147.211C229.557 144.451 229.327 141.691 229.097 138.93C227.717 119.149 228.407 98.6773 229.557 78.2057C230.477 57.7342 234.387 37.9527 242.898 19.0913C243.358 18.1712 243.588 17.2512 244.278 16.5611C244.278 16.7911 244.508 16.7911 244.508 17.0212C244.738 18.4013 244.738 19.7814 244.968 21.1615C246.348 44.6232 247.958 68.085 246.578 91.5467C246.118 101.207 245.658 110.638 246.118 120.299C246.808 130.42 250.258 132.95 260.379 131.8C260.609 131.8 260.839 131.8 260.839 131.57C268.89 130.42 268.2 114.318 268.89 111.328C271.19 99.1373 273.03 86.9464 275.79 74.9855C277.17 69.0051 286.141 29.2121 290.971 21.3915C292.582 18.6313 293.732 15.6411 296.032 12.6508C295.572 20.4714 295.112 27.6019 294.652 34.7325C292.582 60.0344 289.591 85.3363 287.751 110.638C286.831 123.289 286.141 136.17 287.061 148.821C287.521 155.032 288.211 161.242 289.821 167.222C291.661 173.663 295.572 178.033 302.472 179.413C305.232 179.873 307.763 180.103 310.523 179.643C316.043 179.183 319.954 175.963 322.024 171.133C322.484 170.213 322.714 169.293 323.174 168.603C326.624 160.092 328.464 150.891 331.224 142.151C331.454 141.46 331.684 141 331.914 140.08C332.375 140.77 332.605 141 332.835 141.46C335.365 145.831 339.045 148.821 343.875 149.971C358.596 153.421 370.097 148.591 377.458 135.94C385.278 122.369 391.489 108.108 396.549 93.1569C399.079 85.5663 401.38 77.7457 403.91 70.1551C405.06 66.9349 405.29 63.2546 406.9 60.2644C407.82 66.9349 407.13 73.3754 406.44 79.8159C405.52 86.4864 402.07 98.2172 401.38 101.207C399.77 107.878 396.779 122.599 396.779 123.289C395.859 128.35 394.939 133.41 394.709 138.47C394.479 140.54 394.479 142.611 394.249 144.451C393.789 149.281 393.789 153.881 394.479 158.482C394.709 159.402 394.709 160.322 395.169 161.242C396.549 164.002 398.389 166.072 401.15 167.222C405.75 169.293 410.81 169.753 415.641 168.603C418.861 167.912 421.161 166.072 423.001 163.312C425.992 159.172 427.602 154.341 429.902 149.741C436.342 136.86 461.874 71.0752 463.944 66.0148C464.404 65.0948 464.404 63.7147 466.245 64.1747C468.545 64.4047 469.005 66.0148 468.775 67.855C468.545 69.4651 468.545 71.0752 468.315 72.6853C466.245 84.1862 462.794 95.227 460.264 106.498C457.964 116.849 455.204 127.199 454.514 137.78C454.284 142.151 454.054 146.291 454.974 150.431C455.664 153.421 457.044 155.492 460.034 156.642C468.315 161.472 479.126 158.942 483.726 150.661C487.636 143.991 490.396 136.86 494.537 130.42C494.997 129.96 495.227 129.27 495.917 128.35C495.917 129.5 495.917 129.96 495.917 130.65C495.687 135.02 495.917 139.62 496.607 143.991C497.067 146.751 498.217 149.051 500.287 150.661C506.728 155.952 518.228 156.182 525.129 151.351C529.729 148.131 532.72 143.761 535.71 139.16C543.3 127.199 549.281 114.548 554.801 101.437C555.031 100.747 555.261 100.057 555.951 99.5973C556.411 100.057 556.411 100.747 556.411 101.437C558.021 111.788 558.251 122.369 559.402 132.95C559.632 135.25 559.172 136.63 557.101 137.78C543.3 146.061 531.339 156.872 522.139 170.213C514.318 181.714 509.488 194.134 510.408 208.165C511.328 221.967 515.698 233.927 525.359 244.048C528.119 247.038 531.569 249.339 535.48 250.719C541.23 252.789 546.981 253.479 552.961 253.479C564.002 253.479 572.282 248.419 577.343 238.758C578.493 236.458 579.643 233.927 580.333 231.397C583.093 221.506 584.013 211.386 584.013 201.035C584.243 179.643 583.553 158.482 581.713 137.32C581.483 135.48 582.173 134.56 583.783 133.87C590.684 130.65 597.814 128.58 605.175 127.199C609.085 126.509 612.996 126.509 616.676 126.049C618.056 125.819 619.896 125.589 619.896 123.979C620.356 122.369 618.516 121.909 617.366 121.679ZM356.296 72.9153C356.986 71.3052 357.676 69.6951 358.596 68.315C359.977 66.4749 361.127 64.6347 362.967 63.2546C363.887 62.5646 364.347 62.7946 364.807 63.7147C365.727 65.7848 365.957 67.855 365.727 70.1551C364.577 79.5858 359.747 86.4864 352.156 91.5467C351.926 91.7768 351.696 91.7768 351.236 91.7768C352.156 85.1063 353.996 78.8958 356.296 72.9153ZM223.116 44.1632C223.346 44.1632 223.116 44.3932 223.116 44.1632V44.1632ZM400.92 44.1632C400.92 44.6232 400.69 45.0833 400.46 45.0833C400 45.3133 399.77 44.6232 399.54 44.3932C397.929 42.093 396.779 39.5628 397.239 36.5726C397.699 33.5824 397.929 30.8222 399.54 28.062C399.77 27.6019 400.23 26.9119 400.92 26.9119C401.61 26.9119 401.84 27.6019 402.3 28.292C402.99 29.4421 402.99 30.8222 402.99 32.6623C402.53 36.1126 402.07 40.2529 400.92 44.1632ZM462.794 50.3737C462.794 50.6037 462.564 50.8337 462.334 51.0637C458.884 47.6134 457.964 43.4731 459.344 39.1028C460.494 34.9625 462.104 30.8222 463.944 26.9119C464.634 25.9918 465.324 25.7618 465.785 27.1419C466.015 27.6019 466.245 28.292 466.475 28.752C466.705 36.1126 465.094 43.2431 462.794 50.3737ZM468.315 64.1747C468.545 64.4047 468.545 64.4047 468.775 64.6347C468.545 64.4047 468.545 64.4047 468.315 64.1747ZM561.472 208.856C561.242 216.446 560.092 223.807 558.021 230.937C556.641 235.538 554.341 239.448 551.121 242.898C550.201 243.818 549.281 244.048 548.131 243.588C546.291 242.898 544.91 241.748 543.53 240.598C527.889 227.487 524.439 205.175 530.649 188.614C535.02 177.113 541.92 167.222 550.431 158.482C553.191 155.492 556.181 152.961 559.172 150.201C559.402 149.971 559.862 149.511 560.552 149.511C560.782 151.581 560.782 153.421 561.012 155.492C561.702 173.433 562.162 191.144 561.472 208.856Z" fill="#ED1C25"/>
<path d="M560.552 149.741C560.552 149.741 575.733 138.24 582.863 134.79C582.863 134.79 581.943 135.25 582.173 137.78C582.403 140.31 583.323 154.802 583.323 154.802C583.323 154.802 569.292 162.392 561.472 170.673L560.552 149.741Z" fill="#AF2A30"/>
<path d="M406.671 59.5749C406.671 59.5749 409.201 52.6744 409.201 48.9941C409.201 48.9941 408.741 49.9142 411.501 50.6043C414.261 51.2943 419.322 52.6744 419.322 52.6744C419.322 52.6744 410.121 69.4657 406.671 73.836C406.901 73.606 407.361 60.265 406.671 59.5749Z" fill="#AF2A30"/>
<path d="M465.325 63.4852C465.325 63.4852 467.855 55.4346 468.085 51.9844C468.085 51.9844 467.855 52.9044 469.466 53.1345C471.076 53.5945 469.926 53.1345 469.926 53.1345L475.676 54.5146C475.676 54.5146 472.686 64.8653 468.545 66.2454C468.775 66.2454 468.775 63.4852 465.325 63.4852Z" fill="#AF2A30"/>
<path d="M331.685 139.39C331.685 139.39 339.965 103.737 350.776 97.2969C350.776 97.2969 349.166 105.117 349.856 112.938C349.856 112.938 341.805 134.1 339.505 147.671C339.505 147.671 336.055 146.981 331.685 139.39Z" fill="#AF2A30"/>
</g>
<defs>
<clipPath id="clip0_1_12212">
<rect width="800" height="452.904" fill="white"/>
</clipPath>
</defs>
</svg>
