<svg width="1920" height="1280" viewBox="0 0 1920 1280" fill="none" xmlns="http://www.w3.org/2000/svg">
<g filter="url(#filter0_d_1_9303)">
<mask id="path-1-inside-1_1_9303" fill="white">
<path fill-rule="evenodd" clip-rule="evenodd" d="M2594.74 -359.842H-617.23V1640.96H2594.74V-359.842ZM962.039 1126.41C1228.73 1126.41 1444.92 910.217 1444.92 643.527C1444.92 376.838 1228.73 160.643 962.039 160.643C695.35 160.643 479.155 376.838 479.155 643.527C479.155 910.217 695.35 1126.41 962.039 1126.41Z"/>
</mask>
<path fill-rule="evenodd" clip-rule="evenodd" d="M2594.74 -359.842H-617.23V1640.96H2594.74V-359.842ZM962.039 1126.41C1228.73 1126.41 1444.92 910.217 1444.92 643.527C1444.92 376.838 1228.73 160.643 962.039 160.643C695.35 160.643 479.155 376.838 479.155 643.527C479.155 910.217 695.35 1126.41 962.039 1126.41Z" fill="url(#paint0_radial_1_9303)"/>
<path d="M-617.23 -359.842V-360.615H-618.003V-359.842H-617.23ZM2594.74 -359.842H2595.51V-360.615H2594.74V-359.842ZM-617.23 1640.96H-618.003V1641.73H-617.23V1640.96ZM2594.74 1640.96V1641.73H2595.51V1640.96H2594.74ZM-617.23 -359.069H2594.74V-360.615H-617.23V-359.069ZM-616.457 1640.96V-359.842H-618.003V1640.96H-616.457ZM2594.74 1640.19H-617.23V1641.73H2594.74V1640.19ZM2593.97 -359.842V1640.96H2595.51V-359.842H2593.97ZM1444.15 643.527C1444.15 909.79 1228.3 1125.64 962.039 1125.64V1127.18C1229.16 1127.18 1445.7 910.644 1445.7 643.527H1444.15ZM962.039 161.416C1228.3 161.416 1444.15 377.264 1444.15 643.527H1445.7C1445.7 376.411 1229.16 159.87 962.039 159.87V161.416ZM479.928 643.527C479.928 377.264 695.777 161.416 962.039 161.416V159.87C694.923 159.87 478.382 376.411 478.382 643.527H479.928ZM962.039 1125.64C695.777 1125.64 479.928 909.79 479.928 643.527H478.382C478.382 910.644 694.923 1127.18 962.039 1127.18V1125.64Z" fill="white" fill-opacity="0.5" mask="url(#path-1-inside-1_1_9303)"/>
</g>
<defs>
<filter id="filter0_d_1_9303" x="-663.614" y="-406.226" width="3304.74" height="2093.57" filterUnits="userSpaceOnUse" color-interpolation-filters="sRGB">
<feFlood flood-opacity="0" result="BackgroundImageFix"/>
<feColorMatrix in="SourceAlpha" type="matrix" values="0 0 0 0 0 0 0 0 0 0 0 0 0 0 0 0 0 0 127 0" result="hardAlpha"/>
<feOffset/>
<feGaussianBlur stdDeviation="23.1918"/>
<feComposite in2="hardAlpha" operator="out"/>
<feColorMatrix type="matrix" values="0 0 0 0 0 0 0 0 0 0 0 0 0 0 0 0 0 0 0.5 0"/>
<feBlend mode="normal" in2="BackgroundImageFix" result="effect1_dropShadow_1_9303"/>
<feBlend mode="normal" in="SourceGraphic" in2="effect1_dropShadow_1_9303" result="shape"/>
</filter>
<radialGradient id="paint0_radial_1_9303" cx="0" cy="0" r="1" gradientUnits="userSpaceOnUse" gradientTransform="translate(988.587 640.571) scale(1364.69 850.094)">
<stop stop-color="#ED1C25"/>
<stop offset="0.346586" stop-color="#E51E26"/>
<stop offset="0.6643" stop-color="#D1222A"/>
<stop offset="1" stop-color="#AF2A30"/>
</radialGradient>
</defs>
</svg>
