<svg width="1920" height="1280" viewBox="0 0 1920 1280" fill="none" xmlns="http://www.w3.org/2000/svg">
<path d="M525.128 1031.08C516.137 1046.76 502.755 1060.98 490.001 1073.53C467.629 1095.9 446.093 1120.57 419.12 1136.25C438.565 1145.24 473.483 1118.27 489.165 1109.49C484.774 1123.71 465.956 1133.33 463.029 1148.17C474.319 1144.41 486.237 1140.02 497.319 1134.79C508.61 1129.56 519.692 1119.94 530.773 1116.18C530.773 1132.49 511.328 1144.62 502.337 1156.53C523.246 1159.46 540.391 1135 555.237 1124.54C558.164 1135.83 556.073 1149.84 561.3 1161.76C567.991 1149.01 574.055 1134.16 581.373 1121.41C587.436 1134.79 590.991 1152.77 602.909 1162.39C604.372 1148.17 608.972 1136.25 614.827 1122.87C624.445 1136.25 629.672 1149.63 646.19 1156.53C640.126 1148.38 642.426 1135.63 642.426 1126.01C658.735 1137.09 671.49 1149.22 690.935 1156.53C682.78 1146.92 672.953 1134.16 668.562 1122.87C684.871 1125.8 702.017 1135.63 719.371 1140.02C714.98 1132.49 700.762 1125.17 692.608 1119.94C712.68 1130.4 735.889 1131.23 758.261 1133.33C716.444 1113.88 677.762 1083.35 657.481 1040.91C649.954 1024.6 643.263 1006.62 635.945 990.937C626.954 972.955 606.881 973.791 589.736 977.555C589.736 977.555 589.736 977.555 588.9 977.555L525.128 1031.08Z" fill="#003F49"/>
<path d="M548.963 966.269C530.354 1004.95 492.3 1042.38 458.01 1066.84C479.546 1071.23 505.055 1054.92 522.2 1045.3C513.209 1060.15 503.591 1077.29 490.209 1090.89C524.5 1081.89 539.345 1055.76 559.627 1029.83C560.463 1044.68 549.172 1058.27 545.409 1072.28C559.627 1059.52 570.708 1050.74 581.163 1034.22C581.163 1049.07 580.326 1062.66 576.772 1077.5C596.217 1069.35 600.608 1032.76 606.672 1014.78C605.208 1034.85 619.426 1055.13 628.208 1072.28C629.044 1051.37 628.208 1030.46 631.135 1010.39C631.135 1009.55 631.135 1009.55 631.135 1010.39C634.898 1031.3 653.507 1042.38 663.962 1059.52C661.662 1046.77 661.662 1032.76 657.898 1020.84C675.043 1035.06 695.116 1045.51 711.634 1058.89C691.561 1046.14 675.88 1014.99 664.589 994.705C654.135 976.723 648.907 956.651 638.453 939.505C627.999 922.36 621.308 911.069 599.772 909.606C580.326 908.142 569.245 913.369 560.254 930.515L548.963 966.269Z" fill="#002830"/>
<path d="M575.096 877.402C566.105 891.62 558.787 907.929 549.797 922.147C532.651 949.747 506.515 963.128 483.516 984.037C505.052 981.737 526.797 969.819 541.642 954.974C531.188 972.956 521.57 988.428 506.515 1002.65C540.806 995.119 566.942 962.292 584.714 934.692C580.323 951.838 578.024 983.828 586.178 1000.97C587.642 977.137 604.787 955.392 608.55 932.392C607.714 948.701 621.932 977.974 632.387 991.355C626.323 975.046 623.396 948.91 624.232 931.765C624.232 930.929 624.232 930.929 624.232 930.929C627.159 958.528 671.277 973.374 692.186 983.201C663.122 963.128 639.286 922.774 630.296 889.32C627.368 877.402 625.068 861.721 613.987 855.03C605.832 849.803 590.778 848.339 584.087 855.866L575.096 877.402Z" fill="#003F49"/>
<path d="M602.697 777.459C598.933 793.141 593.706 807.359 586.388 822.204C573.633 848.968 561.088 865.486 539.343 885.558C547.497 887.022 561.715 878.867 567.779 872.804C556.488 883.885 551.47 899.567 539.343 910.021C561.715 901.031 580.324 879.495 595.169 861.513C592.242 874.895 596.633 896.64 602.697 909.185C605.624 894.967 610.224 880.749 613.151 867.367C626.533 883.049 643.678 890.576 659.359 902.494C655.596 886.813 642.214 873.431 633.223 860.049C626.533 849.595 621.933 837.677 616.914 826.595C610.224 810.286 605.624 788.541 605.624 770.56L602.697 777.459Z" fill="#002830"/>
<path d="M396.323 1099.44C399.668 1121.81 367.05 1169.69 353.041 1188.3C347.814 1196.04 315.824 1228.24 319.587 1236.18C325.651 1249.14 387.123 1245.17 400.295 1247.26C445.667 1255.42 491.04 1256.46 536.621 1258.97C552.302 1259.6 564.639 1265.66 579.275 1267.75C590.775 1269.84 602.484 1268.59 613.984 1270.68C603.32 1248.1 586.802 1226.77 575.093 1203.98C563.593 1180.56 553.766 1157.15 541.43 1134.36C532.23 1116.58 521.566 1089.82 501.285 1082.71C479.958 1075.6 463.022 1088.36 443.158 1084.38C443.158 1084.38 442.322 1084.38 441.486 1084.38L396.323 1099.44Z" fill="#002830"/>
<path d="M402.384 1052.81C400.293 1064.73 394.02 1076.23 387.748 1087.1C376.875 1108.84 366.002 1132.26 349.484 1151.5C367.675 1150.66 385.029 1131.43 394.647 1118.25C389.838 1133.94 381.684 1151.08 372.902 1165.09C395.693 1154.01 408.029 1134.77 421.202 1115.33C420.574 1131.22 418.274 1148.57 413.465 1163.42C427.892 1153.59 436.256 1132.47 441.901 1116.79C442.111 1132.68 439.811 1150.03 442.529 1166.13C452.147 1152.13 455.492 1134.14 458.628 1117.42C457.165 1134.77 470.546 1152.75 480.792 1165.09C481.628 1146.06 478.283 1124.53 482.255 1105.5C485.81 1123.06 502.537 1139.58 514.455 1152.75C512.573 1135.19 511.737 1116.16 512.364 1101.11C519.891 1118.04 542.055 1128.5 547.909 1143.76C535.991 1130.59 540.173 1107.8 533.273 1092.33C544.773 1113.44 564.845 1133.31 586.8 1143.76C558.573 1122.02 494.383 923.174 443.365 977.746C437.302 983.81 432.074 990.71 427.683 997.819L402.384 1052.81Z" fill="#003F49"/>
<path d="M424.755 986.322C409.283 1019.15 391.51 1049.26 370.602 1077.9C394.229 1069.33 414.51 1055.11 430.192 1035.88C425.383 1052.39 413.046 1072.47 400.919 1085.64C419.528 1078.32 440.855 1060.97 448.173 1043.82C447.546 1060.55 434.164 1082.92 439.392 1099.02C454.864 1087.73 465.946 1056.37 466.573 1038.18C467.619 1051.77 469.709 1066.19 474.1 1079.78C479.746 1062.43 478.909 1044.24 481.209 1026.05C490.2 1050.3 496.055 1067.87 513.618 1088.57C513.409 1072.68 511.736 1052.81 509.018 1037.55C511.736 1052.81 526.791 1069.33 537.245 1080.83C537.872 1065.78 534.527 1046.54 532.645 1030.65C540.381 1046.75 559.408 1069.12 576.345 1076.02C552.718 1045.7 532.436 1012.25 511.318 980.467C501.073 965.831 496.891 944.922 479.118 937.186C465.319 931.122 446.082 933.422 439.601 949.104L424.755 986.322Z" fill="#002830"/>
<path d="M444.617 883.026C445.663 917.317 409.072 964.989 383.354 985.48C402.591 982.971 418.063 965.407 429.354 952.444C420.363 971.889 409.49 991.334 395.691 1007.43C422.663 996.561 442.527 974.398 452.772 948.471C452.981 966.662 452.981 985.061 456.535 1001.79C465.526 985.48 462.808 966.244 469.29 949.098C466.99 965.616 479.535 986.107 488.944 999.07C490.408 982.343 484.553 963.944 488.526 947.426C493.544 969.798 522.816 979.834 540.589 991.543C532.853 977.743 520.098 965.407 514.871 949.935C522.816 956.625 532.644 961.016 540.798 966.871C536.198 955.58 520.935 945.335 512.989 934.88C503.58 923.38 498.98 909.79 492.917 895.99C486.226 879.054 471.59 845.809 449.217 866.508L444.617 883.026Z" fill="#003F49"/>
<path d="M472.847 801.279C469.083 814.661 465.947 828.043 459.674 840.379C448.802 862.124 431.029 874.251 416.184 892.651C426.22 890.56 439.602 887.215 446.502 879.478C437.72 894.324 427.893 910.423 415.766 923.596C439.393 915.023 445.874 897.669 459.674 880.942C458.211 895.996 459.465 908.751 459.674 923.805C469.92 918.578 472.429 897.251 474.31 887.006C476.401 896.624 482.465 910.423 489.574 917.742C490.201 904.36 488.11 890.769 487.901 877.178C496.265 894.114 515.292 898.924 529.719 908.123C514.664 889.305 492.083 873.206 482.256 850.624C476.192 836.824 474.31 820.934 474.938 805.879L472.847 801.279Z" fill="#002830"/>
<path d="M882.606 1193.95C880.515 1208.38 901.633 1239.53 910.624 1251.45C913.969 1256.47 934.669 1277.17 932.16 1282.39C928.187 1290.76 888.461 1288.25 879.888 1289.5C850.616 1294.73 821.134 1295.36 791.653 1297.03C781.407 1297.45 773.671 1301.42 764.053 1302.67C756.526 1303.93 748.999 1303.3 741.681 1304.56C748.581 1289.92 759.244 1276.12 766.771 1261.48C774.298 1246.22 780.571 1231.17 788.516 1216.32C794.58 1204.82 801.271 1187.47 814.652 1182.87C828.452 1178.27 839.534 1186.42 852.288 1183.91C852.288 1183.91 852.916 1183.91 853.334 1183.91L882.606 1193.95Z" fill="#002830"/>
<path d="M878.635 1163.63C880.098 1171.37 884.071 1178.9 888.044 1185.8C894.944 1200.02 902.053 1215.07 912.716 1227.41C900.798 1226.78 889.717 1214.44 883.444 1205.87C886.58 1216.11 891.807 1227.2 897.453 1236.19C882.608 1229.08 874.662 1216.53 866.09 1203.99C866.508 1214.23 867.971 1225.52 871.108 1235.14C861.699 1228.87 856.471 1215.07 852.708 1205.03C852.499 1215.28 854.171 1226.57 852.29 1236.81C846.017 1227.82 843.926 1216.11 841.835 1205.45C842.881 1216.74 834.099 1228.45 827.408 1236.4C826.99 1224.06 829.081 1210.05 826.363 1197.92C824.063 1209.22 813.19 1220.09 805.663 1228.66C806.918 1217.37 807.336 1205.03 807.127 1195.21C802.109 1206.29 787.891 1212.98 784.127 1222.81C791.863 1214.23 789.145 1199.39 793.536 1189.56C786.009 1203.15 773.045 1216.11 758.827 1222.81C777.018 1208.8 818.626 1080.21 851.662 1115.33C855.635 1119.31 858.981 1123.7 861.908 1128.3L878.635 1163.63Z" fill="#003F49"/>
<path d="M863.998 1120.56C874.034 1141.68 885.534 1161.33 899.125 1179.73C883.861 1174.09 870.689 1164.89 860.443 1152.55C863.58 1163.21 871.525 1176.18 879.47 1184.75C867.552 1180.15 853.544 1168.86 848.944 1157.78C849.362 1168.65 857.934 1183.08 854.589 1193.53C844.553 1186.21 837.444 1165.93 837.026 1154.22C836.398 1163.01 835.144 1172.21 832.217 1181.2C828.662 1170.11 829.08 1158.2 827.617 1146.49C821.762 1162.17 817.999 1173.67 806.708 1186.84C806.917 1176.6 807.962 1163.63 809.635 1153.81C807.962 1163.63 798.135 1174.3 791.444 1181.82C791.026 1172 793.326 1159.66 794.372 1149.41C789.353 1159.87 777.017 1174.3 765.936 1178.9C781.199 1159.24 794.372 1137.71 807.962 1117.01C814.653 1107.39 817.162 1094.01 828.871 1088.99C837.862 1085.02 850.198 1086.69 854.38 1096.72L863.998 1120.56Z" fill="#002830"/>
<path d="M851.246 1053.86C850.409 1076.02 874.246 1106.96 890.973 1120.14C878.636 1118.46 868.391 1107.17 861.073 1098.6C866.927 1111.15 873.827 1123.69 882.818 1134.15C865.464 1127.04 852.5 1112.82 845.81 1096.09C845.81 1108.01 845.6 1119.72 843.51 1130.59C837.655 1119.93 839.328 1107.59 835.146 1096.51C836.61 1107.17 828.664 1120.35 822.392 1128.92C821.346 1118.25 825.319 1106.13 822.601 1095.46C819.464 1109.89 800.437 1116.37 788.938 1124.11C793.956 1115.12 802.11 1107.17 805.665 1097.14C800.437 1101.53 794.165 1104.25 788.938 1108.01C791.865 1100.69 801.901 1094.21 806.919 1087.31C812.983 1079.78 815.91 1071 819.883 1062.22C824.273 1051.35 833.682 1029.81 848.109 1043.19L851.246 1053.86Z" fill="#003F49"/>
<path d="M833.053 1000.96C835.562 1009.53 837.444 1018.31 841.625 1026.26C848.525 1040.48 860.234 1048.21 869.852 1060.13C863.371 1058.88 854.798 1056.58 850.198 1051.56C855.843 1061.18 862.325 1071.63 870.061 1080C854.798 1074.35 850.616 1063.27 841.625 1052.4C842.462 1062.22 841.834 1070.38 841.625 1080.2C835.144 1076.86 833.471 1063.06 832.007 1056.37C830.544 1062.64 826.78 1071.42 821.971 1076.23C821.553 1067.45 822.807 1058.67 823.016 1049.89C817.58 1060.97 805.244 1063.9 795.835 1069.96C805.453 1057.83 820.089 1047.38 826.571 1032.74C830.544 1023.75 831.798 1013.51 831.38 1003.68L833.053 1000.96Z" fill="#002830"/>
<path d="M656.759 1105.84C660.941 1124.03 630.414 1164.17 617.242 1179.65C612.223 1186.13 581.906 1213.31 585.878 1219.79C592.569 1230.25 653.414 1225.02 666.586 1226.27C711.959 1231.5 757.122 1230.87 802.494 1231.5C818.175 1231.5 830.512 1236.1 845.357 1237.35C856.857 1238.61 868.357 1237.35 879.857 1238.61C868.357 1220.42 851.002 1203.69 838.666 1185.5C826.33 1166.68 815.666 1147.86 802.494 1129.88C792.667 1115.67 781.167 1094.34 760.467 1089.11C739.14 1083.88 722.622 1094.97 702.759 1092.25C702.759 1092.25 701.922 1092.25 701.086 1092.25L656.759 1105.84Z" fill="#002830"/>
<path d="M665.962 1067.58C664.708 1077.2 659.899 1087.02 655.09 1096.01C646.935 1114.2 638.781 1133.65 626.026 1149.75C640.872 1148.49 654.462 1132.19 661.781 1121.31C658.435 1134.28 652.371 1148.49 645.472 1160.2C663.662 1150.59 673.28 1134.28 683.317 1118.18C683.317 1131.14 682.062 1145.36 678.508 1157.69C690.007 1149.33 696.071 1131.77 700.044 1118.8C700.671 1131.77 699.416 1145.99 702.135 1158.95C709.662 1147.24 711.544 1132.39 713.634 1118.8C713.007 1133.02 724.507 1147.24 733.289 1157.07C733.289 1141.59 729.943 1124.03 732.661 1108.56C736.007 1122.78 750.225 1135.74 760.47 1146.19C758.379 1131.98 757.125 1116.3 757.125 1104.17C763.816 1117.76 782.215 1125.5 787.443 1137.83C777.406 1127.38 779.915 1108.77 773.852 1096.43C784.097 1113.37 800.824 1128.84 819.224 1136.58C795.597 1119.64 736.843 959.688 696.907 1005.69C692.098 1010.91 688.126 1016.77 684.78 1022.62L665.962 1067.58Z" fill="#003F49"/>
<path d="M682.266 1012.59C670.766 1039.77 657.175 1065.07 641.075 1089.11C660.102 1081.38 676.202 1069.04 688.329 1052.94C684.984 1066.53 675.575 1083.47 665.957 1094.34C680.802 1087.86 697.738 1073.01 703.174 1058.79C703.174 1072.38 693.138 1091.2 697.738 1104.17C709.865 1094.55 718.02 1068.62 718.02 1053.57C719.274 1064.65 721.365 1076.15 725.547 1087.23C729.52 1073.01 728.265 1058.17 729.52 1043.11C737.674 1062.56 743.11 1076.78 757.956 1093.08C757.328 1080.12 755.237 1064.02 752.519 1051.69C755.237 1064.02 767.992 1076.98 776.774 1085.98C776.774 1073.64 773.428 1058.17 771.337 1045.2C778.028 1058.17 794.337 1075.73 808.555 1080.75C788.273 1056.7 770.71 1030.15 752.519 1004.85C743.738 993.14 739.765 976.413 724.711 970.559C713.211 965.959 697.738 968.677 692.929 981.641L682.266 1012.59Z" fill="#002830"/>
<path d="M695.026 927.692C697.117 955.5 668.681 995.645 648.399 1013.21C663.872 1010.7 676.208 995.645 684.99 984.773C678.299 1000.87 670.145 1017.18 659.272 1030.77C680.808 1021.15 696.49 1002.34 703.808 980.8C704.435 995.645 705.062 1010.49 708.617 1024.29C715.308 1010.7 712.59 995.227 717.399 980.8C716.144 994.391 726.808 1010.49 734.962 1020.95C735.589 1007.35 730.153 992.509 732.871 978.918C737.68 997.109 761.934 1004.22 776.78 1013.21C770.089 1002.13 759.216 992.509 754.407 980.173C761.098 985.4 769.252 988.536 775.943 993.136C771.971 984.145 759.007 976.2 752.316 967.837C744.162 958.846 740.189 947.764 734.753 936.682C728.689 923.092 715.726 896.538 698.162 914.101L695.026 927.692Z" fill="#003F49"/>
<path d="M715.515 860.159C712.796 871.241 710.706 882.113 706.106 892.568C697.951 910.759 683.733 921.004 672.233 936.686C680.388 934.804 691.26 931.458 696.488 924.977C689.797 937.313 682.27 950.904 672.861 961.985C691.888 954.249 696.488 940.031 707.36 925.813C706.733 938.149 707.987 948.394 708.615 960.731C716.769 956.131 718.024 938.776 719.487 930.204C721.578 937.94 727.014 949.022 733.078 954.876C733.078 943.795 730.987 932.922 730.36 921.84C737.887 935.431 753.36 938.776 765.487 945.885C752.732 931.04 733.705 918.704 724.924 900.513C719.487 889.432 717.396 876.468 717.396 864.132L715.515 860.159Z" fill="#002830"/>
<path d="M1049.23 1159.97C1043.58 1169.8 1035.22 1178.79 1027.07 1186.74C1013.06 1200.75 999.256 1216.43 982.32 1226.26C994.447 1231.9 1016.61 1214.97 1026.44 1209.32C1023.51 1218.31 1011.8 1224.37 1009.92 1233.78C1017.03 1231.48 1024.56 1228.56 1031.46 1225.42C1038.57 1222.07 1045.46 1216.01 1052.57 1213.71C1052.57 1224.17 1040.45 1231.48 1034.8 1239.01C1047.97 1240.89 1058.85 1225.42 1068.26 1218.73C1070.14 1225.84 1068.67 1234.62 1072.02 1242.15C1076.2 1234.2 1079.96 1224.79 1084.77 1216.85C1088.54 1225.21 1090.84 1236.5 1098.36 1242.77C1099.41 1233.78 1102.13 1226.26 1105.89 1217.89C1111.96 1226.47 1115.3 1234.83 1125.55 1239.01C1121.78 1233.78 1123.25 1225.84 1123.25 1219.77C1133.49 1226.88 1141.65 1234.41 1153.77 1239.01C1148.55 1232.95 1142.48 1225 1139.76 1217.89C1150.01 1219.77 1160.88 1225.84 1171.75 1228.76C1168.83 1224.17 1160.05 1219.36 1154.82 1216.01C1167.57 1222.49 1182 1223.12 1196.22 1224.37C1169.87 1212.25 1145.41 1192.8 1132.65 1166.04C1128.05 1155.58 1123.66 1144.5 1119.06 1134.47C1113.42 1123.18 1100.66 1123.59 1090 1126.1C1090 1126.1 1090 1126.1 1089.58 1126.1L1049.23 1159.97Z" fill="#003F49"/>
<path d="M1064.28 1119.2C1052.57 1143.66 1028.53 1167.08 1006.99 1182.76C1020.58 1185.48 1036.68 1175.24 1047.34 1169.17C1041.7 1178.58 1035.63 1189.46 1027.06 1197.82C1048.6 1192.17 1058.01 1175.66 1070.76 1159.35C1071.18 1168.76 1064.28 1177.12 1061.77 1186.11C1070.76 1178.16 1077.66 1172.52 1084.35 1162.06C1084.35 1171.47 1083.93 1179.84 1081.63 1189.25C1093.76 1184.02 1096.69 1161.02 1100.45 1149.73C1099.62 1162.48 1108.4 1175.03 1114.04 1185.9C1114.46 1172.73 1114.04 1159.56 1115.92 1146.8C1115.92 1146.38 1115.92 1146.38 1115.92 1146.8C1118.22 1159.97 1130.14 1167.08 1136.62 1177.75C1135.16 1169.8 1135.16 1160.81 1132.86 1153.28C1143.73 1162.27 1156.28 1168.76 1166.73 1177.33C1153.98 1169.38 1144.15 1149.52 1137.04 1136.97C1130.35 1125.68 1127.22 1112.93 1120.52 1102.27C1114.04 1091.39 1109.65 1084.49 1096.06 1083.45C1083.93 1082.4 1076.82 1085.75 1071.18 1096.62L1064.28 1119.2Z" fill="#002830"/>
<path d="M1080.8 1063.16C1075.15 1072.15 1070.34 1082.4 1064.91 1091.39C1054.04 1108.74 1037.73 1117.32 1023.09 1130.49C1036.68 1129.02 1050.27 1121.5 1059.68 1112.09C1053.2 1123.38 1046.93 1133.21 1037.52 1142.2C1059.05 1137.6 1075.57 1116.9 1086.86 1099.33C1084.14 1110.21 1082.68 1130.28 1087.7 1141.15C1088.74 1126.1 1099.41 1112.51 1101.92 1097.87C1101.5 1108.12 1110.28 1126.52 1116.97 1135.09C1113.21 1124.84 1111.33 1108.32 1111.74 1097.45C1111.74 1097.03 1111.74 1097.03 1111.74 1097.03C1113.63 1114.39 1141.43 1123.8 1154.61 1129.86C1136.21 1117.11 1121.15 1091.81 1115.51 1070.69C1113.63 1063.16 1112.16 1053.33 1105.05 1049.15C1099.83 1045.81 1090.42 1044.97 1086.24 1049.57L1080.8 1063.16Z" fill="#003F49"/>
<path d="M1098.15 1000.02C1095.85 1009.85 1092.51 1018.84 1087.91 1028.25C1079.96 1045.18 1072.02 1055.43 1058.22 1068.18C1063.44 1069.23 1072.22 1064 1075.99 1060.24C1068.88 1067.35 1065.53 1077.18 1058.22 1083.66C1072.22 1078.01 1084.14 1064.42 1093.55 1053.13C1091.67 1061.49 1094.6 1075.29 1098.15 1083.24C1100.03 1074.25 1102.75 1065.47 1104.63 1056.89C1113.21 1066.72 1123.87 1071.53 1133.7 1079.06C1131.4 1069.23 1122.82 1060.66 1117.18 1052.29C1113 1045.81 1110.07 1038.28 1106.72 1031.18C1102.54 1020.93 1099.62 1007.13 1099.62 995.84L1098.15 1000.02Z" fill="#002830"/>
<path d="M1276.23 1002.53C1269.13 1017.58 1258.67 1031.38 1248.64 1043.51C1231.07 1065.04 1214.14 1088.88 1193.02 1103.93C1208.28 1112.51 1235.67 1086.58 1248.01 1078.01C1244.45 1091.6 1229.82 1101.01 1227.52 1115.43C1236.3 1111.88 1245.71 1107.49 1254.49 1102.47C1263.27 1097.45 1272.05 1088.04 1280.83 1084.49C1280.83 1100.38 1265.57 1111.88 1258.67 1123.38C1274.98 1126.31 1288.57 1102.47 1300.28 1092.43C1302.58 1103.31 1300.91 1116.9 1304.88 1128.4C1310.11 1116.27 1314.92 1101.84 1320.77 1089.51C1325.37 1102.47 1328.3 1119.62 1337.71 1129.02C1338.96 1115.43 1342.31 1103.93 1347.12 1090.97C1354.64 1103.93 1358.82 1116.9 1371.79 1123.38C1367.19 1115.43 1368.86 1103.31 1368.86 1093.9C1381.82 1104.77 1391.65 1116.27 1406.91 1123.38C1400.43 1113.97 1392.91 1101.84 1389.35 1090.97C1402.31 1093.9 1415.7 1103.1 1429.08 1107.49C1425.52 1100.38 1414.44 1093.06 1407.96 1088.04C1423.85 1098.08 1441.83 1098.92 1459.4 1101.01C1426.57 1082.4 1396.25 1052.92 1380.36 1011.93C1374.51 996.044 1369.28 978.899 1363.42 963.845C1356.32 946.49 1340.63 947.327 1327.04 950.881C1327.04 950.881 1327.04 950.881 1326.42 950.881L1276.23 1002.53Z" fill="#003F49"/>
<path d="M1295.05 940.017C1280.41 977.444 1250.51 1013.41 1223.75 1037.03C1240.69 1041.43 1260.55 1025.53 1274.14 1016.13C1267.03 1030.55 1259.5 1047.07 1249.05 1060.03C1276.02 1051.46 1287.73 1026.16 1303.41 1001.07C1304.04 1015.5 1295.26 1028.46 1292.33 1042.05C1303.41 1029.93 1312.19 1021.14 1320.35 1005.46C1320.35 1019.89 1319.72 1032.85 1316.79 1047.07C1332.06 1039.13 1335.61 1004 1340.21 986.644C1338.96 1006.09 1350.25 1025.53 1357.15 1042.05C1357.77 1021.98 1357.15 1001.7 1359.45 982.462C1359.45 981.835 1359.45 981.835 1359.45 982.462C1362.37 1002.53 1377.01 1013.41 1385.17 1029.93C1383.49 1017.8 1383.49 1004 1380.57 992.498C1393.95 1006.09 1409.84 1016.13 1422.59 1029.09C1406.7 1016.96 1394.57 986.644 1385.79 967.199C1377.64 949.845 1373.46 930.608 1365.3 914.09C1357.15 897.572 1351.92 886.7 1334.77 885.236C1319.51 883.773 1310.73 888.791 1303.83 905.309L1295.05 940.017Z" fill="#002830"/>
<path d="M1315.33 854.495C1308.22 868.086 1302.37 883.977 1295.47 897.567C1282.08 924.122 1261.59 937.085 1243.4 957.157C1260.34 955.067 1277.28 943.567 1288.98 929.14C1280.83 946.285 1273.09 961.548 1261.38 975.139C1288.36 968.03 1308.85 936.249 1322.86 909.694C1319.3 926.212 1317.63 957.157 1324.11 973.675C1325.37 950.676 1338.75 929.767 1341.67 907.604C1341.05 923.494 1352.13 951.512 1360.49 964.476C1355.89 948.585 1353.38 923.494 1354.01 906.976C1354.01 906.349 1354.01 906.349 1354.01 906.349C1356.31 932.903 1390.81 947.33 1407.33 956.739C1384.54 937.294 1365.72 898.613 1358.82 866.204C1356.52 854.704 1354.64 839.65 1345.86 833.168C1339.37 828.15 1327.67 826.686 1322.44 833.795L1315.33 854.495Z" fill="#003F49"/>
<path d="M1337.08 758.104C1334.15 773.158 1329.97 786.958 1324.11 801.176C1314.08 827.103 1304.25 842.785 1287.31 862.23C1293.8 863.693 1304.88 855.748 1309.48 850.103C1300.7 860.975 1296.51 876.03 1287.31 886.066C1304.88 877.493 1319.51 856.584 1331.22 839.439C1328.92 852.403 1332.48 873.311 1337.08 885.439C1339.38 871.848 1342.93 858.048 1345.23 845.085C1355.69 860.139 1369.28 867.457 1381.4 878.957C1378.48 863.902 1368.02 850.939 1360.91 837.976C1355.69 827.939 1352.13 816.439 1347.95 805.567C1342.72 789.676 1339.17 768.976 1339.17 751.622L1337.08 758.104Z" fill="#002830"/>
<path d="M1143.55 1097.46C1147.94 1120.46 1116.16 1171.47 1102.36 1191.13C1097.13 1199.28 1065.56 1233.78 1069.74 1242.15C1076.64 1255.32 1139.99 1248.63 1153.79 1250.3C1200.84 1256.78 1248.09 1256.16 1295.35 1256.78C1311.66 1256.78 1324.41 1262.64 1339.88 1264.1C1351.8 1265.77 1363.93 1264.1 1375.85 1265.77C1363.93 1242.77 1345.95 1221.45 1332.98 1198.45C1320.02 1174.61 1308.94 1150.77 1295.35 1127.78C1285.1 1109.79 1272.97 1082.61 1251.65 1075.92C1229.28 1069.44 1212.13 1083.24 1191.64 1080.1C1191.64 1080.1 1190.8 1080.1 1189.97 1080.1L1143.55 1097.46Z" fill="#002830"/>
<path d="M1147.73 1049.16C1146.06 1061.5 1139.99 1073.83 1133.93 1085.33C1123.68 1108.33 1113.44 1133 1097.13 1153.5C1115.95 1151.82 1133.09 1131.33 1142.5 1117.32C1138.11 1133.84 1130.58 1151.82 1122.01 1166.67C1145.22 1154.33 1157.14 1133.84 1170.1 1113.35C1170.1 1129.87 1168.43 1147.85 1164.04 1163.53C1178.67 1152.87 1186.41 1130.7 1191.43 1114.19C1192.27 1130.7 1190.59 1148.69 1193.94 1165.2C1203.35 1150.36 1205.86 1131.54 1208.57 1114.19C1207.74 1132.17 1222.37 1150.36 1233.46 1162.69C1233.46 1143.04 1229.27 1120.88 1232.62 1101.01C1236.8 1119 1254.99 1135.51 1267.75 1148.69C1265.24 1130.7 1263.56 1110.84 1263.56 1095.37C1272.14 1112.72 1295.35 1122.55 1302.25 1138.02C1289.28 1124.85 1292.84 1101.01 1285.1 1085.54C1298.06 1106.87 1319.39 1126.52 1342.6 1136.56C1312.49 1115.23 1238.06 912.207 1187.46 970.543C1181.39 977.024 1176.37 984.552 1171.98 991.87L1147.73 1049.16Z" fill="#003F49"/>
<path d="M1168.44 979.326C1153.8 1013.83 1136.65 1045.82 1116.16 1076.34C1140.21 1066.52 1160.7 1050.83 1176.17 1030.34C1171.99 1047.7 1159.86 1069.03 1147.95 1082.83C1166.76 1074.67 1188.3 1055.64 1194.99 1037.66C1194.99 1055.02 1182.24 1078.64 1188.09 1095.16C1203.56 1082.83 1213.81 1050 1213.81 1031.18C1215.48 1045.19 1217.99 1060.03 1223.22 1073.83C1228.44 1055.85 1226.56 1036.83 1228.44 1018.01C1238.69 1042.68 1245.59 1060.66 1264.41 1081.36C1263.57 1064.84 1261.06 1044.35 1257.51 1028.88C1260.85 1044.56 1277.16 1060.87 1288.45 1072.37C1288.45 1056.69 1284.27 1037.03 1281.55 1020.52C1290.13 1037.03 1310.62 1059.2 1328.81 1065.68C1303.09 1035.36 1280.72 1001.7 1257.72 969.499C1246.64 954.654 1241.41 933.327 1222.59 926.009C1207.95 920.154 1188.3 923.5 1182.24 940.018L1168.44 979.326Z" fill="#002830"/>
<path d="M1184.74 871.646C1187.25 906.982 1151.29 958 1125.57 980.163C1145.23 976.818 1160.7 958 1171.78 943.991C1163.21 964.482 1152.96 984.972 1139.16 1002.33C1166.55 989.99 1186.42 966.154 1195.82 938.973C1196.66 957.791 1197.5 976.818 1201.89 993.963C1210.46 976.609 1207.12 956.954 1212.97 938.973C1211.3 956.327 1224.89 976.818 1235.34 989.99C1236.18 972.636 1229.28 953.818 1232.83 936.673C1238.9 959.673 1269.63 968.663 1288.66 980.163C1280.09 966.154 1266.29 953.818 1260.43 938.346C1269.01 944.827 1279.25 949.009 1287.82 954.863C1282.6 943.364 1266.5 933.536 1257.92 922.873C1247.68 911.373 1242.45 897.364 1235.55 883.355C1227.82 866.21 1211.51 832.338 1189.34 854.501L1184.74 871.646Z" fill="#003F49"/>
<path d="M1210.67 785.92C1207.32 799.929 1204.6 813.938 1198.75 826.901C1188.5 849.901 1170.52 863.073 1155.88 882.728C1166.13 880.219 1179.93 876.246 1186.83 867.883C1178.26 883.564 1168.85 900.709 1156.93 914.718C1180.98 904.891 1186.83 886.701 1200.63 868.719C1199.79 884.401 1201.47 897.573 1202.3 913.046C1212.55 907.191 1214.22 885.028 1216.1 874.364C1218.61 884.191 1225.51 898.2 1233.25 905.518C1233.25 891.509 1230.74 877.501 1229.9 863.701C1239.31 881.055 1258.97 885.028 1274.44 894.019C1258.13 875.201 1234.08 859.519 1223 836.519C1216.1 822.51 1213.59 806.201 1213.59 790.52L1210.67 785.92Z" fill="#002830"/>
<path d="M1357.11 1080.85C1359.95 1100.45 1331.38 1142.63 1319.11 1158.79C1314.47 1165.52 1286.5 1193.79 1289.79 1200.82C1295.17 1212.19 1349.18 1208.75 1360.7 1210.55C1400.49 1217.73 1440.43 1218.63 1480.38 1220.87C1494.14 1221.47 1504.91 1226.71 1517.92 1228.65C1528.1 1230.45 1538.27 1229.4 1548.29 1231.19C1538.87 1211.3 1524.36 1192.6 1514.18 1172.7C1504.01 1152.06 1495.48 1131.56 1484.56 1111.66C1476.49 1095.96 1467.21 1072.62 1449.26 1066.34C1430.56 1060.05 1415.6 1071.27 1398.25 1067.83C1398.25 1067.83 1397.5 1067.83 1396.75 1067.83L1357.11 1080.85Z" fill="#002830"/>
<path d="M1362.49 1040.01C1360.7 1050.33 1355.16 1060.65 1349.63 1070.22C1340.2 1089.37 1330.63 1109.87 1316.12 1126.77C1332.13 1126.02 1347.38 1109.12 1355.76 1097.6C1351.57 1111.36 1344.39 1126.47 1336.61 1138.74C1356.66 1129.02 1367.43 1112.11 1379.1 1095.06C1378.5 1108.97 1376.56 1124.23 1372.37 1137.24C1385.08 1128.72 1392.41 1110.17 1397.2 1096.4C1397.35 1110.32 1395.26 1125.58 1397.65 1139.64C1406.18 1127.37 1408.87 1111.51 1411.71 1097C1410.37 1112.26 1422.18 1128.12 1431.16 1138.89C1431.76 1122.13 1428.92 1103.29 1432.51 1086.68C1435.5 1102.09 1450.31 1116.6 1460.63 1128.27C1458.98 1112.86 1458.24 1096.1 1458.83 1082.94C1465.57 1097.9 1484.86 1107.03 1490.1 1120.49C1479.63 1108.97 1483.37 1088.92 1477.38 1075.31C1487.56 1093.86 1505.06 1111.21 1524.36 1120.34C1499.67 1101.19 1443.28 926.91 1398.4 974.632C1393.16 980.017 1388.52 986.151 1384.63 992.284L1362.49 1040.01Z" fill="#003F49"/>
<path d="M1382.24 981.512C1368.78 1010.24 1353.22 1036.86 1334.67 1061.85C1355.32 1054.37 1373.27 1041.8 1387.03 1024.9C1382.84 1039.41 1371.92 1057.06 1361.3 1068.43C1377.61 1062.15 1396.3 1046.74 1402.74 1031.78C1402.14 1046.44 1390.47 1066.18 1394.96 1080.25C1408.42 1070.37 1418.3 1042.85 1418.89 1026.84C1419.94 1038.66 1421.59 1051.37 1425.48 1063.34C1430.41 1048.23 1429.67 1032.08 1431.76 1016.22C1439.69 1037.46 1444.92 1053.02 1460.18 1070.97C1460.03 1057.06 1458.54 1039.56 1456.14 1026.24C1458.54 1039.56 1471.85 1054.07 1480.83 1064.09C1481.28 1050.93 1478.43 1034.02 1476.79 1019.96C1483.52 1034.17 1500.13 1053.62 1515.23 1059.75C1494.44 1033.12 1476.64 1003.8 1458.24 975.977C1449.26 963.112 1445.67 944.861 1429.96 937.98C1417.85 932.594 1400.94 934.688 1395.41 948.451L1382.24 981.512Z" fill="#002830"/>
<path d="M1399.59 890.856C1400.64 920.925 1368.33 962.813 1345.89 980.764C1362.64 978.67 1376.4 963.112 1386.28 951.742C1378.35 968.796 1368.92 985.851 1356.66 1000.06C1380.29 990.488 1397.8 971.04 1406.77 948.302C1406.92 964.309 1406.92 980.315 1410.06 995.126C1417.84 980.764 1415.6 964.009 1421.28 948.9C1419.19 963.411 1430.26 981.363 1438.49 992.732C1439.83 978.071 1434.6 961.915 1438.04 947.404C1442.38 967.151 1468.26 975.828 1483.81 986.15C1477.08 974.032 1465.86 963.112 1461.23 949.648C1468.26 955.482 1476.78 959.372 1483.96 964.458C1479.92 954.585 1466.46 945.609 1459.58 936.334C1451.2 926.311 1447.31 914.193 1442.08 902.226C1436.09 887.416 1423.38 858.244 1403.78 876.345L1399.59 890.856Z" fill="#003F49"/>
<path d="M1424.43 819.199C1420.99 830.868 1418.44 842.686 1412.91 853.607C1403.48 872.755 1387.78 883.227 1374.76 899.533C1383.59 897.738 1395.26 894.746 1401.39 888.014C1393.61 900.879 1385.08 915.241 1374.46 926.61C1395.11 919.13 1400.79 904.021 1413.06 889.061C1411.86 902.226 1412.76 913.445 1413.06 926.76C1422.03 922.272 1424.13 903.572 1425.92 894.447C1427.72 902.824 1433.11 914.941 1439.39 921.524C1439.84 909.705 1438.19 897.738 1437.89 885.92C1445.37 900.879 1461.83 904.918 1474.69 913.146C1461.53 896.541 1441.78 882.628 1433.11 862.732C1427.72 850.615 1426.07 836.702 1426.67 823.388L1424.43 819.199Z" fill="#002830"/>
<g filter="url(#filter0_d_224_2)">
<mask id="path-38-inside-1_224_2" fill="white">
<path fill-rule="evenodd" clip-rule="evenodd" d="M2940.93 -576.015H-963.28V1856H2940.93V-576.015ZM956.35 1230.55C1280.52 1230.55 1543.3 967.766 1543.3 643.6C1543.3 319.433 1280.52 56.6449 956.35 56.6449C632.184 56.6449 369.395 319.433 369.395 643.6C369.395 967.766 632.184 1230.55 956.35 1230.55Z"/>
</mask>
<path fill-rule="evenodd" clip-rule="evenodd" d="M2940.93 -576.015H-963.28V1856H2940.93V-576.015ZM956.35 1230.55C1280.52 1230.55 1543.3 967.766 1543.3 643.6C1543.3 319.433 1280.52 56.6449 956.35 56.6449C632.184 56.6449 369.395 319.433 369.395 643.6C369.395 967.766 632.184 1230.55 956.35 1230.55Z" fill="url(#paint0_radial_224_2)"/>
<path d="M-963.28 -576.015V-576.955H-964.22V-576.015H-963.28ZM2940.93 -576.015H2941.87V-576.955H2940.93V-576.015ZM-963.28 1856H-964.22V1856.94H-963.28V1856ZM2940.93 1856V1856.94H2941.87V1856H2940.93ZM-963.28 -575.075H2940.93V-576.955H-963.28V-575.075ZM-962.341 1856V-576.015H-964.22V1856H-962.341ZM2940.93 1855.06H-963.28V1856.94H2940.93V1855.06ZM2939.99 -576.015V1856H2941.87V-576.015H2939.99ZM1542.37 643.6C1542.37 967.247 1280 1229.61 956.35 1229.61V1231.49C1281.04 1231.49 1544.24 968.285 1544.24 643.6H1542.37ZM956.35 57.5846C1280 57.5846 1542.37 319.952 1542.37 643.6H1544.24C1544.24 318.915 1281.04 55.7052 956.35 55.7052V57.5846ZM370.335 643.6C370.335 319.952 632.703 57.5846 956.35 57.5846V55.7052C631.665 55.7052 368.456 318.915 368.456 643.6H370.335ZM956.35 1229.61C632.703 1229.61 370.335 967.247 370.335 643.6H368.456C368.456 968.285 631.665 1231.49 956.35 1231.49V1229.61Z" fill="white" fill-opacity="0.5" mask="url(#path-38-inside-1_224_2)"/>
</g>
<defs>
<filter id="filter0_d_224_2" x="-1019.66" y="-632.395" width="4016.97" height="2544.77" filterUnits="userSpaceOnUse" color-interpolation-filters="sRGB">
<feFlood flood-opacity="0" result="BackgroundImageFix"/>
<feColorMatrix in="SourceAlpha" type="matrix" values="0 0 0 0 0 0 0 0 0 0 0 0 0 0 0 0 0 0 127 0" result="hardAlpha"/>
<feOffset/>
<feGaussianBlur stdDeviation="28.1901"/>
<feComposite in2="hardAlpha" operator="out"/>
<feColorMatrix type="matrix" values="0 0 0 0 0 0 0 0 0 0 0 0 0 0 0 0 0 0 0.5 0"/>
<feBlend mode="normal" in2="BackgroundImageFix" result="effect1_dropShadow_224_2"/>
<feBlend mode="normal" in="SourceGraphic" in2="effect1_dropShadow_224_2" result="shape"/>
</filter>
<radialGradient id="paint0_radial_224_2" cx="0" cy="0" r="1" gradientUnits="userSpaceOnUse" gradientTransform="translate(988.62 640.006) scale(1658.81 1033.31)">
<stop stop-color="#ED1C25"/>
<stop offset="0.346586" stop-color="#E51E26"/>
<stop offset="0.6643" stop-color="#D1222A"/>
<stop offset="1" stop-color="#AF2A30"/>
</radialGradient>
</defs>
</svg>
