<svg width="1920" height="1280" viewBox="0 0 1920 1280" fill="none" xmlns="http://www.w3.org/2000/svg">
<g clip-path="url(#clip0_1_7789)">
<g opacity="0.4">
<path opacity="0.4" d="M930.823 369.01C937.324 369.01 942.525 374.211 942.525 380.712C942.525 387.214 937.324 392.415 930.823 392.415C924.322 392.415 919.121 387.214 919.121 380.712C918.687 374.211 924.322 369.01 930.823 369.01Z" fill="#F4F4F4"/>
<path opacity="0.4" d="M914.353 512.907C919.988 512.907 924.322 517.241 924.322 522.876C924.322 528.51 919.988 532.844 914.353 532.844C908.719 532.844 904.384 528.51 904.384 522.876C904.384 517.241 908.719 512.907 914.353 512.907Z" fill="#F4F4F4"/>
<path opacity="0.4" d="M929.956 629.931C936.458 629.931 941.659 635.132 941.659 641.633C941.659 648.134 936.458 653.336 929.956 653.336C923.455 653.336 918.254 648.134 918.254 641.633C918.254 635.132 923.455 629.931 929.956 629.931Z" fill="#F4F4F4"/>
<path opacity="0.4" d="M858.008 806.768C863.209 806.768 867.543 811.102 867.543 816.303C867.543 821.504 863.209 825.838 858.008 825.838C852.807 825.838 848.472 821.504 848.472 816.303C848.472 811.102 852.807 806.768 858.008 806.768Z" fill="#F4F4F4"/>
<path opacity="0.4" d="M929.956 0.601073C939.491 0.601074 947.726 8.40258 947.726 18.3713C947.726 27.9066 939.924 36.1416 929.956 36.1416C920.42 36.1416 912.185 28.34 912.185 18.3713C912.185 8.40258 920.42 0.601073 929.956 0.601073Z" fill="#F4F4F4"/>
<path opacity="0.4" d="M918.687 912.089C928.656 912.089 936.891 920.324 936.891 930.293C936.891 940.262 928.656 948.497 918.687 948.497C908.718 948.497 900.483 940.262 900.483 930.293C900.483 919.891 908.718 912.089 918.687 912.089Z" fill="#F4F4F4"/>
<path opacity="0.4" d="M857.574 137.562C866.242 137.562 873.61 144.93 873.61 153.598C873.61 162.267 866.242 169.635 857.574 169.635C848.905 169.635 841.537 162.267 841.537 153.598C841.537 144.93 848.905 137.562 857.574 137.562Z" fill="#F4F4F4"/>
<path opacity="0.4" d="M936.457 1068.12C943.392 1068.12 949.459 1073.76 949.459 1081.12C949.459 1088.06 943.825 1094.13 936.457 1094.13C929.522 1094.13 923.454 1088.49 923.454 1081.12C923.454 1073.76 929.089 1068.12 936.457 1068.12Z" fill="#F4F4F4"/>
<path opacity="0.4" d="M924.322 225.547C932.99 225.547 940.358 232.915 940.358 241.584C940.358 250.252 932.99 257.62 924.322 257.62C915.653 257.62 908.285 250.252 908.285 241.584C908.285 232.915 915.653 225.547 924.322 225.547Z" fill="#F4F4F4"/>
<path opacity="0.4" d="M861.041 1166.51C869.709 1166.51 876.644 1173.44 876.644 1182.11C876.644 1190.78 869.709 1197.72 861.041 1197.72C852.372 1197.72 845.438 1190.78 845.438 1182.11C845.004 1173.44 852.372 1166.51 861.041 1166.51Z" fill="#F4F4F4"/>
<path opacity="0.4" d="M781.725 353.407C791.26 353.407 799.062 361.208 799.062 370.744C799.062 380.279 791.26 388.081 781.725 388.081C772.19 388.081 764.388 380.279 764.388 370.744C764.388 361.208 772.19 353.407 781.725 353.407Z" fill="#F4F4F4"/>
<path opacity="0.4" d="M752.252 502.071C762.221 502.071 770.023 510.306 770.023 519.841C770.023 529.81 761.788 537.611 752.252 537.611C742.284 537.611 734.482 529.376 734.482 519.841C734.482 509.872 742.284 502.071 752.252 502.071Z" fill="#F4F4F4"/>
<path opacity="0.4" d="M773.057 653.336C776.958 653.336 779.992 656.37 779.992 660.271C779.992 664.171 776.958 667.205 773.057 667.205C769.156 667.205 766.122 664.171 766.122 660.271C766.122 656.37 769.156 653.336 773.057 653.336Z" fill="#F4F4F4"/>
<path opacity="0.4" d="M731.015 793.331C735.349 793.331 738.816 796.799 738.816 801.133C738.816 805.467 735.349 808.935 731.015 808.935C726.68 808.935 723.213 805.467 723.213 801.133C723.213 796.799 726.68 793.331 731.015 793.331Z" fill="#F4F4F4"/>
<path opacity="0.4" d="M732.748 5.80078C740.116 5.80078 746.184 11.8686 746.184 19.2368C746.184 26.605 740.116 32.6728 732.748 32.6728C725.38 32.6728 719.312 26.605 719.312 19.2368C719.312 11.8686 725.38 5.80078 732.748 5.80078Z" fill="#F4F4F4"/>
<path opacity="0.4" d="M780.424 931.159C787.793 931.159 793.427 937.227 793.427 944.162C793.427 951.53 787.359 957.165 780.424 957.165C773.056 957.165 767.422 951.097 767.422 944.162C767.422 936.794 773.49 931.159 780.424 931.159Z" fill="#F4F4F4"/>
<path opacity="0.4" d="M788.226 114.157C799.061 114.157 807.296 122.825 807.296 133.227C807.296 144.063 798.628 152.298 788.226 152.298C777.824 152.298 769.155 143.63 769.155 133.227C769.155 122.825 777.39 114.157 788.226 114.157Z" fill="#F4F4F4"/>
<path opacity="0.4" d="M753.986 1058.15C758.753 1058.15 762.221 1062.05 762.221 1066.39C762.221 1071.16 758.32 1074.62 753.986 1074.62C749.218 1074.62 745.751 1070.72 745.751 1066.39C745.751 1061.62 749.218 1058.15 753.986 1058.15Z" fill="#F4F4F4"/>
<path opacity="0.4" d="M763.088 227.28C770.023 227.28 775.657 232.915 775.657 240.283C775.657 247.218 770.023 253.286 763.088 253.286C756.153 253.286 750.085 247.651 750.085 240.283C750.085 233.348 755.72 227.28 763.088 227.28Z" fill="#F4F4F4"/>
<path opacity="0.4" d="M737.515 1160.87C742.716 1160.87 746.617 1164.77 746.617 1169.98C746.617 1175.18 742.716 1179.08 737.515 1179.08C732.314 1179.08 728.413 1175.18 728.413 1169.98C728.413 1164.77 732.314 1160.87 737.515 1160.87Z" fill="#F4F4F4"/>
<path opacity="0.4" d="M593.619 351.673C597.52 351.673 600.554 354.707 600.554 358.608C600.554 362.509 597.52 365.543 593.619 365.543C589.718 365.543 586.684 362.509 586.684 358.608C586.684 354.707 589.718 351.673 593.619 351.673Z" fill="#F4F4F4"/>
<path opacity="0.4" d="M617.025 496.002C625.26 496.002 631.761 502.504 631.761 510.739C631.761 518.974 625.26 525.475 617.025 525.475C608.79 525.475 602.289 518.974 602.289 510.739C602.289 502.504 608.79 496.002 617.025 496.002Z" fill="#F4F4F4"/>
<path opacity="0.4" d="M605.756 630.797C615.291 630.797 622.659 638.599 622.659 647.701C622.659 656.803 614.858 664.605 605.756 664.605C596.22 664.605 588.852 656.803 588.852 647.701C588.852 638.599 596.654 630.797 605.756 630.797Z" fill="#F4F4F4"/>
<path opacity="0.4" d="M647.797 792.897C654.732 792.897 660.366 798.532 660.366 805.467C660.366 812.402 654.732 818.036 647.797 818.036C640.862 818.036 635.228 812.402 635.228 805.467C635.228 798.532 640.862 792.897 647.797 792.897Z" fill="#F4F4F4"/>
<path opacity="0.4" d="M620.925 914.689C623.092 914.689 624.826 916.423 624.826 918.59C624.826 920.757 623.092 922.491 620.925 922.491C618.758 922.491 617.024 920.757 617.024 918.59C616.591 916.423 618.758 914.689 620.925 914.689Z" fill="#F4F4F4"/>
<path opacity="0.4" d="M636.528 104.623C646.497 104.623 654.732 112.857 654.732 122.826C654.732 132.795 646.497 141.03 636.528 141.03C626.559 141.03 618.324 132.795 618.324 122.826C618.324 112.857 626.559 104.623 636.528 104.623Z" fill="#F4F4F4"/>
<path opacity="0.4" d="M656.466 1053.82C666.434 1053.82 674.236 1061.62 674.236 1071.59C674.236 1081.56 666.434 1089.36 656.466 1089.36C646.497 1089.36 638.695 1081.56 638.695 1071.59C638.695 1062.05 646.497 1053.82 656.466 1053.82Z" fill="#F4F4F4"/>
<path opacity="0.4" d="M612.257 258.053C620.492 258.053 626.993 264.555 626.993 272.79C626.993 281.025 620.492 287.526 612.257 287.526C604.022 287.526 597.52 281.025 597.52 272.79C597.52 264.555 604.022 258.053 612.257 258.053Z" fill="#F4F4F4"/>
<path opacity="0.4" d="M662.967 1195.55C668.168 1195.55 672.502 1199.88 672.502 1205.08C672.502 1210.28 668.168 1214.62 662.967 1214.62C657.766 1214.62 653.432 1210.28 653.432 1205.08C653.865 1199.88 657.766 1195.55 662.967 1195.55Z" fill="#F4F4F4"/>
<path opacity="0.4" d="M506.935 413.219C514.736 413.219 520.804 419.287 520.804 427.089C520.804 434.89 514.736 440.958 506.935 440.958C499.133 440.958 493.065 434.89 493.065 427.089C493.065 419.72 499.133 413.219 506.935 413.219Z" fill="#F4F4F4"/>
<path opacity="0.4" d="M532.074 508.572C540.309 508.572 547.244 515.507 547.244 523.742C547.244 531.977 540.309 538.912 532.074 538.912C523.839 538.912 516.904 531.977 516.904 523.742C516.904 515.507 523.839 508.572 532.074 508.572Z" fill="#F4F4F4"/>
<path opacity="0.4" d="M486.131 611.727C495.233 611.727 502.601 619.095 502.601 628.197C502.601 637.299 495.233 644.667 486.131 644.667C477.029 644.667 469.661 637.299 469.661 628.197C469.661 619.095 477.029 611.727 486.131 611.727Z" fill="#F4F4F4"/>
<path opacity="0.4" d="M539.875 812.835C547.243 812.835 553.311 818.903 553.311 826.271C553.311 833.64 547.243 839.708 539.875 839.708C532.507 839.708 526.439 833.64 526.439 826.271C526.439 818.47 532.507 812.835 539.875 812.835Z" fill="#F4F4F4"/>
<path opacity="0.4" d="M465.326 1.4668C472.261 1.4668 477.895 7.1014 477.895 14.0362C477.895 20.9709 472.261 26.6055 465.326 26.6055C458.391 26.6055 452.757 20.9709 452.757 14.0362C452.757 7.1014 458.391 1.4668 465.326 1.4668Z" fill="#F4F4F4"/>
<path opacity="0.4" d="M553.311 888.251C560.68 888.251 566.748 894.319 566.748 901.687C566.748 909.055 560.68 915.124 553.311 915.124C545.943 915.124 539.875 909.055 539.875 901.687C539.875 894.319 545.943 888.251 553.311 888.251Z" fill="#F4F4F4"/>
<path opacity="0.4" d="M483.963 96.3872C492.632 96.3872 500 103.322 500 111.99C500 120.659 493.065 128.027 483.963 128.027C475.295 128.027 467.927 121.092 467.927 111.99C468.36 103.755 475.295 96.3872 483.963 96.3872Z" fill="#F4F4F4"/>
<path opacity="0.4" d="M490.464 1060.32C493.932 1060.32 496.966 1063.35 496.966 1066.82C496.966 1070.29 493.932 1073.32 490.464 1073.32C486.997 1073.32 483.963 1070.29 483.963 1066.82C483.963 1062.92 486.997 1060.32 490.464 1060.32Z" fill="#F4F4F4"/>
<path opacity="0.4" d="M488.731 220.779C490.898 220.779 492.632 222.513 492.632 224.68C492.632 226.847 490.898 228.581 488.731 228.581C486.564 228.581 484.83 226.847 484.83 224.68C484.397 222.513 486.131 220.779 488.731 220.779Z" fill="#F4F4F4"/>
<path opacity="0.4" d="M481.796 1205.08C487.43 1205.08 492.198 1209.85 492.198 1215.49C492.198 1221.12 487.43 1225.89 481.796 1225.89C476.161 1225.89 471.394 1221.12 471.394 1215.49C471.394 1209.85 476.161 1205.08 481.796 1205.08Z" fill="#F4F4F4"/>
<path opacity="0.4" d="M404.647 401.517C412.882 401.517 419.817 408.018 419.817 416.687C419.817 424.922 413.315 431.857 404.647 431.857C396.412 431.857 389.477 425.355 389.477 416.687C389.91 408.018 396.412 401.517 404.647 401.517Z" fill="#F4F4F4"/>
<path opacity="0.4" d="M385.576 535.878C391.644 535.878 396.845 541.079 396.845 547.147C396.845 553.215 391.644 558.416 385.576 558.416C379.508 558.416 374.307 553.215 374.307 547.147C374.74 541.079 379.508 535.878 385.576 535.878Z" fill="#F4F4F4"/>
<path opacity="0.4" d="M374.741 672.407C377.775 672.407 380.376 675.007 380.376 678.041C380.376 681.075 377.775 683.676 374.741 683.676C371.707 683.676 369.107 681.075 369.107 678.041C369.54 674.574 372.141 672.407 374.741 672.407Z" fill="#F4F4F4"/>
<path opacity="0.4" d="M353.503 763.425C363.472 763.425 371.273 771.226 371.273 781.195C371.273 791.164 363.472 798.965 353.503 798.965C343.534 798.965 335.733 791.164 335.733 781.195C335.733 771.226 343.534 763.425 353.503 763.425Z" fill="#F4F4F4"/>
<path opacity="0.4" d="M362.605 -18.4702C367.806 -18.4702 372.574 -14.1363 372.574 -8.5018C372.574 -3.30072 368.239 1.46714 362.605 1.46714C357.404 1.46714 352.636 -2.8673 352.636 -8.5018C352.636 -14.1363 356.97 -18.4702 362.605 -18.4702Z" fill="#F4F4F4"/>
<path opacity="0.4" d="M334.432 936.36C338.766 936.36 342.667 939.828 342.667 944.595C342.667 948.93 339.2 952.831 334.432 952.831C330.098 952.831 326.197 949.363 326.197 944.595C326.197 940.261 330.098 936.36 334.432 936.36Z" fill="#F4F4F4"/>
<path opacity="0.4" d="M407.681 87.2856C415.049 87.2856 421.117 93.3535 421.117 100.722C421.117 108.09 415.049 114.158 407.681 114.158C400.313 114.158 394.245 108.09 394.245 100.722C394.245 93.3535 400.313 87.2856 407.681 87.2856Z" fill="#F4F4F4"/>
<path opacity="0.4" d="M420.25 1020.45C429.352 1020.45 436.72 1027.81 436.72 1036.92C436.72 1046.02 429.352 1053.39 420.25 1053.39C411.148 1053.39 403.78 1046.02 403.78 1036.92C403.78 1027.81 411.148 1020.45 420.25 1020.45Z" fill="#F4F4F4"/>
<path opacity="0.4" d="M400.313 218.179C406.814 218.179 412.449 223.813 412.449 230.315C412.449 236.816 406.814 242.45 400.313 242.45C393.812 242.45 388.177 236.816 388.177 230.315C388.177 223.38 393.378 218.179 400.313 218.179Z" fill="#F4F4F4"/>
<path opacity="0.4" d="M405.947 1165.64C408.547 1165.64 411.148 1167.81 411.148 1170.41C411.148 1173.01 408.981 1175.61 405.947 1175.61C403.346 1175.61 401.179 1173.44 401.179 1170.41C400.746 1167.81 402.913 1165.64 405.947 1165.64Z" fill="#F4F4F4"/>
<path opacity="0.4" d="M229.111 350.373C239.08 350.373 246.881 358.174 246.881 368.143C246.881 378.112 239.08 385.913 229.111 385.913C219.142 385.913 211.341 378.112 211.341 368.143C211.341 358.174 219.576 350.373 229.111 350.373Z" fill="#F4F4F4"/>
<path opacity="0.4" d="M275.054 505.104C279.388 505.104 282.855 508.572 282.855 512.906C282.855 517.241 279.388 520.708 275.054 520.708C270.72 520.708 267.252 517.241 267.252 512.906C267.686 508.572 271.153 505.104 275.054 505.104Z" fill="#F4F4F4"/>
<path opacity="0.4" d="M278.954 623.43C284.589 623.43 288.923 627.764 288.923 633.399C288.923 639.033 284.589 643.367 278.954 643.367C273.32 643.367 268.985 639.033 268.985 633.399C268.985 627.764 273.753 623.43 278.954 623.43Z" fill="#F4F4F4"/>
<path opacity="0.4" d="M238.213 761.691C241.68 761.691 244.714 764.725 244.714 768.193C244.714 771.66 241.68 774.694 238.213 774.694C234.745 774.694 231.711 771.66 231.711 768.193C231.711 764.292 234.745 761.691 238.213 761.691Z" fill="#F4F4F4"/>
<path opacity="0.4" d="M208.74 -9.36914C214.808 -9.36914 219.575 -4.60149 219.575 1.46644C219.575 7.53436 214.808 12.302 208.74 12.302C202.672 12.302 197.904 7.53436 197.904 1.46644C197.904 -4.60149 202.672 -9.36914 208.74 -9.36914Z" fill="#F4F4F4"/>
<path opacity="0.4" d="M298.459 907.321C307.127 907.321 314.062 914.256 314.062 922.924C314.062 931.593 307.127 938.528 298.459 938.528C289.79 938.528 282.855 931.593 282.855 922.924C282.855 914.256 289.79 907.321 298.459 907.321Z" fill="#F4F4F4"/>
<path opacity="0.4" d="M281.121 91.186C287.189 91.186 291.957 95.9537 291.957 102.022C291.957 108.09 287.189 112.857 281.121 112.857C275.053 112.857 270.286 108.09 270.286 102.022C269.852 96.3871 275.053 91.186 281.121 91.186Z" fill="#F4F4F4"/>
<path opacity="0.4" d="M234.311 1071.59C244.713 1071.59 252.948 1079.82 252.948 1090.23C252.948 1100.63 244.713 1108.86 234.311 1108.86C223.909 1108.86 215.674 1100.63 215.674 1090.23C216.107 1080.26 224.342 1071.59 234.311 1071.59Z" fill="#F4F4F4"/>
<path opacity="0.4" d="M251.649 281.892C255.55 281.892 259.017 285.359 259.017 289.26C259.017 293.161 255.55 296.628 251.649 296.628C247.748 296.628 244.281 293.161 244.281 289.26C244.281 284.926 247.748 281.892 251.649 281.892Z" fill="#F4F4F4"/>
<path opacity="0.4" d="M271.586 1189.05C278.954 1189.05 285.022 1195.11 285.022 1202.48C285.022 1209.85 278.954 1215.92 271.586 1215.92C264.217 1215.92 258.149 1209.85 258.149 1202.48C258.149 1195.11 264.217 1189.05 271.586 1189.05Z" fill="#F4F4F4"/>
<path opacity="0.4" d="M137.225 385.913C143.726 385.913 148.927 391.114 148.927 397.616C148.927 404.117 143.726 409.318 137.225 409.318C130.724 409.318 125.523 404.117 125.523 397.616C125.523 391.114 130.724 385.913 137.225 385.913Z" fill="#F4F4F4"/>
<path opacity="0.4" d="M115.988 509.439C121.189 509.439 125.523 513.774 125.523 518.975C125.523 524.176 121.189 528.51 115.988 528.51C110.787 528.51 106.452 524.176 106.452 518.975C106.452 513.774 110.787 509.439 115.988 509.439Z" fill="#F4F4F4"/>
<path opacity="0.4" d="M96.483 636.865C103.851 636.865 109.919 642.933 109.919 650.301C109.919 657.669 103.851 663.738 96.483 663.738C89.1149 663.738 83.0469 657.669 83.0469 650.301C83.0469 642.933 89.1149 636.865 96.483 636.865Z" fill="#F4F4F4"/>
<path opacity="0.4" d="M103.418 781.629C113.821 781.629 122.489 790.297 122.489 800.7C122.489 811.102 113.821 819.77 103.418 819.77C93.0163 819.77 84.3478 811.102 84.3478 800.7C84.3478 790.297 92.5828 781.629 103.418 781.629Z" fill="#F4F4F4"/>
<path opacity="0.4" d="M121.621 0.601074C124.655 0.601074 126.822 3.2014 126.822 5.80194C126.822 8.8359 124.221 11.4367 121.621 11.4367C118.587 11.4367 116.42 8.8359 116.42 5.80194C115.986 3.2014 118.587 0.601074 121.621 0.601074Z" fill="#F4F4F4"/>
<path opacity="0.4" d="M95.1827 939.396C102.117 939.396 107.752 945.03 107.752 951.965C107.752 958.9 102.117 964.534 95.1827 964.534C88.2479 964.534 82.6133 958.9 82.6133 951.965C83.0468 945.03 88.2479 939.396 95.1827 939.396Z" fill="#F4F4F4"/>
<path opacity="0.4" d="M137.659 131.061C140.259 131.061 141.993 133.228 141.993 135.395C141.993 137.996 139.826 139.729 137.659 139.729C135.058 139.729 133.325 137.562 133.325 135.395C132.891 132.795 135.058 131.061 137.659 131.061Z" fill="#F4F4F4"/>
<path opacity="0.4" d="M141.559 1027.38C150.227 1027.38 157.162 1034.32 157.162 1042.98C157.162 1051.65 150.227 1058.59 141.559 1058.59C132.89 1058.59 125.955 1051.65 125.955 1042.98C125.955 1034.32 132.89 1027.38 141.559 1027.38Z" fill="#F4F4F4"/>
<path opacity="0.4" d="M148.06 275.824C157.162 275.824 164.964 283.192 164.964 292.727C164.964 301.829 157.596 309.631 148.06 309.631C138.525 309.631 131.157 302.263 131.157 292.727C131.59 283.192 138.959 275.824 148.06 275.824Z" fill="#F4F4F4"/>
<path opacity="0.4" d="M122.055 1219.39C125.522 1219.39 128.556 1222.42 128.556 1225.89C128.556 1229.35 125.522 1232.39 122.055 1232.39C118.588 1232.39 115.554 1229.35 115.554 1225.89C115.554 1222.42 118.588 1219.39 122.055 1219.39Z" fill="#F4F4F4"/>
<path opacity="0.4" d="M-4.0713 405.417C5.46401 405.417 13.2656 413.219 13.2656 422.754C13.2656 432.29 5.46401 440.091 -4.0713 440.091C-13.6066 440.091 -21.4082 432.29 -21.4082 422.754C-21.4082 413.219 -13.6066 405.417 -4.0713 405.417Z" fill="#F4F4F4"/>
<path opacity="0.4" d="M38.8379 511.606C47.5064 511.606 54.8745 518.541 54.8745 527.643C54.8745 536.311 47.9398 543.679 38.8379 543.679C30.1695 543.679 22.8012 536.745 22.8012 527.643C22.8012 518.541 30.1695 511.606 38.8379 511.606Z" fill="#F4F4F4"/>
<path opacity="0.4" d="M21.9343 613.027C29.7359 613.027 36.2373 619.529 36.2373 627.331C36.2373 635.132 29.7359 641.633 21.9343 641.633C14.1326 641.633 7.63135 635.132 7.63135 627.331C7.63135 619.095 14.1326 613.027 21.9343 613.027Z" fill="#F4F4F4"/>
<path opacity="0.4" d="M38.8379 811.535C42.3052 811.535 44.9058 814.136 44.9058 817.603C44.9058 821.071 42.3052 823.671 38.8379 823.671C35.3705 823.671 32.7698 821.071 32.7698 817.603C32.3364 814.136 35.3705 811.535 38.8379 811.535Z" fill="#F4F4F4"/>
<path opacity="0.4" d="M-1.03765 1064.65C5.4637 1064.65 11.0981 1069.86 11.0981 1076.79C11.0981 1083.29 5.89712 1088.93 -1.03765 1088.93C-7.539 1088.93 -13.1734 1083.72 -13.1734 1076.79C-13.1734 1069.86 -7.539 1064.65 -1.03765 1064.65Z" fill="#F4F4F4"/>
<path opacity="0.4" d="M6.76442 265.422C12.8323 265.422 18.0334 270.623 18.0334 276.691C18.0334 282.759 12.8323 287.96 6.76442 287.96C0.696498 287.96 -4.50447 282.759 -4.50447 276.691C-4.07105 270.623 0.696499 265.422 6.76442 265.422Z" fill="#F4F4F4"/>
<path opacity="0.4" d="M20.2004 1199.02C25.8349 1199.02 30.6025 1203.78 30.6025 1209.42C30.6025 1215.05 25.8349 1219.82 20.2004 1219.82C14.5659 1219.82 9.79829 1215.05 9.79829 1209.42C9.79829 1203.78 14.5659 1199.02 20.2004 1199.02Z" fill="#F4F4F4"/>
<path opacity="0.4" d="M1881.32 526.342C1888.25 526.342 1893.45 531.977 1893.45 538.478C1893.45 545.413 1887.82 550.614 1881.32 550.614C1874.38 550.614 1869.18 544.98 1869.18 538.478C1869.18 531.977 1874.82 526.342 1881.32 526.342Z" fill="#F4F4F4"/>
<path opacity="0.4" d="M1912.96 627.763C1917.73 627.763 1921.63 631.664 1921.63 636.432C1921.63 641.199 1917.73 645.1 1912.96 645.1C1908.19 645.1 1904.29 641.199 1904.29 636.432C1904.72 631.664 1908.62 627.763 1912.96 627.763Z" fill="#F4F4F4"/>
<path opacity="0.4" d="M1910.36 893.019C1916.43 893.019 1921.19 897.786 1921.19 903.854C1921.19 909.922 1916.43 914.69 1910.36 914.69C1904.29 914.69 1899.52 909.922 1899.52 903.854C1899.09 897.786 1904.29 893.019 1910.36 893.019Z" fill="#F4F4F4"/>
<path opacity="0.4" d="M1925.09 1040.82C1931.6 1040.82 1936.8 1046.02 1936.8 1052.52C1936.8 1059.02 1931.6 1064.22 1925.09 1064.22C1918.59 1064.22 1913.39 1059.02 1913.39 1052.52C1913.39 1046.02 1918.59 1040.82 1925.09 1040.82Z" fill="#F4F4F4"/>
<path opacity="0.4" d="M1902.56 251.552C1909.92 251.552 1915.99 257.62 1915.99 264.988C1915.99 272.356 1909.92 277.991 1902.56 277.991C1895.19 277.991 1889.12 271.923 1889.12 264.988C1889.12 257.62 1895.19 251.552 1902.56 251.552Z" fill="#F4F4F4"/>
<path opacity="0.4" d="M1927.26 1210.28C1934.63 1210.28 1940.7 1216.35 1940.7 1223.72C1940.7 1231.09 1934.63 1237.16 1927.26 1237.16C1919.89 1237.16 1913.83 1231.09 1913.83 1223.72C1913.83 1216.35 1919.89 1210.28 1927.26 1210.28Z" fill="#F4F4F4"/>
<path opacity="0.4" d="M1749.99 374.645C1756.06 374.645 1761.26 379.412 1761.26 385.913C1761.26 391.981 1756.49 397.183 1749.99 397.183C1743.92 397.183 1738.72 392.415 1738.72 385.913C1738.72 379.846 1743.92 374.645 1749.99 374.645Z" fill="#F4F4F4"/>
<path opacity="0.4" d="M1770.36 517.674C1779.9 517.674 1787.7 525.475 1787.7 535.011C1787.7 544.546 1779.9 552.348 1770.36 552.348C1760.83 552.348 1753.03 544.546 1753.03 535.011C1753.03 525.475 1760.83 517.674 1770.36 517.674Z" fill="#F4F4F4"/>
<path opacity="0.4" d="M1765.6 657.236C1775.56 657.236 1783.37 665.038 1783.37 675.007C1783.37 684.975 1775.56 692.777 1765.6 692.777C1755.63 692.777 1747.83 684.975 1747.83 675.007C1748.26 665.038 1756.06 657.236 1765.6 657.236Z" fill="#F4F4F4"/>
<path opacity="0.4" d="M1789.87 786.83C1798.54 786.83 1805.9 793.765 1805.9 802.867C1805.9 811.536 1798.97 818.903 1789.87 818.903C1781.2 818.903 1773.83 811.969 1773.83 802.867C1773.83 794.199 1780.76 786.83 1789.87 786.83Z" fill="#F4F4F4"/>
<path opacity="0.4" d="M1800.7 -13.269C1807.64 -13.269 1812.84 -7.63433 1812.84 -1.13298C1812.84 5.80179 1807.2 11.0025 1800.7 11.0025C1793.77 11.0025 1788.57 5.36836 1788.57 -1.13298C1788.13 -8.06775 1793.77 -13.269 1800.7 -13.269Z" fill="#F4F4F4"/>
<path opacity="0.4" d="M1813.7 878.716C1822.81 878.716 1830.17 886.084 1830.17 895.186C1830.17 904.287 1822.81 911.656 1813.7 911.656C1804.6 911.656 1797.23 904.287 1797.23 895.186C1797.23 886.517 1804.6 878.716 1813.7 878.716Z" fill="#F4F4F4"/>
<path opacity="0.4" d="M1751.73 87.7183C1753.89 87.7183 1755.63 89.4521 1755.63 91.6192C1755.63 93.7863 1753.89 95.5196 1751.73 95.5196C1749.56 95.5196 1747.82 93.7863 1747.82 91.6192C1747.82 89.4521 1749.56 87.7183 1751.73 87.7183Z" fill="#F4F4F4"/>
<path opacity="0.4" d="M1785.1 1066.82C1793.77 1066.82 1801.14 1074.19 1801.14 1082.86C1801.14 1091.53 1794.2 1098.89 1785.1 1098.89C1776.43 1098.89 1769.06 1091.53 1769.06 1082.86C1769.06 1074.19 1776 1066.82 1785.1 1066.82Z" fill="#F4F4F4"/>
<path opacity="0.4" d="M1776.86 242.884C1785.97 242.884 1792.9 250.252 1792.9 258.921C1792.9 268.023 1785.53 274.957 1776.86 274.957C1767.76 274.957 1760.83 267.589 1760.83 258.921C1760.83 250.252 1768.2 242.884 1776.86 242.884Z" fill="#F4F4F4"/>
<path opacity="0.4" d="M1769.06 1195.55C1776.86 1195.55 1783.37 1202.05 1783.37 1209.85C1783.37 1217.65 1776.86 1224.15 1769.06 1224.15C1761.26 1224.15 1754.76 1217.65 1754.76 1209.85C1754.76 1202.05 1761.26 1195.55 1769.06 1195.55Z" fill="#F4F4F4"/>
<path opacity="0.4" d="M1690.18 399.783C1693.21 399.783 1695.81 402.383 1695.81 405.417C1695.81 408.451 1693.21 411.052 1690.18 411.052C1687.15 411.052 1684.54 408.451 1684.54 405.417C1684.54 402.383 1687.15 399.783 1690.18 399.783Z" fill="#F4F4F4"/>
<path opacity="0.4" d="M1687.15 493.836C1696.25 493.836 1703.62 501.204 1703.62 510.306C1703.62 519.408 1696.25 526.776 1687.15 526.776C1678.04 526.776 1670.68 519.408 1670.68 510.306C1670.68 501.204 1678.04 493.836 1687.15 493.836Z" fill="#F4F4F4"/>
<path opacity="0.4" d="M1674.58 638.599C1677.61 638.599 1680.21 641.2 1680.21 644.234C1680.21 647.268 1677.61 649.868 1674.58 649.868C1671.54 649.868 1668.94 647.268 1668.94 644.234C1668.94 641.2 1671.11 638.599 1674.58 638.599Z" fill="#F4F4F4"/>
<path opacity="0.4" d="M1666.77 762.558C1670.68 762.558 1674.14 766.025 1674.14 769.926C1674.14 773.827 1670.68 777.294 1666.77 777.294C1662.87 777.294 1659.41 773.827 1659.41 769.926C1659.41 765.592 1662.44 762.558 1666.77 762.558Z" fill="#F4F4F4"/>
<path opacity="0.4" d="M1635.13 902.554C1639.9 902.554 1644.24 906.454 1644.24 911.655C1644.24 916.423 1640.34 920.757 1635.13 920.757C1630.37 920.757 1626.03 916.857 1626.03 911.655C1626.03 906.888 1630.37 902.554 1635.13 902.554Z" fill="#F4F4F4"/>
<path opacity="0.4" d="M1707.95 130.628C1716.62 130.628 1723.99 137.562 1723.99 146.664C1723.99 155.766 1717.05 162.701 1707.95 162.701C1699.28 162.701 1691.91 155.766 1691.91 146.664C1691.91 137.562 1699.28 130.628 1707.95 130.628Z" fill="#F4F4F4"/>
<path opacity="0.4" d="M1667.64 1019.14C1672.84 1019.14 1677.18 1023.48 1677.18 1028.68C1677.18 1033.88 1672.84 1038.21 1667.64 1038.21C1662.44 1038.21 1658.11 1033.88 1658.11 1028.68C1658.11 1023.48 1662.44 1019.14 1667.64 1019.14Z" fill="#F4F4F4"/>
<path opacity="0.4" d="M1705.35 225.98C1713.15 225.98 1719.22 232.048 1719.22 239.85C1719.22 247.651 1713.15 253.719 1705.35 253.719C1697.55 253.719 1691.48 247.651 1691.48 239.85C1691.48 232.048 1697.98 225.98 1705.35 225.98Z" fill="#F4F4F4"/>
<path opacity="0.4" d="M1623.43 1186.88C1625.6 1186.88 1627.33 1188.61 1627.33 1190.78C1627.33 1192.95 1625.6 1194.68 1623.43 1194.68C1621.27 1194.68 1619.53 1192.95 1619.53 1190.78C1619.1 1188.61 1621.27 1186.88 1623.43 1186.88Z" fill="#F4F4F4"/>
<path opacity="0.4" d="M1504.67 398.916C1513.34 398.916 1520.28 405.851 1520.28 414.52C1520.28 423.188 1513.34 430.123 1504.67 430.123C1496.01 430.123 1489.07 423.188 1489.07 414.52C1489.07 405.851 1496.01 398.916 1504.67 398.916Z" fill="#F4F4F4"/>
<path opacity="0.4" d="M1500.34 476.932C1510.74 476.932 1519.41 485.601 1519.41 496.003C1519.41 506.405 1510.74 515.074 1500.34 515.074C1489.94 515.074 1481.27 506.405 1481.27 496.003C1481.27 485.601 1489.94 476.932 1500.34 476.932Z" fill="#F4F4F4"/>
<path opacity="0.4" d="M1531.55 648.134C1541.95 648.134 1550.62 656.803 1550.62 667.205C1550.62 677.607 1541.95 686.276 1531.55 686.276C1521.14 686.276 1512.48 677.607 1512.48 667.205C1512.91 656.803 1521.14 648.134 1531.55 648.134Z" fill="#F4F4F4"/>
<path opacity="0.4" d="M1543.25 750.423C1552.35 750.423 1559.29 757.791 1559.29 766.459C1559.29 775.561 1551.92 782.496 1543.25 782.496C1534.15 782.496 1527.21 775.128 1527.21 766.459C1527.21 757.791 1534.58 750.423 1543.25 750.423Z" fill="#F4F4F4"/>
<path opacity="0.4" d="M1544.12 -1.56592C1554.52 -1.56592 1563.19 7.10212 1563.19 17.5043C1563.19 27.9064 1554.52 36.575 1544.12 36.575C1533.71 36.575 1525.05 27.9064 1525.05 17.5043C1525.05 7.10212 1533.71 -1.56592 1544.12 -1.56592Z" fill="#F4F4F4"/>
<path opacity="0.4" d="M1518.11 916.856C1526.35 916.856 1533.28 923.791 1533.28 932.026C1533.28 940.261 1526.35 947.196 1518.11 947.196C1509.87 947.196 1502.94 940.261 1502.94 932.026C1502.94 923.791 1509.44 916.856 1518.11 916.856Z" fill="#F4F4F4"/>
<path opacity="0.4" d="M1551.92 130.194C1559.29 130.194 1565.79 136.262 1565.79 144.064C1565.79 151.432 1559.72 157.933 1551.92 157.933C1544.55 157.933 1538.05 151.865 1538.05 144.064C1538.48 136.262 1544.55 130.194 1551.92 130.194Z" fill="#F4F4F4"/>
<path opacity="0.4" d="M1528.95 1026.08C1535.01 1026.08 1539.78 1030.85 1539.78 1036.91C1539.78 1042.98 1535.01 1047.75 1528.95 1047.75C1522.88 1047.75 1518.11 1042.98 1518.11 1036.91C1518.11 1031.28 1522.88 1026.08 1528.95 1026.08Z" fill="#F4F4F4"/>
<path opacity="0.4" d="M1538.91 256.753C1541.08 256.753 1543.25 258.487 1543.25 261.088C1543.25 263.255 1541.51 265.422 1538.91 265.422C1536.75 265.422 1534.58 263.688 1534.58 261.088C1534.58 258.487 1536.31 256.753 1538.91 256.753Z" fill="#F4F4F4"/>
<path opacity="0.4" d="M1552.78 1191.65C1556.25 1191.65 1559.29 1194.68 1559.29 1198.15C1559.29 1201.62 1556.25 1204.65 1552.78 1204.65C1549.32 1204.65 1546.28 1201.62 1546.28 1198.15C1546.72 1194.25 1549.32 1191.65 1552.78 1191.65Z" fill="#F4F4F4"/>
<path opacity="0.4" d="M1375.51 410.186C1379.85 410.186 1383.32 413.653 1383.32 417.987C1383.32 422.321 1379.85 425.789 1375.51 425.789C1371.18 425.789 1367.71 422.321 1367.71 417.987C1367.71 413.653 1371.18 410.186 1375.51 410.186Z" fill="#F4F4F4"/>
<path opacity="0.4" d="M1453.96 489.501C1463.93 489.501 1472.17 497.737 1472.17 507.706C1472.17 517.674 1463.93 525.909 1453.96 525.909C1444 525.909 1435.76 517.674 1435.76 507.706C1435.76 497.737 1444 489.501 1453.96 489.501Z" fill="#F4F4F4"/>
<path opacity="0.4" d="M1375.08 622.129C1379.42 622.129 1382.45 625.597 1382.45 629.497C1382.45 633.832 1378.98 636.865 1375.08 636.865C1370.75 636.865 1367.71 633.398 1367.71 629.497C1367.28 625.597 1370.75 622.129 1375.08 622.129Z" fill="#F4F4F4"/>
<path opacity="0.4" d="M1388.08 788.563C1395.45 788.563 1401.52 794.631 1401.52 801.999C1401.52 809.368 1395.45 815.436 1388.08 815.436C1380.72 815.436 1374.65 809.368 1374.65 801.999C1374.65 794.631 1380.72 788.563 1388.08 788.563Z" fill="#F4F4F4"/>
<path opacity="0.4" d="M1411.49 950.664C1414.96 950.664 1417.56 953.265 1417.56 956.732C1417.56 960.199 1414.96 962.8 1411.49 962.8C1408.02 962.8 1405.42 960.199 1405.42 956.732C1405.42 953.698 1408.45 950.664 1411.49 950.664Z" fill="#F4F4F4"/>
<path opacity="0.4" d="M1456.13 122.825C1466.1 122.825 1473.9 130.626 1473.9 140.595C1473.9 150.564 1466.1 158.365 1456.13 158.365C1446.16 158.365 1438.36 150.564 1438.36 140.595C1438.36 130.626 1446.6 122.825 1456.13 122.825Z" fill="#F4F4F4"/>
<path opacity="0.4" d="M1446.6 1069.85C1448.76 1069.85 1450.5 1071.59 1450.5 1073.76C1450.5 1075.92 1448.76 1077.66 1446.6 1077.66C1444.43 1077.66 1442.7 1075.92 1442.7 1073.76C1442.7 1071.59 1444.43 1069.85 1446.6 1069.85Z" fill="#F4F4F4"/>
<path opacity="0.4" d="M1424.49 232.916C1430.56 232.916 1435.76 238.116 1435.76 244.184C1435.76 250.252 1430.56 255.453 1424.49 255.453C1418.42 255.453 1413.22 250.252 1413.22 244.184C1413.22 237.683 1418.42 232.916 1424.49 232.916Z" fill="#F4F4F4"/>
<path opacity="0.4" d="M1385.48 1217.65C1391.12 1217.65 1395.45 1221.99 1395.45 1227.62C1395.45 1233.26 1391.12 1237.59 1385.48 1237.59C1379.85 1237.59 1375.51 1233.26 1375.51 1227.62C1375.51 1222.42 1379.85 1217.65 1385.48 1217.65Z" fill="#F4F4F4"/>
<path opacity="0.4" d="M1297.93 368.576C1300.1 368.576 1301.83 370.31 1301.83 372.477C1301.83 374.644 1300.1 376.378 1297.93 376.378C1295.76 376.378 1294.03 374.644 1294.03 372.477C1293.6 370.31 1295.76 368.576 1297.93 368.576Z" fill="#F4F4F4"/>
<path opacity="0.4" d="M1235.52 541.946C1240.72 541.946 1245.05 546.28 1245.05 551.481C1245.05 556.683 1240.72 561.017 1235.52 561.017C1230.32 561.017 1225.98 556.683 1225.98 551.481C1225.98 545.847 1230.32 541.946 1235.52 541.946Z" fill="#F4F4F4"/>
<path opacity="0.4" d="M1289.26 611.727C1299.66 611.727 1308.33 620.395 1308.33 630.797C1308.33 641.199 1299.66 649.868 1289.26 649.868C1278.86 649.868 1270.19 641.199 1270.19 630.797C1270.19 619.962 1278.86 611.727 1289.26 611.727Z" fill="#F4F4F4"/>
<path opacity="0.4" d="M1274.09 784.662C1284.5 784.662 1293.16 792.897 1293.16 803.733C1293.16 814.135 1284.93 822.804 1274.09 822.804C1263.69 822.804 1255.02 814.568 1255.02 803.733C1255.46 793.331 1263.69 784.662 1274.09 784.662Z" fill="#F4F4F4"/>
<path opacity="0.4" d="M1281.03 903.854C1287.96 903.854 1293.16 909.488 1293.16 915.99C1293.16 922.924 1287.53 928.126 1281.03 928.126C1274.09 928.126 1268.89 922.491 1268.89 915.99C1268.89 909.488 1274.09 903.854 1281.03 903.854Z" fill="#F4F4F4"/>
<path opacity="0.4" d="M1296.63 101.588C1300.97 101.588 1304.87 105.055 1304.87 109.823C1304.87 114.157 1301.4 118.058 1296.63 118.058C1292.3 118.058 1288.4 114.591 1288.4 109.823C1288.4 105.055 1291.86 101.588 1296.63 101.588Z" fill="#F4F4F4"/>
<path opacity="0.4" d="M1262.82 1067.69C1269.76 1067.69 1275.39 1073.32 1275.39 1080.26C1275.39 1087.19 1269.76 1092.83 1262.82 1092.83C1255.89 1092.83 1250.25 1087.19 1250.25 1080.26C1250.25 1073.32 1255.89 1067.69 1262.82 1067.69Z" fill="#F4F4F4"/>
<path opacity="0.4" d="M1274.53 239.85C1278.86 239.85 1282.33 243.317 1282.33 247.651C1282.33 251.986 1278.86 255.453 1274.53 255.453C1270.19 255.453 1266.73 251.986 1266.73 247.651C1266.73 243.317 1270.19 239.85 1274.53 239.85Z" fill="#F4F4F4"/>
<path opacity="0.4" d="M1280.16 1153.51C1284.5 1153.51 1287.96 1156.97 1287.96 1161.31C1287.96 1165.64 1284.5 1169.11 1280.16 1169.11C1275.83 1169.11 1272.36 1165.64 1272.36 1161.31C1272.36 1156.97 1275.83 1153.51 1280.16 1153.51Z" fill="#F4F4F4"/>
<path opacity="0.4" d="M1119.36 398.482C1128.46 398.482 1135.83 405.851 1135.83 414.953C1135.83 424.055 1128.46 431.422 1119.36 431.422C1110.26 431.422 1102.89 424.055 1102.89 414.953C1102.89 405.851 1110.26 398.482 1119.36 398.482Z" fill="#F4F4F4"/>
<path opacity="0.4" d="M1164.87 540.646C1174.41 540.646 1182.64 548.447 1182.64 558.416C1182.64 567.951 1174.84 576.186 1164.87 576.186C1155.34 576.186 1147.1 568.384 1147.1 558.416C1147.1 548.88 1154.9 540.646 1164.87 540.646Z" fill="#F4F4F4"/>
<path opacity="0.4" d="M1189.14 655.936C1197.81 655.936 1205.18 663.304 1205.18 671.972C1205.18 680.641 1197.81 688.009 1189.14 688.009C1180.47 688.009 1173.11 680.641 1173.11 671.972C1173.11 663.304 1180.04 655.936 1189.14 655.936Z" fill="#F4F4F4"/>
<path opacity="0.4" d="M1167.04 764.726C1177.44 764.726 1185.67 772.961 1185.67 783.363C1185.67 793.765 1177.44 802 1167.04 802C1156.64 802 1148.4 793.765 1148.4 783.363C1148.4 772.961 1156.64 764.726 1167.04 764.726Z" fill="#F4F4F4"/>
<path opacity="0.4" d="M1142.77 -25.8379C1152.3 -25.8379 1159.67 -18.0362 1159.67 -8.93428C1159.67 0.601024 1151.87 7.96932 1142.77 7.96932C1133.23 7.96932 1125.86 0.167599 1125.86 -8.93429C1125.86 -18.4696 1133.23 -25.8379 1142.77 -25.8379Z" fill="#F4F4F4"/>
<path opacity="0.4" d="M1166.6 932.894C1171.37 932.894 1174.84 936.794 1174.84 941.129C1174.84 945.896 1170.94 949.363 1166.6 949.363C1161.84 949.363 1158.37 945.463 1158.37 941.129C1158.37 936.794 1161.84 932.894 1166.6 932.894Z" fill="#F4F4F4"/>
<path opacity="0.4" d="M1131.06 125.426C1135.83 125.426 1139.73 129.327 1139.73 134.095C1139.73 138.862 1135.83 142.763 1131.06 142.763C1126.3 142.763 1122.4 138.862 1122.4 134.095C1122.83 129.327 1126.73 125.426 1131.06 125.426Z" fill="#F4F4F4"/>
<path opacity="0.4" d="M1113.29 1027.81C1121.96 1027.81 1128.9 1034.75 1128.9 1043.42C1128.9 1052.09 1121.96 1059.02 1113.29 1059.02C1104.63 1059.02 1097.69 1052.09 1097.69 1043.42C1097.69 1034.75 1104.63 1027.81 1113.29 1027.81Z" fill="#F4F4F4"/>
<path opacity="0.4" d="M1182.64 251.986C1186.98 251.986 1190.88 255.453 1190.88 260.22C1190.88 264.555 1187.41 268.456 1182.64 268.456C1178.31 268.456 1174.41 264.988 1174.41 260.22C1174.41 255.886 1178.31 251.986 1182.64 251.986Z" fill="#F4F4F4"/>
<path opacity="0.4" d="M1182.21 1168.68C1191.31 1168.68 1198.68 1176.04 1198.68 1185.15C1198.68 1194.25 1191.31 1201.62 1182.21 1201.62C1173.11 1201.62 1165.74 1194.25 1165.74 1185.15C1165.74 1176.04 1173.11 1168.68 1182.21 1168.68Z" fill="#F4F4F4"/>
<path opacity="0.4" d="M1048.28 398.049C1058.25 398.049 1066.48 406.284 1066.48 416.253C1066.48 426.222 1058.25 434.457 1048.28 434.457C1038.31 434.457 1030.08 426.222 1030.08 416.253C1030.08 405.851 1038.31 398.049 1048.28 398.049Z" fill="#F4F4F4"/>
<path opacity="0.4" d="M1059.98 489.068C1069.52 489.068 1076.89 496.87 1076.89 505.972C1076.89 515.507 1069.08 522.876 1059.98 522.876C1050.45 522.876 1043.08 515.074 1043.08 505.972C1042.65 496.87 1050.45 489.068 1059.98 489.068Z" fill="#F4F4F4"/>
<path opacity="0.4" d="M1052.18 640.766C1056.95 640.766 1060.42 644.667 1060.42 649.001C1060.42 653.769 1056.52 657.236 1052.18 657.236C1047.41 657.236 1043.95 653.335 1043.95 649.001C1043.51 644.667 1047.41 640.766 1052.18 640.766Z" fill="#F4F4F4"/>
<path opacity="0.4" d="M1000.6 801.999C1004.5 801.999 1007.97 805.467 1007.97 809.368C1007.97 813.268 1004.5 816.736 1000.6 816.736C996.702 816.736 993.235 813.268 993.235 809.368C993.235 805.033 996.269 801.999 1000.6 801.999Z" fill="#F4F4F4"/>
<path opacity="0.4" d="M1059.12 954.131C1063.45 954.131 1066.92 957.598 1066.92 961.932C1066.92 966.266 1063.45 969.734 1059.12 969.734C1054.78 969.734 1051.31 966.266 1051.31 961.932C1051.31 957.598 1054.78 954.131 1059.12 954.131Z" fill="#F4F4F4"/>
<path opacity="0.4" d="M1004.07 115.891C1012.31 115.891 1018.81 122.393 1018.81 130.628C1018.81 138.863 1012.31 145.364 1004.07 145.364C995.836 145.364 989.334 138.863 989.334 130.628C988.901 122.393 995.836 115.891 1004.07 115.891Z" fill="#F4F4F4"/>
<path opacity="0.4" d="M1004.94 1062.05C1014.91 1062.05 1023.14 1070.29 1023.14 1080.26C1023.14 1090.23 1014.91 1098.46 1004.94 1098.46C994.969 1098.46 986.734 1090.23 986.734 1080.26C986.3 1070.29 994.535 1062.05 1004.94 1062.05Z" fill="#F4F4F4"/>
<path opacity="0.4" d="M1026.61 221.646C1036.14 221.646 1043.51 229.014 1043.51 238.55C1043.51 248.085 1036.14 255.453 1026.61 255.453C1017.07 255.453 1009.71 248.085 1009.71 238.55C1009.71 229.014 1017.07 221.646 1026.61 221.646Z" fill="#F4F4F4"/>
<path opacity="0.4" d="M1006.67 1153.94C1017.07 1153.94 1025.31 1162.17 1025.31 1172.58C1025.31 1182.98 1017.07 1191.21 1006.67 1191.21C996.269 1191.21 988.034 1182.98 988.034 1172.58C988.034 1162.17 996.269 1153.94 1006.67 1153.94Z" fill="#F4F4F4"/>
</g>
</g>
<defs>
<clipPath id="clip0_1_7789">
<rect width="1920" height="1280" fill="white"/>
</clipPath>
</defs>
</svg>
