<svg width="1920" height="594" viewBox="0 0 1920 594" fill="none" xmlns="http://www.w3.org/2000/svg">
<path d="M1232.9 512.336C1225.98 524.368 1215.74 535.376 1205.76 545.104C1188.61 562.256 1171.71 581.456 1150.98 593.488C1165.82 600.4 1192.96 579.664 1204.99 572.752C1201.41 583.76 1187.07 591.184 1184.77 602.704C1193.47 599.888 1202.69 596.304 1211.14 592.464C1219.84 588.368 1228.29 580.944 1236.99 578.128C1236.99 590.928 1222.14 599.888 1215.23 609.104C1231.36 611.408 1244.67 592.464 1256.19 584.272C1258.5 592.976 1256.7 603.728 1260.8 612.944C1265.92 603.216 1270.53 591.696 1276.42 581.968C1281.02 592.208 1283.84 606.032 1293.06 613.712C1294.34 602.704 1297.66 593.488 1302.27 583.248C1309.7 593.744 1313.79 603.984 1326.34 609.104C1321.73 602.704 1323.52 592.976 1323.52 585.552C1336.06 594.256 1346.05 603.472 1360.9 609.104C1354.5 601.68 1347.07 591.952 1343.74 583.248C1356.29 585.552 1369.6 592.976 1382.91 596.56C1379.33 590.928 1368.58 585.04 1362.18 580.944C1377.79 588.88 1395.46 589.648 1412.86 591.184C1380.61 576.336 1350.66 552.528 1335.04 519.76C1329.41 506.96 1324.03 493.392 1318.4 481.104C1311.49 467.28 1295.87 467.792 1282.82 470.864C1282.82 470.864 1282.82 470.864 1282.3 470.864L1232.9 512.336Z" fill="#003F49"/>
<path d="M1251.33 462.415C1236.99 492.367 1207.55 521.039 1181.18 540.239C1197.82 543.567 1217.54 531.023 1230.59 523.599C1223.68 535.119 1216.26 548.431 1205.76 558.671C1232.13 551.759 1243.65 531.536 1259.26 511.568C1259.78 523.088 1251.33 533.327 1248.26 544.335C1259.26 534.607 1267.71 527.695 1275.9 514.895C1275.9 526.415 1275.39 536.655 1272.58 548.175C1287.42 541.775 1291.01 513.615 1295.62 499.791C1294.59 515.407 1305.34 530.767 1312.26 544.079C1312.77 527.951 1312.26 511.824 1314.56 496.208C1314.56 495.696 1314.56 495.696 1314.56 496.208C1317.38 512.336 1331.97 521.039 1339.9 534.095C1338.11 524.367 1338.11 513.359 1335.3 504.143C1348.61 515.151 1363.97 523.087 1376.77 533.583C1361.15 523.855 1349.12 499.535 1340.42 484.175C1332.22 470.351 1328.38 454.735 1320.19 441.679C1312.26 428.367 1306.88 419.919 1290.24 418.639C1275.39 417.359 1266.69 421.455 1259.78 434.767L1251.33 462.415Z" fill="#002830"/>
<path d="M1271.55 393.808C1264.64 404.816 1258.75 417.36 1252.1 428.368C1238.78 449.616 1218.82 460.112 1200.9 476.24C1217.54 474.448 1234.18 465.232 1245.7 453.712C1237.76 467.536 1230.08 479.568 1218.56 490.576C1244.93 484.944 1265.15 459.6 1278.98 438.096C1275.65 451.408 1273.86 475.984 1280 489.296C1281.28 470.864 1294.34 454.224 1297.41 436.304C1296.9 448.848 1307.65 471.376 1315.84 481.872C1311.23 469.328 1308.93 449.104 1309.44 435.792C1309.44 435.28 1309.44 435.28 1309.44 435.28C1311.74 456.528 1345.79 468.048 1361.92 475.472C1339.39 459.856 1320.96 428.88 1314.05 403.024C1311.74 393.808 1309.95 381.776 1301.25 376.656C1294.85 372.56 1283.33 371.536 1278.21 377.168L1271.55 393.808Z" fill="#003F49"/>
<path d="M1292.8 316.496C1289.98 328.528 1285.89 339.536 1280.26 351.056C1270.53 371.792 1260.8 384.336 1243.9 399.952C1250.3 401.232 1261.06 394.832 1265.66 390.224C1256.96 398.928 1252.86 410.96 1243.9 418.896C1261.06 411.984 1275.65 395.344 1287.17 381.52C1284.86 391.76 1288.45 408.656 1292.8 418.384C1295.1 407.376 1298.43 396.624 1300.74 386.128C1311.23 398.16 1324.29 404.048 1336.32 413.264C1333.5 401.232 1323.01 390.736 1316.1 380.496C1310.98 372.56 1307.39 363.344 1303.3 354.64C1298.18 342.096 1294.59 325.2 1294.59 311.376L1292.8 316.496Z" fill="#002830"/>
<path d="M134.144 508.497C123.136 527.697 106.752 545.105 91.136 560.465C63.744 587.857 37.376 618.065 4.35205 637.265C28.1601 648.273 70.912 615.249 90.112 604.497C84.736 621.905 61.696 633.681 58.112 651.857C71.936 647.249 86.528 641.873 100.096 635.473C113.92 629.073 127.488 617.297 141.056 612.689C141.056 632.657 117.248 647.505 106.24 662.097C131.84 665.681 152.832 635.729 171.008 622.929C174.592 636.753 172.032 653.905 178.432 668.497C186.624 652.881 194.048 634.705 203.008 619.089C210.432 635.473 214.784 657.489 229.376 669.265C231.168 651.857 236.8 637.265 243.968 620.881C255.744 637.265 262.144 653.649 282.368 662.097C274.944 652.113 277.76 636.497 277.76 624.721C297.728 638.289 313.344 653.137 337.152 662.097C327.168 650.321 315.136 634.705 309.76 620.881C329.728 624.465 350.72 636.497 371.968 641.873C366.592 632.657 349.184 623.697 339.2 617.297C363.776 630.097 392.192 631.121 419.584 633.681C368.384 609.872 321.024 572.497 296.192 520.529C286.976 500.561 278.784 478.545 269.824 459.345C258.816 437.329 234.24 438.353 213.248 442.961C213.248 442.961 213.248 442.961 212.224 442.961L134.144 508.497Z" fill="#003F49"/>
<path d="M163.328 429.137C140.544 476.497 93.9518 522.321 51.9678 552.273C78.3358 557.649 109.568 537.681 130.56 525.905C119.552 544.081 107.776 565.073 91.3918 581.713C133.376 570.705 151.552 538.705 176.384 506.961C177.408 525.137 163.584 541.777 158.976 558.929C176.384 543.313 189.952 532.561 202.752 512.337C202.752 530.513 201.728 547.153 197.376 565.329C221.184 555.345 226.56 510.545 233.984 488.529C232.192 513.105 249.6 537.937 260.352 558.929C261.376 533.329 260.352 507.729 263.936 483.153C263.936 482.129 263.936 482.129 263.936 483.153C268.544 508.753 291.328 522.321 304.128 543.313C301.312 527.697 301.312 510.545 296.704 495.953C317.696 513.361 342.272 526.161 362.496 542.545C337.92 526.929 318.72 488.785 304.896 463.953C292.096 441.937 285.696 417.361 272.896 396.369C260.096 375.377 251.904 361.553 225.536 359.761C201.728 357.969 188.16 364.369 177.152 385.361L163.328 429.137Z" fill="#002830"/>
<path d="M195.328 320.336C184.32 337.744 175.36 357.712 164.352 375.12C143.36 408.912 111.36 425.296 83.2002 450.896C109.568 448.08 136.192 433.488 154.368 415.312C141.568 437.328 129.792 456.272 111.36 473.68C153.344 464.464 185.344 424.272 207.104 390.48C201.728 411.472 198.912 450.64 208.896 471.632C210.688 442.448 231.68 415.824 236.288 387.664C235.264 407.632 252.672 443.472 265.472 459.856C258.048 439.888 254.464 407.888 255.488 386.896C255.488 385.872 255.488 385.872 255.488 385.872C259.072 419.664 313.088 437.84 338.688 449.872C303.104 425.296 273.92 375.888 262.912 334.928C259.328 320.336 256.512 301.136 242.944 292.944C232.96 286.544 214.528 284.752 206.336 293.968L195.328 320.336Z" fill="#003F49"/>
<path d="M229.12 197.968C224.512 217.168 218.112 234.576 209.152 252.752C193.536 285.52 178.176 305.745 151.552 330.321C161.536 332.113 178.944 322.128 186.368 314.704C172.544 328.272 166.4 347.472 151.552 360.272C178.944 349.264 201.728 322.897 219.904 300.881C216.32 317.265 221.696 343.888 229.12 359.248C232.704 341.84 238.336 324.432 241.92 308.048C258.304 327.248 279.296 336.465 298.496 351.057C293.888 331.857 277.504 315.472 266.496 299.088C258.304 286.288 252.672 271.696 246.528 258.128C238.336 238.16 232.704 211.537 232.704 189.521L229.12 197.968Z" fill="#002830"/>
<path d="M1604.86 498C1596.16 516.432 1583.36 533.328 1571.07 548.176C1549.57 574.544 1528.83 603.728 1502.98 622.16C1521.66 632.656 1555.2 600.912 1570.3 590.416C1565.95 607.056 1548.03 618.576 1545.22 636.24C1555.97 631.888 1567.49 626.512 1578.24 620.368C1588.99 614.224 1599.74 602.704 1610.5 598.352C1610.5 617.808 1591.81 631.888 1583.36 645.968C1603.33 649.552 1619.97 620.368 1634.3 608.08C1637.12 621.392 1635.07 638.032 1639.94 652.112C1646.34 637.264 1652.22 619.6 1659.39 604.496C1665.02 620.368 1668.61 641.36 1680.13 652.88C1681.66 636.24 1685.76 622.16 1691.65 606.288C1700.86 622.16 1705.98 638.032 1721.86 645.968C1716.22 636.24 1718.27 621.392 1718.27 609.872C1734.14 623.184 1746.18 637.264 1764.86 645.968C1756.93 634.448 1747.71 619.6 1743.36 606.288C1759.23 609.872 1775.62 621.136 1792 626.512C1787.65 617.808 1774.08 608.848 1766.14 602.704C1785.6 614.992 1807.62 616.016 1829.12 618.576C1788.93 595.792 1751.81 559.696 1732.35 509.52C1725.18 490.064 1718.78 469.072 1711.62 450.64C1702.91 429.392 1683.71 430.416 1667.07 434.768C1667.07 434.768 1667.07 434.768 1666.3 434.768L1604.86 498Z" fill="#003F49"/>
<path d="M1627.9 421.456C1609.98 467.28 1573.38 511.312 1540.61 540.24C1561.34 545.616 1585.66 526.16 1602.3 514.64C1593.6 532.304 1584.38 552.528 1571.58 568.4C1604.61 557.904 1618.94 526.928 1638.14 496.208C1638.91 513.872 1628.16 529.744 1624.58 546.384C1638.14 531.536 1648.9 520.784 1658.88 501.584C1658.88 519.248 1658.11 535.12 1654.53 552.528C1673.22 542.8 1677.57 499.792 1683.2 478.544C1681.66 502.352 1695.49 526.16 1703.94 546.384C1704.7 521.808 1703.94 496.976 1706.75 473.424C1706.75 472.656 1706.75 472.656 1706.75 473.424C1710.34 498 1728.26 511.312 1738.24 531.536C1736.19 516.688 1736.19 499.792 1732.61 485.712C1748.99 502.352 1768.45 514.64 1784.06 530.512C1764.61 515.664 1749.76 478.544 1739.01 454.736C1729.02 433.488 1723.9 409.936 1713.92 389.712C1703.94 369.488 1697.54 356.176 1676.54 354.384C1657.86 352.592 1647.1 358.736 1638.66 378.96L1627.9 421.456Z" fill="#002830"/>
<path d="M1652.74 316.752C1644.03 333.392 1636.86 352.848 1628.42 369.488C1612.03 402 1586.94 417.872 1564.67 442.448C1585.41 439.888 1606.14 425.808 1620.48 408.144C1610.5 429.136 1601.02 447.824 1586.69 464.464C1619.71 455.76 1644.8 416.848 1661.95 384.336C1657.6 404.56 1655.55 442.448 1663.49 462.672C1665.02 434.512 1681.41 408.912 1684.99 381.776C1684.22 401.232 1697.79 435.536 1708.03 451.408C1702.4 431.952 1699.33 401.232 1700.1 381.008C1700.1 380.24 1700.1 380.24 1700.1 380.24C1702.91 412.752 1745.15 430.416 1765.38 441.936C1737.47 418.128 1714.43 370.768 1705.98 331.088C1703.17 317.008 1700.86 298.576 1690.11 290.64C1682.18 284.496 1667.84 282.704 1661.44 291.408L1652.74 316.752Z" fill="#003F49"/>
<path d="M1679.36 198.736C1675.78 217.168 1670.66 234.064 1663.49 251.472C1651.2 283.216 1639.17 302.416 1618.43 326.224C1626.37 328.016 1639.94 318.288 1645.57 311.376C1634.82 324.688 1629.7 343.12 1618.43 355.408C1639.94 344.912 1657.86 319.312 1672.19 298.32C1669.38 314.192 1673.73 339.792 1679.36 354.64C1682.18 338 1686.53 321.104 1689.34 305.232C1702.14 323.664 1718.78 332.624 1733.63 346.704C1730.05 328.272 1717.25 312.4 1708.54 296.528C1702.14 284.24 1697.79 270.16 1692.67 256.848C1686.27 237.392 1681.92 212.048 1681.92 190.8L1679.36 198.736Z" fill="#002830"/>
<path d="M1397.76 463.44C1403.14 491.6 1364.22 554.064 1347.33 578.128C1340.93 588.112 1302.27 630.352 1307.39 640.592C1315.84 656.72 1393.41 648.528 1410.3 650.576C1467.9 658.512 1525.76 657.744 1583.62 658.512C1603.58 658.512 1619.2 665.68 1638.14 667.472C1652.74 669.52 1667.58 667.472 1682.18 669.52C1667.58 641.36 1645.57 615.248 1629.7 587.088C1613.82 557.904 1600.26 528.72 1583.62 500.56C1571.07 478.544 1556.22 445.264 1530.11 437.072C1502.72 429.136 1481.73 446.032 1456.64 442.192C1456.64 442.192 1455.62 442.192 1454.59 442.192L1397.76 463.44Z" fill="#002830"/>
<path d="M1402.88 404.304C1400.83 419.408 1393.41 434.512 1385.98 448.592C1373.44 476.752 1360.9 506.96 1340.93 532.048C1363.97 530 1384.96 504.912 1396.48 487.76C1391.1 507.984 1381.89 530 1371.39 548.176C1399.81 533.072 1414.4 507.984 1430.27 482.896C1430.27 503.12 1428.22 525.136 1422.85 544.336C1440.77 531.28 1450.24 504.144 1456.38 483.92C1457.41 504.144 1455.36 526.16 1459.46 546.384C1470.98 528.208 1474.05 505.168 1477.38 483.92C1476.35 505.936 1494.27 528.208 1507.84 543.312C1507.84 519.248 1502.72 492.112 1506.82 467.792C1511.94 489.808 1534.21 510.032 1549.82 526.16C1546.75 504.144 1544.7 479.824 1544.7 460.88C1555.2 482.128 1583.62 494.16 1592.06 513.104C1576.19 496.976 1580.54 467.792 1571.07 448.848C1586.94 474.96 1613.06 499.024 1641.47 511.312C1604.61 485.2 1513.47 236.624 1451.52 308.048C1444.1 315.984 1437.95 325.2 1432.58 334.16L1402.88 404.304Z" fill="#003F49"/>
<path d="M1428.22 318.8C1410.3 361.04 1389.31 400.208 1364.22 437.584C1393.66 425.552 1418.75 406.352 1437.7 381.264C1432.58 402.512 1417.73 428.624 1403.14 445.52C1426.18 435.536 1452.54 412.24 1460.74 390.224C1460.74 411.472 1445.12 440.4 1452.29 460.624C1471.23 445.52 1483.78 405.328 1483.78 382.288C1485.82 399.44 1488.9 417.616 1495.3 434.512C1501.7 412.496 1499.39 389.2 1501.7 366.16C1514.24 396.368 1522.69 418.384 1545.73 443.728C1544.7 423.504 1541.63 398.416 1537.28 379.472C1541.38 398.672 1561.34 418.64 1575.17 432.72C1575.17 413.52 1570.05 389.456 1566.72 369.232C1577.22 389.456 1602.3 416.592 1624.58 424.528C1593.09 387.408 1565.7 346.192 1537.54 306.768C1523.97 288.592 1517.57 262.48 1494.53 253.52C1476.61 246.352 1452.54 250.448 1445.12 270.672L1428.22 318.8Z" fill="#002830"/>
<path d="M1448.19 186.96C1451.26 230.224 1407.23 292.688 1375.74 319.824C1399.81 315.728 1418.75 292.688 1432.32 275.536C1421.82 300.624 1409.28 325.712 1392.38 346.96C1425.92 331.856 1450.24 302.672 1461.76 269.392C1462.78 292.432 1463.81 315.728 1469.18 336.72C1479.68 315.472 1475.58 291.408 1482.75 269.392C1480.7 290.64 1497.34 315.728 1510.14 331.856C1511.17 310.608 1502.72 287.568 1507.07 266.576C1514.5 294.736 1552.13 305.744 1575.42 319.824C1564.93 302.672 1548.03 287.568 1540.86 268.624C1551.36 276.56 1563.9 281.68 1574.4 288.848C1568 274.768 1548.29 262.736 1537.79 249.68C1525.25 235.6 1518.85 218.448 1510.4 201.296C1500.93 180.304 1480.96 138.832 1453.82 165.968L1448.19 186.96Z" fill="#003F49"/>
<path d="M1479.94 82C1475.84 99.152 1472.51 116.304 1465.34 132.176C1452.8 160.336 1430.78 176.464 1412.86 200.528C1425.41 197.456 1442.3 192.592 1450.75 182.352C1440.26 201.552 1428.74 222.544 1414.14 239.696C1443.58 227.664 1450.75 205.392 1467.65 183.376C1466.62 202.576 1468.67 218.704 1469.7 237.648C1482.24 230.48 1484.29 203.344 1486.59 190.288C1489.66 202.32 1498.11 219.472 1507.58 228.432C1507.58 211.28 1504.51 194.128 1503.49 177.232C1515.01 198.48 1539.07 203.344 1558.02 214.352C1538.05 191.312 1508.61 172.112 1495.04 143.952C1486.59 126.8 1483.52 106.832 1483.52 87.632L1479.94 82Z" fill="#002830"/>
<path d="M-8.44804 430.16C-4.35204 457.552 -44.2881 516.176 -61.4401 538.96C-67.8401 548.432 -107.008 587.856 -102.4 597.584C-94.9761 613.456 -19.7121 608.592 -3.58413 611.152C51.9679 621.136 107.52 622.416 163.328 625.488C182.528 626.256 197.632 633.68 215.552 636.24C229.632 638.8 243.968 637.264 258.048 639.824C244.992 612.176 224.768 586.064 210.432 558.16C196.352 529.488 184.32 500.816 169.216 472.912C157.952 451.152 144.896 418.384 120.064 409.68C93.9518 400.976 73.2159 416.592 48.8959 411.728C48.8959 411.728 47.8719 411.728 46.8479 411.728L-8.44804 430.16Z" fill="#002830"/>
<path d="M-1.02402 373.072C-3.58402 387.664 -11.264 401.744 -18.944 415.056C-32.256 441.68 -45.568 470.352 -65.792 493.904C-43.52 492.88 -22.2721 469.328 -10.4961 453.2C-16.3841 472.4 -26.368 493.392 -37.12 510.544C-9.21596 496.976 5.88797 473.424 22.016 449.616C21.248 469.072 18.4319 490.32 12.5439 508.496C30.2079 496.464 40.448 470.608 47.36 451.408C47.616 470.864 44.8 492.112 48.128 511.824C59.904 494.672 64 472.656 67.84 452.176C66.048 473.424 82.432 495.44 94.976 510.544C96 487.248 91.904 460.88 96.768 437.584C101.12 459.088 121.6 479.312 136.192 495.44C133.888 473.936 132.864 450.64 133.632 432.208C142.848 452.944 169.984 465.744 177.152 484.432C162.56 468.304 167.68 440.4 159.232 421.456C173.312 447.312 197.888 471.632 224.768 484.432C190.208 457.808 111.616 214.352 49.1521 281.168C41.7281 288.592 35.3281 297.04 29.9521 305.744L-1.02402 373.072Z" fill="#003F49"/>
<path d="M26.368 291.664C7.42403 331.856 -14.336 368.72 -39.936 403.792C-11.008 393.296 13.824 375.888 33.024 352.336C27.136 372.56 12.032 397.136 -2.81604 413.264C19.968 404.304 46.0801 383.056 55.0401 362.064C54.2721 382.544 37.888 409.936 44.288 429.648C63.232 415.824 76.8 377.424 77.568 355.152C78.848 371.792 81.408 389.456 86.784 406.096C93.696 384.848 92.672 362.576 95.488 340.304C106.496 370 113.664 391.504 135.168 416.848C134.912 397.392 132.864 373.072 129.536 354.384C132.864 373.072 151.296 393.296 164.096 407.376C164.864 388.944 160.768 365.392 158.464 345.936C167.936 365.648 191.232 393.04 211.968 401.488C183.04 364.368 158.208 323.408 132.352 284.496C119.808 266.576 114.688 240.976 92.928 231.504C76.032 224.08 52.48 226.896 44.544 246.096L26.368 291.664Z" fill="#002830"/>
<path d="M50.6877 165.201C51.9677 207.185 7.16769 265.553 -24.3203 290.641C-0.768311 287.569 18.1757 266.065 31.9997 250.193C20.9917 274.001 7.6796 297.809 -9.21641 317.521C23.8076 304.209 48.1277 277.073 60.6717 245.329C60.9277 267.601 60.9277 290.129 65.2797 310.609C76.2877 290.641 72.9596 267.089 80.8956 246.097C78.0796 266.321 93.4397 291.409 104.96 307.281C106.752 286.801 99.5837 264.273 104.448 244.049C110.592 271.441 146.432 283.729 168.192 298.065C158.72 281.169 143.104 266.065 136.704 247.121C146.432 255.313 158.464 260.689 168.448 267.857C162.816 254.033 144.128 241.489 134.4 228.689C122.88 214.609 117.248 197.969 109.824 181.073C101.632 160.337 83.7117 119.633 56.3197 144.977L50.6877 165.201Z" fill="#003F49"/>
<path d="M85.2478 65.1045C80.6398 81.4885 76.7999 97.8725 69.1199 112.977C55.8079 139.601 34.0479 154.449 15.8719 176.977C28.1599 174.417 44.5439 170.32 52.9919 160.848C42.2399 179.024 30.2079 198.737 15.3599 214.865C44.2879 204.369 52.2239 183.121 69.1199 162.641C67.3279 181.073 68.8639 196.689 69.1199 215.121C81.6639 208.721 84.7359 182.609 87.0399 170.064C89.5999 181.841 97.0238 198.737 105.728 207.697C106.496 191.313 103.936 174.672 103.68 158.032C113.92 178.768 137.216 184.657 154.88 195.921C136.448 172.881 108.8 153.169 96.7678 125.521C89.3438 108.625 87.0398 89.1685 87.8078 70.7365L85.2478 65.1045Z" fill="#002830"/>
<path d="M1705.73 448.592C1710.59 482.128 1661.7 554.321 1640.7 581.969C1632.77 593.489 1584.9 641.873 1590.53 653.905C1599.74 673.361 1692.16 667.473 1711.87 670.545C1779.97 682.833 1848.32 684.369 1916.67 688.209C1940.22 689.233 1958.66 698.192 1980.93 701.52C1998.34 704.592 2015.74 702.8 2032.9 705.872C2016.77 671.824 1991.94 639.825 1974.53 605.777C1957.12 570.449 1942.53 535.377 1923.84 501.329C1910.02 474.449 1894.14 434.513 1863.42 423.761C1831.42 413.009 1805.82 432.209 1776.13 426.321C1776.13 426.321 1774.85 426.321 1773.57 426.321L1705.73 448.592Z" fill="#002830"/>
<path d="M1714.94 378.704C1711.87 396.368 1702.4 414.032 1692.93 430.416C1676.8 463.184 1660.42 498.256 1635.58 527.184C1662.98 525.904 1689.09 496.976 1703.42 477.264C1696.26 500.816 1683.97 526.672 1670.66 547.664C1704.96 531.024 1723.39 502.096 1743.36 472.912C1742.34 496.72 1739.01 522.832 1731.84 545.104C1753.6 530.512 1766.14 498.768 1774.34 475.216C1774.59 499.024 1771.01 525.136 1775.1 549.2C1789.7 528.208 1794.3 501.072 1799.17 476.24C1796.86 502.352 1817.09 529.488 1832.45 547.92C1833.47 519.248 1828.61 486.992 1834.75 458.576C1839.87 484.944 1865.22 509.776 1882.88 529.744C1880.06 503.376 1878.78 474.704 1879.81 452.176C1891.33 477.776 1924.35 493.392 1933.31 516.432C1915.39 496.72 1921.79 462.416 1911.55 439.12C1928.96 470.864 1958.91 500.56 1991.94 516.176C1949.7 483.408 1853.18 185.168 1776.38 266.832C1767.42 276.048 1759.49 286.544 1752.83 297.04L1714.94 378.704Z" fill="#003F49"/>
<path d="M1748.74 278.608C1725.7 327.76 1699.07 373.328 1667.33 416.08C1702.66 403.28 1733.38 381.776 1756.93 352.848C1749.76 377.68 1731.07 407.888 1712.9 427.344C1740.8 416.592 1772.8 390.224 1783.81 364.624C1782.78 389.712 1762.82 423.504 1770.5 447.568C1793.54 430.672 1810.43 383.568 1811.46 356.176C1813.25 376.4 1816.06 398.16 1822.72 418.64C1831.17 392.784 1829.89 365.136 1833.47 338C1847.04 374.352 1856 400.976 1882.11 431.696C1881.86 407.888 1879.3 377.936 1875.2 355.152C1879.3 377.936 1902.08 402.768 1917.44 419.92C1918.21 397.392 1913.34 368.464 1910.53 344.4C1922.05 368.72 1950.46 402 1976.32 412.496C1940.74 366.928 1910.27 316.752 1878.78 269.136C1863.42 247.12 1857.28 215.888 1830.4 204.112C1809.66 194.896 1780.74 198.48 1771.26 222.032L1748.74 278.608Z" fill="#002830"/>
<path d="M1778.43 123.473C1780.22 174.929 1724.93 246.609 1686.53 277.329C1715.2 273.745 1738.75 247.121 1755.65 227.665C1742.08 256.849 1725.95 286.033 1704.96 310.353C1745.41 293.969 1775.36 260.689 1790.72 221.777C1790.98 249.169 1790.98 276.561 1796.35 301.905C1809.66 277.329 1805.82 248.657 1815.55 222.801C1811.97 247.633 1830.91 278.353 1844.99 297.809C1847.3 272.721 1838.34 245.073 1844.22 220.241C1851.65 254.033 1895.94 268.881 1922.56 286.545C1911.04 265.809 1891.84 247.121 1883.9 224.081C1895.94 234.065 1910.53 240.721 1922.82 249.425C1915.9 232.529 1892.86 217.169 1881.09 201.297C1866.75 184.145 1860.1 163.409 1851.14 142.929C1840.9 117.585 1819.14 67.6646 1785.6 98.6406L1778.43 123.473Z" fill="#003F49"/>
<path d="M1820.93 0.848145C1815.04 20.8161 1810.69 41.0401 1801.22 59.7281C1785.09 92.4961 1758.21 110.416 1735.94 138.32C1751.04 135.248 1771.01 130.128 1781.5 118.608C1768.19 140.624 1753.6 165.2 1735.42 184.656C1770.75 171.856 1780.48 146 1801.47 120.4C1799.42 142.928 1800.96 162.128 1801.47 184.912C1816.83 177.232 1820.42 145.232 1823.49 129.616C1826.56 143.952 1835.78 164.688 1846.53 175.952C1847.3 155.728 1844.48 135.248 1843.97 115.024C1856.77 140.624 1884.93 147.536 1906.94 161.616C1884.42 133.2 1850.62 109.392 1835.78 75.3442C1826.56 54.6082 1823.74 30.8002 1824.77 8.01619L1820.93 0.848145Z" fill="#002830"/>
<path d="M258.304 594.513C261.376 616.017 230.144 662.097 216.576 680.017C211.456 687.441 180.736 718.417 184.576 726.097C190.464 738.641 249.6 734.801 262.4 736.849C305.92 744.785 349.696 745.553 393.472 748.113C408.576 748.625 420.352 754.513 434.688 756.561C445.696 758.609 456.96 757.329 467.968 759.377C457.728 737.617 441.6 717.137 430.592 695.121C419.584 672.593 410.112 650.065 398.08 628.049C389.12 610.897 379.136 585.297 359.424 578.385C338.944 571.473 322.56 583.761 303.616 579.921C303.616 579.921 302.848 579.921 302.08 579.921L258.304 594.513Z" fill="#002830"/>
<path d="M263.936 549.712C261.888 560.976 255.744 572.24 249.856 582.736C239.36 603.728 229.12 626.256 212.992 644.688C230.656 643.92 247.296 625.488 256.512 612.688C251.904 627.792 244.224 644.176 235.52 657.744C257.536 647.248 269.312 628.56 282.112 609.872C281.6 625.232 279.296 641.872 274.688 656.208C288.512 646.736 296.704 626.512 302.08 611.408C302.336 626.768 300.032 643.408 302.592 658.768C311.808 645.456 314.88 628.048 317.952 611.92C316.416 628.56 329.472 645.968 339.2 657.744C339.968 639.312 336.64 618.576 340.736 600.4C344.064 617.296 360.192 633.168 371.712 645.968C369.92 629.072 369.152 610.64 369.664 596.304C377.088 612.688 398.08 622.672 403.968 637.52C392.448 624.72 396.544 602.704 389.888 588.112C401.152 608.336 420.352 627.536 441.344 637.52C414.208 616.528 352.512 425.296 303.36 477.776C297.472 483.664 292.608 490.32 288.256 496.976L263.936 549.712Z" fill="#003F49"/>
<path d="M285.696 485.456C270.848 516.944 253.696 546.128 233.472 573.52C256.256 565.328 275.712 551.504 290.816 533.072C286.208 548.944 274.176 568.4 262.656 580.944C280.576 574.032 301.056 557.136 308.224 540.752C307.712 556.88 294.656 578.384 299.776 594C314.624 582.992 325.376 553.04 325.888 535.376C326.912 548.432 328.704 562.256 333.056 575.312C338.432 558.672 337.664 541.008 339.968 523.6C348.672 546.896 354.304 563.792 371.2 583.76C370.944 568.4 369.408 549.2 366.848 534.608C369.408 549.2 384 565.072 393.984 576.08C394.496 561.488 391.424 543.056 389.632 527.696C397.056 543.312 415.232 564.56 431.872 571.472C409.088 542.288 389.632 510.288 369.408 479.568C359.68 465.488 355.584 445.52 338.432 437.84C325.12 431.952 306.688 434.256 300.544 449.36L285.696 485.456Z" fill="#002830"/>
<path d="M304.64 386.128C305.664 419.152 270.336 464.976 245.76 484.688C264.192 482.384 279.296 465.488 290.048 452.688C281.344 471.376 271.104 490.064 257.536 505.68C283.392 495.184 302.592 473.936 312.32 449.104C312.32 466.768 312.576 484.176 315.904 500.56C324.608 484.944 322.048 466.512 328.192 449.872C325.888 465.744 337.92 485.456 347.136 498C348.672 482.128 342.784 464.208 346.624 448.336C351.232 469.84 379.648 479.568 396.8 490.832C389.376 477.52 377.088 465.488 371.968 450.896C379.648 457.296 389.12 461.392 396.8 467.28C392.448 456.528 377.6 446.544 370.176 436.304C360.96 425.296 356.864 411.984 350.976 398.928C344.32 382.544 330.496 350.8 308.992 370.512L304.64 386.128Z" fill="#003F49"/>
<path d="M332.032 307.536C328.448 320.336 325.376 333.136 319.488 345.168C308.992 366.16 291.84 377.68 277.504 395.6C287.232 393.808 300.032 390.48 306.688 383.056C298.24 397.136 288.768 413.008 276.992 425.552C299.776 417.36 305.92 400.72 319.232 384.336C317.952 398.928 318.976 410.96 319.232 425.552C328.96 420.688 331.52 399.952 333.312 390.224C335.36 399.44 341.248 412.752 348.16 419.92C348.672 406.864 346.88 393.808 346.624 381.008C354.816 397.392 372.992 402 386.816 410.96C372.48 392.784 350.72 377.424 341.248 355.664C335.36 342.352 333.568 326.992 334.08 312.656L332.032 307.536Z" fill="#002830"/>
<path d="M695.296 579.664C692.736 597.328 718.592 635.472 729.6 650.064C733.696 656.208 759.04 681.552 755.968 687.952C751.104 698.192 702.464 695.12 691.968 696.656C656.128 703.056 620.032 703.824 583.936 705.872C571.392 706.384 561.92 711.248 550.144 712.784C540.928 714.32 531.712 713.552 522.752 715.088C531.2 697.168 544.256 680.272 553.472 662.352C562.688 643.664 570.368 625.232 580.096 607.056C587.52 592.976 595.712 571.728 612.096 566.096C628.992 560.464 642.56 570.448 658.176 567.376C658.176 567.376 658.944 567.376 659.456 567.376L695.296 579.664Z" fill="#002830"/>
<path d="M690.432 542.544C692.224 552.016 697.088 561.231 701.952 569.679C710.4 587.087 719.104 605.52 732.16 620.624C717.568 619.856 704 604.752 696.32 594.256C700.16 606.8 706.56 620.368 713.472 631.376C695.296 622.672 685.568 607.312 675.072 591.952C675.584 604.496 677.376 618.32 681.216 630.096C669.696 622.416 663.296 605.52 658.688 593.232C658.432 605.776 660.48 619.6 658.176 632.144C650.496 621.136 647.936 606.8 645.376 593.744C646.656 607.568 635.904 621.904 627.712 631.632C627.2 616.528 629.76 599.376 626.432 584.528C623.616 598.352 610.304 611.663 601.088 622.159C602.624 608.335 603.136 593.231 602.88 581.199C596.736 594.767 579.328 602.96 574.72 614.992C584.192 604.496 580.864 586.32 586.24 574.288C577.024 590.928 561.152 606.8 543.744 614.992C566.016 597.84 616.96 440.4 657.408 483.408C662.272 488.272 666.368 493.647 669.952 499.279L690.432 542.544Z" fill="#003F49"/>
<path d="M672.512 489.808C684.8 515.664 698.88 539.728 715.52 562.256C696.832 555.344 680.704 544.08 668.16 528.976C672 542.032 681.728 557.904 691.456 568.4C676.864 562.768 659.712 548.944 654.08 535.376C654.592 548.688 665.088 566.352 660.992 579.152C648.704 570.192 640 545.36 639.488 531.024C638.72 541.776 637.184 553.04 633.6 564.048C629.248 550.48 629.76 535.888 627.968 521.552C620.8 540.752 616.192 554.832 602.368 570.96C602.624 558.416 603.904 542.544 605.952 530.512C603.904 542.544 591.872 555.6 583.68 564.816C583.168 552.784 585.984 537.68 587.264 525.136C581.12 537.936 566.016 555.6 552.448 561.232C571.136 537.168 587.264 510.8 603.904 485.456C612.096 473.68 615.168 457.296 629.504 451.152C640.512 446.288 655.616 448.336 660.736 460.624L672.512 489.808Z" fill="#002830"/>
<path d="M656.896 408.144C655.872 435.28 685.056 473.168 705.536 489.296C690.432 487.248 677.888 473.424 668.928 462.928C676.096 478.288 684.544 493.648 695.552 506.448C674.304 497.744 658.432 480.336 650.24 459.856C650.24 474.448 649.984 488.784 647.424 502.096C640.256 489.04 642.304 473.936 637.184 460.368C638.976 473.424 629.248 489.552 621.568 500.048C620.288 486.992 625.152 472.144 621.824 459.088C617.984 476.752 594.688 484.688 580.608 494.16C586.752 483.152 596.736 473.424 601.088 461.136C594.688 466.512 587.008 469.84 580.608 474.448C584.192 465.488 596.48 457.552 602.624 449.104C610.048 439.888 613.632 429.136 618.496 418.384C623.872 405.072 635.392 378.704 653.056 395.088L656.896 408.144Z" fill="#003F49"/>
<path d="M634.624 343.376C637.696 353.872 640 364.624 645.12 374.352C653.568 391.76 667.904 401.232 679.68 415.824C671.744 414.288 661.248 411.472 655.616 405.328C662.528 417.104 670.464 429.904 679.936 440.144C661.248 433.232 656.128 419.664 645.12 406.352C646.144 418.384 645.376 428.368 645.12 440.4C637.184 436.304 635.136 419.408 633.344 411.216C631.552 418.896 626.944 429.648 621.056 435.536C620.544 424.784 622.08 414.032 622.336 403.28C615.68 416.848 600.576 420.432 589.056 427.856C600.832 413.008 618.752 400.208 626.688 382.288C631.552 371.28 633.088 358.736 632.576 346.704L634.624 343.376Z" fill="#002830"/>
<path d="M392.448 529.488C397.568 551.76 360.192 600.912 344.064 619.856C337.92 627.792 300.8 661.072 305.664 669.008C313.856 681.808 388.352 675.408 404.48 676.944C460.032 683.344 515.328 682.576 570.88 683.344C590.08 683.344 605.184 688.976 623.36 690.512C637.44 692.048 651.52 690.512 665.6 692.048C651.52 669.776 630.272 649.296 615.168 627.024C600.064 603.984 587.008 580.944 570.88 558.928C558.848 541.52 544.768 515.408 519.424 509.008C493.312 502.608 473.088 516.176 448.768 512.848C448.768 512.848 447.744 512.848 446.72 512.848L392.448 529.488Z" fill="#002830"/>
<path d="M403.712 482.64C402.176 494.416 396.287 506.448 390.399 517.456C380.415 539.728 370.431 563.536 354.815 583.248C372.991 581.712 389.632 561.744 398.592 548.432C394.496 564.304 387.071 581.712 378.623 596.048C400.895 584.272 412.671 564.304 424.959 544.592C424.959 560.464 423.424 577.872 419.072 592.976C433.152 582.736 440.575 561.232 445.439 545.36C446.207 561.232 444.671 578.64 447.999 594.512C457.215 580.176 459.519 562 462.079 545.36C461.311 562.768 475.391 580.176 486.143 592.208C486.143 573.264 482.047 551.76 485.375 532.816C489.471 550.224 506.879 566.096 519.423 578.896C516.863 561.488 515.327 542.288 515.327 527.44C523.519 544.08 546.047 553.552 552.447 568.656C540.159 555.856 543.231 533.072 535.807 517.968C548.351 538.704 568.831 557.648 591.359 567.12C562.431 546.384 490.495 350.544 441.599 406.864C435.711 413.264 430.848 420.432 426.752 427.6L403.712 482.64Z" fill="#003F49"/>
<path d="M423.68 415.313C409.6 448.593 392.96 479.569 373.248 509.009C396.544 499.537 416.255 484.433 431.103 464.721C427.007 481.361 415.488 502.097 403.712 515.409C421.888 507.473 442.624 489.297 449.28 471.889C449.28 488.529 436.991 511.569 442.623 527.441C457.471 515.665 467.456 483.921 467.456 465.489C468.992 479.057 471.552 493.137 476.672 506.705C481.536 489.297 480 471.121 481.536 452.689C491.52 476.497 498.176 493.905 516.352 513.873C515.584 498.001 513.024 478.289 509.696 463.185C513.024 478.289 528.64 494.161 539.392 505.169C539.392 490.065 535.296 471.121 532.736 455.249C540.928 471.121 560.895 492.625 578.303 498.769C553.471 469.329 531.968 436.817 509.696 405.841C498.944 391.505 494.08 371.025 475.648 363.857C461.568 358.225 442.624 361.553 436.736 377.425L423.68 415.313Z" fill="#002830"/>
<path d="M439.295 311.376C441.855 345.424 407.04 394.576 382.208 416.08C401.152 413.008 416.256 394.576 427.008 381.264C418.816 400.976 408.832 420.944 395.52 437.584C421.888 425.808 441.088 402.768 450.048 376.4C450.816 394.576 451.583 412.752 455.935 429.648C464.127 413.008 460.8 394.064 466.688 376.4C465.152 393.04 478.208 412.752 488.192 425.552C488.96 408.912 482.304 390.736 485.632 374.096C491.52 396.368 521.216 405.072 539.392 416.08C531.2 402.512 517.888 390.736 512 375.632C520.192 382.032 530.176 385.872 538.368 391.504C533.504 380.496 517.632 370.768 509.44 360.528C499.456 349.52 494.591 335.952 487.935 322.384C480.511 305.744 464.639 273.232 443.135 294.736L439.295 311.376Z" fill="#003F49"/>
<path d="M464.383 228.688C461.055 242.256 458.495 255.568 452.863 268.368C442.879 290.64 425.472 303.184 411.392 322.384C421.376 320.08 434.688 315.984 441.088 308.048C432.896 323.152 423.68 339.793 412.16 353.361C435.456 343.889 441.088 326.48 454.4 309.072C453.632 324.176 455.168 336.72 455.936 351.824C465.92 346.192 467.456 324.944 469.248 314.448C471.808 323.92 478.464 337.489 485.888 344.657C485.888 331.089 483.328 317.776 482.56 304.208C491.776 320.848 510.72 324.944 525.568 333.648C509.952 315.472 486.655 300.369 475.903 278.097C469.247 264.529 466.688 248.656 466.688 233.552L464.383 228.688Z" fill="#002830"/>
</svg>
