<svg width="1920" height="629" viewBox="0 0 1920 629" fill="none" xmlns="http://www.w3.org/2000/svg">
<path d="M2131.71 421.896C2114.56 409.096 2095.36 395.784 2081.79 378.376C2075.65 370.184 2065.41 356.36 2063.36 344.584C2071.04 348.68 2087.94 356.104 2096.13 351.496C2083.07 343.304 2068.99 335.368 2059.01 323.08C2072.58 332.296 2085.38 340.744 2102.27 334.088C2094.59 331.784 2088.19 328.712 2081.28 325.128C2063.36 315.912 2049.02 303.624 2039.04 285.704C2038.02 283.656 2036.74 281.864 2035.71 279.816C2042.11 282.12 2049.54 283.144 2059.01 282.888C2046.72 277.768 2035.97 271.88 2027.52 263.176C2027.52 262.92 2027.26 262.664 2027.26 262.408C2026.75 261.384 2026.24 260.104 2025.98 259.08C2035.46 266.248 2052.1 275.208 2062.85 270.856C2049.54 267.784 2024.45 236.04 2006.53 213C2001.66 205.576 1997.06 197.384 1995.01 193.544C2002.69 200.712 2013.18 206.6 2026.75 206.344C2018.3 203.528 1984 176.136 1978.62 150.024C1976.32 139.272 1973.25 128.776 1972.99 118.024L1972.48 129.8C1972.74 134.664 1972.48 139.528 1972.22 144.392C1971.46 156.424 1968.9 168.456 1962.75 178.952C1955.58 191.24 1939.46 205.32 1932.8 209.928C1944.83 204.296 1959.42 199.176 1963.01 187.912C1959.17 198.152 1956.35 211.464 1946.62 223.496C1953.79 219.656 1959.94 214.792 1965.31 209.16L1965.57 208.904C1960.45 240.136 1940.48 262.664 1925.38 275.208C1918.72 267.016 1913.09 257.8 1907.2 248.584C1916.93 253.448 1927.68 257.032 1938.18 260.36C1914.37 241.16 1896.45 214.024 1881.6 188.936C1876.48 181 1871.87 172.808 1867.78 164.616C1874.18 167.944 1881.34 170.504 1887.74 172.04C1880.32 166.152 1871.36 157.704 1869.31 149.256C1877.76 161.288 1899.26 162.824 1914.88 162.056C1894.66 155.912 1868.8 141.832 1856.51 127.496C1846.53 115.464 1843.97 98.3122 1838.34 85.2562L1838.59 86.7921C1839.62 98.3121 1837.57 110.344 1833.73 121.096C1825.79 141.576 1811.2 154.376 1791.49 167.432C1789.7 168.712 1787.14 169.48 1785.09 170.76C1799.68 171.528 1813.25 167.944 1821.44 157.192C1815.81 167.944 1814.78 174.344 1802.24 182.792C1812.48 181.512 1820.42 176.904 1826.3 171.016C1822.46 201.224 1806.34 231.432 1784.58 256.008C1771.52 247.56 1746.94 224.776 1742.59 202.76C1740.29 192.008 1737.22 181.768 1736.96 170.504L1736.45 182.28C1736.7 187.144 1736.45 192.008 1736.19 196.872C1735.42 208.904 1732.86 220.936 1726.72 231.432C1719.55 243.72 1703.42 257.8 1696.77 262.408C1708.8 256.776 1723.39 251.656 1726.98 240.392C1723.14 250.632 1720.32 263.944 1710.59 275.976C1717.76 272.136 1723.9 267.272 1729.28 261.64L1729.54 261.384C1726.21 281.352 1716.99 297.736 1706.75 310.28C1699.07 305.416 1691.9 299.528 1687.81 293.64C1681.92 285.448 1681.41 274.184 1678.34 265.48V266.504C1678.34 273.928 1676.29 281.608 1673.47 288.264C1667.33 300.808 1657.6 308.232 1644.54 315.656C1641.98 312.072 1639.42 308.488 1637.12 304.904C1632.77 297.736 1628.67 289.544 1626.88 285.96C1633.79 293.128 1643.01 299.016 1655.04 298.504C1647.36 295.688 1617.15 268.808 1612.29 242.952C1610.24 232.456 1607.68 222.216 1607.42 211.464L1607.17 222.984C1607.42 227.848 1607.17 232.456 1606.91 237.32C1606.4 249.096 1604.1 260.872 1598.46 271.368C1592.32 283.4 1577.73 297.224 1571.84 301.832C1582.59 296.456 1595.39 291.336 1598.46 280.328C1595.14 290.312 1592.58 303.368 1583.87 315.144C1590.02 311.304 1595.65 306.696 1600.51 301.064C1600.51 301.064 1600.51 300.808 1600.77 300.808C1595.14 339.72 1568 364.552 1555.71 374.024C1571.58 370.696 1583.1 365.32 1593.6 355.336C1590.27 371.976 1585.15 388.36 1577.98 403.208C1576.96 405.768 1575.42 408.584 1574.14 411.4C1559.55 398.344 1548.03 380.936 1538.56 364.808C1534.98 359.176 1531.9 353.544 1528.83 347.656C1533.44 349.96 1538.3 351.752 1542.91 352.776C1537.54 348.68 1531.39 342.792 1529.86 336.904C1535.74 345.352 1550.85 346.376 1561.6 345.864C1547.52 341.512 1529.34 331.784 1520.9 321.8C1513.73 313.352 1512.19 301.32 1508.35 292.104V293.128C1509.12 301.064 1507.58 309.768 1505.02 317.192C1499.39 331.528 1489.15 340.488 1475.58 349.704C1474.3 350.728 1472.51 350.984 1471.23 352.008C1481.47 352.52 1490.94 350.216 1496.58 342.536C1492.48 349.96 1491.97 354.568 1483.26 360.456C1490.43 359.688 1496.06 356.36 1500.16 352.264C1498.62 363.784 1494.53 375.56 1488.64 386.312C1475.58 377.608 1456.64 353.8 1442.56 335.368C1437.95 328.456 1433.86 320.776 1431.81 317.448C1438.98 324.104 1448.7 329.736 1461.25 329.224C1453.31 326.664 1421.57 301.064 1416.45 276.744C1414.4 266.76 1411.58 257.032 1411.33 246.792L1411.07 257.8C1411.33 262.408 1411.07 266.76 1410.82 271.368C1410.3 282.632 1407.74 293.64 1402.11 303.624C1395.46 315.144 1380.35 328.2 1374.21 332.296C1385.47 327.176 1399.04 322.312 1402.11 311.816C1398.53 321.288 1395.71 333.832 1387.01 345.096C1393.66 341.512 1399.55 337.16 1404.42 331.784C1404.42 331.784 1404.42 331.528 1404.67 331.528C1401.6 351.496 1391.87 367.368 1381.63 379.4C1377.54 372.232 1374.46 364.552 1371.14 356.872C1377.02 360.968 1383.68 364.296 1390.08 365.064C1388.29 363.528 1385.98 361.736 1384.19 360.2C1369.86 347.912 1358.34 331.272 1354.75 314.12C1358.08 316.936 1362.18 318.984 1367.55 319.24C1360.64 315.4 1359.87 312.072 1356.54 306.952C1361.15 312.328 1368.32 313.608 1375.74 312.584C1374.72 311.816 1373.44 311.816 1372.42 311.048C1361.66 305.16 1353.73 299.016 1348.61 288.776C1346.3 283.4 1344.77 277.256 1344.77 271.368V270.6C1342.46 277.512 1341.95 286.728 1337.09 293.128C1331.46 301.064 1318.66 309.256 1308.42 313.352C1316.61 313.096 1327.36 311.56 1331.46 304.904C1330.69 309.512 1326.59 314.12 1322.75 317.448C1326.08 316.424 1329.66 314.632 1332.74 312.84C1330.94 317.192 1328.9 321.8 1326.59 326.152C1323.01 333.32 1319.17 341 1314.3 348.168C1295.87 335.624 1272.32 309.768 1254.4 289.544C1248.26 281.352 1242.62 272.392 1239.81 268.04C1250.05 276.232 1264.38 283.4 1283.58 283.912C1271.81 280.328 1225.73 248.584 1220.86 220.424C1218.82 208.904 1215.49 197.64 1216.26 185.864L1214.46 198.408C1214.21 203.528 1213.44 208.648 1212.42 213.768C1210.11 226.568 1205.25 238.856 1195.26 249.864C1184 262.408 1159.17 275.976 1149.18 280.328C1166.85 275.464 1188.35 270.856 1194.5 259.336C1188.1 270.088 1182.46 283.912 1167.36 295.944C1177.86 292.36 1187.33 287.752 1195.52 282.12L1195.78 281.864C1182.46 323.592 1136.38 347.912 1115.65 356.872C1141.5 354.568 1160.7 349.704 1178.62 339.976C1171.46 357.64 1161.47 375.048 1148.42 390.408C1147.39 391.688 1146.11 393.224 1144.83 394.76C1143.04 393.224 1140.99 391.688 1139.46 390.408C1117.95 372.232 1100.8 347.912 1095.42 322.568C1100.29 326.664 1106.69 329.736 1114.62 329.992C1104.38 324.36 1103.36 319.752 1098.24 311.816C1105.15 319.752 1115.65 321.544 1126.91 320.008C1125.38 318.984 1123.33 318.728 1121.79 317.704C1105.92 309 1093.89 300.04 1086.46 284.936C1082.88 277 1080.58 268.04 1080.58 259.08V257.8C1076.99 268.296 1076.22 281.352 1069.31 291.08C1060.86 302.6 1041.66 314.888 1026.56 321.032C1038.59 320.776 1054.98 318.216 1060.86 308.488C1059.58 315.144 1053.44 322.056 1048.06 327.176C1052.93 325.384 1058.3 323.08 1063.17 320.264C1060.61 326.92 1057.54 333.32 1053.95 339.72C1044.22 359.176 1032.45 380.424 1016.32 396.296C1014.27 393.224 1012.48 389.896 1010.69 386.056C1009.92 384.52 1009.41 382.984 1008.64 381.448C1012.48 383.24 1017.09 384.008 1022.98 383.752C1015.55 379.912 1008.9 375.304 1003.52 368.648C1003.52 368.392 1003.26 368.392 1003.26 368.136C1003.01 367.368 1002.75 366.344 1002.5 365.576C1008.38 371.208 1018.62 378.12 1025.28 374.536C1017.09 372.232 1001.47 347.912 990.72 329.992C987.648 324.36 984.832 317.96 983.552 315.144C988.16 320.776 994.816 325.384 1003.01 324.872C997.632 322.824 976.64 301.576 973.312 281.352C972.032 273.16 969.984 264.968 969.984 256.52L969.728 265.736C969.728 269.576 969.728 273.16 969.472 277C968.96 286.216 967.424 295.432 963.584 303.624C959.232 313.096 949.248 323.848 945.152 327.432C952.576 323.08 961.536 318.984 963.584 310.536C961.28 318.472 959.488 328.712 953.6 337.928C957.952 335.112 961.792 331.272 965.12 326.92C965.12 326.92 965.12 326.92 965.12 326.664C962.304 348.424 952.064 364.552 943.104 374.792C918.784 353.544 899.584 325.128 893.44 295.688C899.072 300.552 906.752 304.136 916.224 304.648C904.192 297.992 902.912 292.36 897.024 282.888C905.216 292.36 917.76 294.408 931.072 292.616C929.28 291.592 926.976 291.08 925.184 290.056C906.496 279.56 892.16 269.064 883.456 250.888C879.36 241.416 876.544 230.664 876.544 220.168V218.632C872.448 230.92 871.424 246.792 863.232 258.312C853.248 272.136 830.72 286.984 812.8 293.896C827.136 293.64 846.336 290.568 853.248 278.792C851.968 286.728 844.544 294.92 838.144 301.064C844.032 299.016 850.176 296.2 855.808 292.872C852.736 300.808 849.152 308.488 845.056 316.168C836.608 333.576 826.624 352.264 814.08 368.392C800.768 356.872 784.128 335.624 771.328 318.984C766.464 311.56 761.856 303.368 759.808 299.784C767.488 306.952 777.728 312.84 791.296 312.584C782.848 309.768 748.8 282.376 743.424 256.52C741.12 245.768 738.304 235.528 737.792 224.52L737.28 236.296C737.536 241.16 737.28 246.024 737.024 250.888C736.256 262.92 733.696 274.696 727.552 285.448C720.64 297.736 704.512 311.816 697.6 316.168C709.632 310.536 723.968 305.416 727.552 294.408C723.968 304.648 720.896 317.96 711.424 329.736C718.336 325.896 724.736 321.288 729.856 315.4L730.112 315.144C726.272 339.464 712.96 358.408 700.416 371.72C689.92 362.76 677.376 348.424 674.56 334.6C672.768 325.896 670.208 317.192 669.952 308.232L669.696 317.96C669.696 322.056 669.696 325.896 669.44 329.992C668.928 339.976 666.624 349.704 661.76 358.408C659.712 361.992 656.384 366.088 653.056 369.672C642.816 359.944 632.576 346.12 628.224 328.2C628.224 328.2 628.224 328.2 628.48 328.456C633.088 332.808 638.464 336.392 644.352 338.952C635.904 329.992 632.832 319.496 629.248 311.304C632.576 320.008 644.608 323.336 654.592 327.176C648.96 323.848 635.136 313.608 628.736 304.136C623.104 295.944 620.288 286.472 619.264 277C618.752 273.16 618.24 269.32 618.24 265.224L617.216 255.752C617.472 264.712 615.68 273.16 614.656 281.864C611.84 303.112 585.984 327.176 579.328 329.992C590.336 329.48 598.272 324.104 603.904 317.96C602.368 321.032 599.296 327.944 595.712 334.088C583.168 353.288 565.248 379.4 554.752 383.496C553.728 382.216 552.96 381.192 551.936 379.912C549.376 376.328 547.072 372.232 546.048 370.184C549.888 373.768 555.008 376.584 561.664 376.584C557.312 375.304 540.416 361.48 537.856 348.68C536.832 343.304 535.296 338.184 535.04 332.808L534.784 338.696C534.784 341 534.784 343.56 534.528 345.864C534.272 351.752 532.992 357.64 529.92 363.016C526.336 369.16 518.4 376.072 515.072 378.376C520.96 375.56 528.128 373 529.92 367.624C528.128 372.744 526.592 379.4 521.728 385.288C525.312 383.496 528.384 380.936 530.944 378.12C529.92 384.52 527.616 390.152 524.8 395.272C508.928 377.608 496.896 356.616 492.288 335.112C497.664 339.72 504.576 343.048 513.536 343.304C502.272 336.904 500.992 331.784 495.36 322.824C503.04 331.528 514.816 333.832 527.104 332.04C525.312 331.016 523.264 330.76 521.472 329.48C503.808 319.496 490.496 309.768 482.304 292.872C478.464 284.168 475.904 273.928 475.904 263.944V262.408C472.064 273.928 471.296 288.776 463.36 299.784C453.888 312.84 432.896 326.664 416 333.32C429.312 333.064 447.488 330.248 453.888 319.24C452.608 326.664 445.696 334.344 439.808 339.976C445.184 338.184 451.072 335.368 456.448 332.296C453.376 339.72 450.048 346.888 446.464 354.056C437.248 372.744 426.24 392.968 411.904 409.608C401.664 399.88 393.728 388.616 388.352 374.536C387.584 372.488 386.816 370.44 386.048 368.136C391.936 371.208 399.104 373.512 408.576 374.536C397.312 367.88 387.584 360.2 380.416 350.472C380.416 350.216 380.16 349.96 380.16 349.704C379.648 348.68 379.392 347.4 379.392 346.12C387.584 354.568 402.688 365.832 413.952 363.272C401.408 358.408 381.184 323.336 367.36 297.992C363.52 290.056 360.448 281.352 358.912 277.256C365.312 285.448 374.784 292.872 388.096 294.408C380.16 290.312 350.464 258.312 349.184 231.688C348.672 220.68 347.136 210.184 348.416 199.176L346.368 210.696C345.856 215.56 345.088 220.168 343.808 225.032C341.248 236.808 336.896 248.072 329.472 257.8C320.768 268.808 302.592 280.328 295.424 283.656C307.968 280.072 323.072 277 328.192 266.504C323.072 275.976 317.952 288.776 306.944 299.016C314.368 296.2 321.536 292.616 327.424 287.496L327.68 287.24C318.72 315.4 297.728 333.832 281.6 344.584C278.016 335.88 275.456 326.664 273.92 317.448C277.76 321.8 282.88 324.872 289.28 325.128C281.088 319.24 280.32 314.376 276.224 306.184C281.856 314.376 290.304 316.424 299.264 314.632C297.984 313.608 296.448 313.352 295.168 312.328C282.368 303.112 272.64 294.152 266.752 278.28C263.936 270.088 262.144 260.616 262.144 251.4V250.12C259.328 260.872 258.816 274.696 253.184 284.68C248.832 292.36 240.896 300.552 232.448 306.952C214.784 291.08 194.816 266.504 187.392 232.968L187.648 233.224C194.56 240.136 202.752 245.768 211.456 250.12C198.656 235.528 193.792 218.632 188.416 205.576C193.536 219.656 211.712 225.032 226.816 231.176C218.112 226.056 197.12 209.16 187.648 194.056C179.2 180.744 175.104 165.64 173.056 150.28C172.288 144.136 171.52 137.736 171.264 131.336L169.728 116.232C170.24 130.568 167.424 144.136 165.888 158.216C161.536 192.52 122.624 231.176 112.384 235.784C128.768 235.016 141.056 226.312 149.76 216.328C147.456 221.448 142.848 232.456 137.472 242.44C118.016 274.184 90.1118 317.448 74.4958 322.568C88.0638 327.176 107.52 314.12 118.272 303.88C118.016 305.416 117.504 307.208 116.992 308.488C116.992 308.744 116.736 309 116.736 309.256C107.008 321.032 94.7199 329.992 80.1279 337.672C91.9039 337.16 100.864 335.112 108.288 331.528C107.264 334.344 105.984 336.904 104.704 339.464C99.5838 350.984 93.1838 360.968 85.5038 369.672C70.3998 348.68 58.8798 323.08 54.7838 296.968C59.3918 302.088 65.5358 306.184 73.2158 306.44C63.4878 299.272 62.4639 293.128 57.5999 283.144C64.2559 293.128 74.2399 295.688 85.2479 293.64C83.7119 292.36 81.9198 292.104 80.3838 290.824C65.0238 279.56 53.5039 268.296 46.5919 248.84C43.2639 238.856 40.9599 227.08 40.9599 215.816V214.28C37.6319 227.592 36.8639 244.488 30.2079 257.032C22.0159 271.88 3.83985 287.752 -10.7521 295.432C0.767855 294.92 16.3838 291.848 22.0158 279.304C20.9918 287.752 14.8479 296.712 9.72786 303.112C14.3359 301.064 19.4558 297.992 24.0638 294.152C21.5038 302.6 18.4319 311.048 15.3599 319.24C5.88789 344.584 -5.37618 372.232 -21.5042 392.712C-26.1122 385.288 -29.9522 377.096 -33.0242 367.88C-33.7922 365.32 -34.5602 362.76 -35.5842 360.2C-29.4402 364.04 -22.0161 366.6 -12.2881 367.88C-24.0641 359.944 -34.0481 350.984 -41.4721 339.208C-41.4721 338.952 -41.7281 338.696 -41.7281 338.44C-42.2401 337.16 -42.4962 335.624 -42.4962 334.088C-33.7922 344.072 -18.4322 357.64 -6.65621 354.312C-19.7122 348.424 -40.4481 306.952 -55.0401 276.488C-58.8801 267.016 -62.2082 256.52 -63.7442 251.656C-57.0882 261.384 -47.3602 270.344 -33.5362 272.136C-41.7282 267.272 -72.4482 229.128 -73.9842 197.64C-74.4962 184.584 -76.0321 172.04 -74.7521 158.984L-77.0562 172.808C-77.5682 178.44 -78.5922 184.328 -79.6162 189.96C-82.1762 204.04 -86.7842 217.352 -94.4642 228.872C-103.424 241.928 -122.368 255.752 -129.792 259.848C-116.736 255.496 -101.12 251.912 -95.7442 239.368C-101.12 250.888 -106.24 265.736 -117.76 278.28C-110.08 275.208 -102.656 270.6 -96.5121 264.712L-96.2562 264.456C-105.472 297.736 -126.976 319.752 -143.872 332.552C-152.32 328.456 -182.784 299.016 -185.6 273.416C-186.88 262.664 -188.928 252.424 -188.16 241.416L-189.696 252.936C-189.952 257.8 -190.464 262.408 -191.232 267.272C-193.024 279.048 -196.608 290.312 -203.52 300.296C-211.456 311.56 -228.608 324.104 -235.52 327.944C-223.232 323.592 -208.64 319.752 -204.288 309C-208.896 318.728 -212.992 331.528 -223.232 342.28C-216.064 339.208 -209.408 335.112 -203.776 329.736L-203.52 329.48C-213.248 367.624 -245.248 389.896 -259.584 397.832C-241.92 396.04 -228.608 391.688 -216.064 382.984C-221.184 399.112 -228.352 414.984 -237.568 429.32C-239.36 432.136 -241.408 435.464 -243.712 438.792C-256.768 421.384 -266.24 398.856 -273.92 378.12C-276.736 371.208 -279.296 364.04 -281.6 356.616C-277.504 359.944 -273.152 362.504 -268.8 364.296C-273.408 358.664 -278.528 351.24 -279.552 343.816C-274.688 354.568 -260.864 357.384 -250.624 357.896C-263.424 351.24 -279.552 337.672 -286.72 324.872C-292.608 314.12 -293.12 299.784 -295.936 288.264V289.544C-295.936 299.272 -297.984 309.256 -301.056 317.704C-307.456 334.344 -317.696 343.816 -331.52 353.288C-332.8 354.312 -334.592 354.568 -335.872 355.592C-326.4 357.384 -317.44 355.336 -311.296 346.888C-315.648 355.592 -316.672 360.712 -325.376 366.856C-318.464 366.6 -313.088 363.272 -308.992 358.92C-313.6 386.568 -328.704 413.448 -346.88 433.16C-349.184 435.464 -351.744 438.024 -354.048 440.328C-365.312 434.44 -375.04 427.784 -382.464 418.824C-382.464 418.568 -382.72 418.312 -382.72 418.056C-383.232 417.032 -383.488 415.752 -383.744 414.472C-375.04 422.408 -359.68 432.392 -348.672 429.32C-361.216 425.224 -383.232 392.2 -398.592 367.88C-402.688 360.2 -406.528 351.752 -408.32 347.912C-401.408 355.592 -391.68 362.248 -378.624 363.016C-386.816 359.432 -417.792 329.736 -420.608 303.624C-421.888 292.872 -423.936 282.632 -423.168 271.88L-424.704 283.4C-424.96 288.264 -425.472 292.872 -426.24 297.736C-428.032 309.512 -431.616 320.776 -438.528 330.76C-446.464 342.024 -463.616 354.568 -470.528 358.408C-458.24 354.056 -443.648 350.216 -439.296 339.464C-443.904 349.192 -448 361.992 -458.24 372.744C-451.072 369.672 -444.416 365.576 -438.784 360.2L-438.528 359.944C-445.184 386.312 -462.336 405 -477.184 416.52C-483.328 403.72 -488.192 390.152 -492.288 377.096C-494.592 370.44 -496.64 363.784 -498.176 356.872C-494.336 360.2 -489.984 363.016 -486.144 365.064C-490.24 359.688 -494.848 352.264 -495.36 345.352C-491.264 355.592 -477.696 359.432 -467.456 360.456C-479.744 353.288 -494.848 339.464 -500.992 327.176C-506.112 316.936 -505.6 303.624 -507.648 292.872V294.152C-508.416 303.112 -511.232 312.072 -514.816 319.496C-522.496 334.088 -533.504 342.024 -547.84 349.704C-549.12 350.472 -550.912 350.728 -552.448 351.496C-542.976 353.8 -534.016 352.776 -527.36 345.352C-532.224 352.776 -533.76 357.64 -542.72 362.504C-535.808 362.76 -530.176 360.2 -525.824 356.616C-530.688 374.28 -540.416 391.176 -552.96 405.512C-556.032 400.392 -559.104 395.016 -561.408 388.872C-562.432 386.568 -563.2 384.264 -564.224 381.96C-558.336 385.032 -550.912 386.824 -541.44 387.592C-553.216 380.936 -563.2 373.256 -570.88 363.016C-570.88 362.76 -571.136 362.504 -571.136 362.248C-571.648 361.224 -571.904 359.688 -572.16 358.408C-563.456 367.112 -547.84 378.632 -536.576 375.048C-549.376 370.44 -571.648 333.064 -587.008 305.928C-591.104 297.48 -594.944 287.752 -596.736 283.4C-589.824 292.104 -580.096 299.528 -566.528 300.552C-574.72 296.712 -606.208 263.176 -609.024 233.736C-610.304 221.704 -612.352 209.928 -611.84 197.896L-613.376 210.952C-613.632 216.328 -614.144 221.704 -614.912 227.08C-616.704 240.392 -620.288 253.192 -627.2 264.2C-635.136 277 -652.544 291.08 -659.712 295.176C-647.424 290.312 -632.576 285.96 -627.968 273.928C-632.576 284.936 -636.672 299.272 -647.168 311.56C-639.744 307.976 -633.088 303.368 -627.456 297.48L-627.2 297.224C-635.904 335.624 -662.528 359.432 -678.656 370.696C-683.264 362.248 -687.616 353.8 -691.712 345.608C-695.552 338.184 -698.88 330.76 -701.952 323.08C-696.576 326.408 -690.432 329.224 -684.8 331.272C-690.944 325.384 -697.856 317.448 -699.136 309.768C-692.48 321.032 -674.048 324.104 -660.224 324.616C-677.376 317.704 -699.136 303.368 -708.608 289.8C-716.544 278.536 -717.312 263.176 -721.152 251.144V252.68C-721.152 262.92 -723.968 273.416 -728.064 282.376C-736.512 299.784 -750.336 309.768 -768.768 319.752C-770.56 320.776 -772.864 321.288 -774.656 322.312C-761.856 324.104 -749.824 322.056 -741.888 313.096C-747.776 322.056 -749.056 327.432 -760.576 334.088C-751.36 333.832 -744.192 330.248 -738.56 325.64C-744.96 354.824 -764.672 382.984 -789.248 403.464C-790.272 404.232 -791.296 405 -792.32 406.024C-795.648 401.416 -798.72 396.552 -801.024 390.92C-801.792 389.128 -802.816 387.08 -803.584 385.288C-797.952 387.848 -791.296 389.384 -782.592 389.896C-793.344 384.264 -802.56 378.12 -809.728 369.416C-809.728 369.16 -809.984 368.904 -809.984 368.904C-810.496 367.88 -810.752 366.856 -811.008 365.576C-802.816 372.744 -788.736 382.472 -778.24 379.4C-790.016 375.56 -810.496 344.84 -824.576 322.056C-828.416 314.888 -832 307.208 -833.536 303.624C-827.136 310.792 -818.176 316.936 -805.888 317.704C-813.312 314.376 -842.24 286.728 -845.056 262.408C-846.336 252.424 -848.128 242.696 -847.616 232.712L-848.896 243.464C-849.152 247.816 -849.664 252.424 -850.432 256.776C-851.968 267.784 -855.296 278.28 -861.696 287.496C-869.12 297.992 -884.992 309.768 -891.648 313.096C-880.384 309 -866.56 305.416 -862.464 295.688C-866.56 304.648 -870.4 316.68 -880.128 326.664C-873.472 323.848 -867.328 320.008 -861.952 315.144C-861.952 315.144 -861.952 315.144 -861.696 314.888C-869.12 344.584 -890.88 363.528 -905.728 373.512C-915.968 359.944 -922.624 344.072 -930.048 328.968C-920.064 335.624 -908.544 340.488 -897.792 341.256C-900.864 338.952 -904.704 335.88 -908.032 333.576C-932.864 314.12 -953.344 287.24 -960.512 258.824C-954.88 263.176 -947.712 266.248 -938.752 266.248C-950.272 260.36 -951.808 254.984 -957.952 246.28C-949.76 254.728 -937.984 256.52 -925.44 254.216C-927.232 253.192 -929.536 252.936 -931.072 251.912C-949.248 242.696 -963.328 233.224 -972.288 216.584C-976.64 207.88 -979.712 197.64 -979.968 187.656V186.12C-983.296 198.152 -983.552 213 -990.976 224.264C-999.936 237.832 -1020.67 252.68 -1037.31 260.104C-1023.74 259.08 -1005.57 255.496 -999.68 244.232C-1000.7 251.656 -1007.36 259.848 -1013.25 265.736C-1007.87 263.688 -1001.98 260.616 -996.864 257.288C-999.424 264.968 -1002.75 272.392 -1006.08 279.816C-1013.25 296.456 -1021.95 314.12 -1032.96 329.992C-1040.9 321.288 -1047.55 311.304 -1052.93 299.784C-1053.95 297.224 -1055.23 294.664 -1056.26 292.104C-1048.83 295.432 -1040.13 297.48 -1028.35 298.248C-1042.69 290.824 -1054.98 282.376 -1064.45 271.112C-1064.45 270.856 -1064.7 270.6 -1064.7 270.344C-1065.22 269.064 -1065.73 267.528 -1065.98 265.992C-1055.23 275.72 -1036.29 288.264 -1022.46 284.168C-1038.08 279.048 -1065.22 238.088 -1084.16 208.136C-1089.28 198.664 -1093.89 188.424 -1095.94 183.56C-1087.49 193.032 -1075.46 201.48 -1059.07 202.504C-1069.06 198.152 -1107.46 161.288 -1111.3 129.032C-1112.83 115.72 -1115.39 102.92 -1114.62 89.6082L-1116.42 103.944C-1116.67 109.832 -1117.44 115.72 -1118.46 121.608C-1120.51 136.2 -1125.12 150.28 -1133.57 162.568C-1143.3 176.648 -1164.54 192.008 -1173.25 196.616C-1158.14 191.24 -1139.97 186.376 -1134.59 173.32C-1140.22 185.352 -1145.34 201.224 -1158.14 214.536C-1149.18 210.696 -1140.99 205.576 -1134.08 199.176L-1133.82 198.92C-1138.43 217.352 -1147.39 232.712 -1157.38 245.256C-1158.91 244.488 -1160.45 243.976 -1161.98 242.952C-1178.62 231.688 -1191.17 220.68 -1197.82 203.016C-1200.9 193.8 -1202.69 183.56 -1201.66 173.576V172.296C-1206.53 183.56 -1208.83 198.152 -1217.28 208.392C-1227.78 220.424 -1250.05 232.456 -1267.46 237.576C-1254.14 238.344 -1235.97 237.32 -1228.54 226.824C-1230.59 233.992 -1238.02 241.16 -1244.42 246.28C-1238.78 245 -1232.64 242.696 -1227.26 240.136C-1230.85 247.304 -1234.94 254.216 -1239.3 260.872C-1250.82 279.816 -1264.38 300.296 -1281.54 315.912C-1288.19 304.904 -1293.57 292.872 -1297.41 279.56C-1298.43 276.232 -1299.2 272.648 -1300.22 269.32C-1291.52 275.208 -1280.51 279.304 -1265.92 282.376C-1282.56 270.344 -1296.64 257.288 -1306.62 240.904C-1306.62 240.648 -1306.88 240.136 -1306.88 239.624C-1307.39 237.832 -1307.65 236.04 -1307.65 233.992C-1295.87 248.328 -1274.11 268.04 -1255.94 265.48C-1274.88 256.008 -1301.5 198.664 -1319.68 156.936C-1324.29 143.88 -1328.38 129.8 -1330.18 123.4C-1321.22 137.224 -1307.65 150.024 -1286.91 154.376C-1298.94 146.952 -1340.42 92.6801 -1339.14 50.9521C-1338.62 33.8001 -1339.39 16.9042 -1335.81 0.26416L-1340.67 17.9281C-1342.21 25.3521 -1344.26 32.7762 -1346.56 39.9442C-1351.94 58.1202 -1360.38 75.0162 -1373.7 89.0962C-1388.8 104.968 -1418.75 120.584 -1430.78 124.936C-1410.56 121.096 -1386.5 118.28 -1377.02 102.664C-1386.5 117 -1395.97 135.944 -1414.91 150.536C-1402.88 147.464 -1391.36 142.344 -1381.38 135.688C-1381.38 135.688 -1381.12 135.432 -1380.86 135.432C-1405.18 193.288 -1460.99 220.424 -1485.31 229.64C-1456.9 230.92 -1435.14 227.592 -1413.38 216.584C-1425.41 240.904 -1440.26 264.2 -1458.18 284.168C-1473.54 301.832 -1501.7 334.856 -1527.81 335.368C-1517.57 335.624 -1507.33 335.88 -1497.6 332.04C-1486.08 327.688 -1463.81 318.216 -1456.9 307.72C-1465.86 327.688 -1490.94 356.872 -1518.85 372.744C-1508.1 373.256 -1469.7 354.824 -1457.15 347.4C-1459.97 354.056 -1462.78 360.2 -1465.6 365.576C-1484.03 397.576 -1501.95 420.872 -1556.74 442.632C-1549.82 442.376 -1524.48 440.072 -1516.03 436.744C-1530.62 448.264 -1550.08 456.712 -1582.08 462.6C-1525.25 478.728 -1481.47 462.088 -1460.74 437.512C-1469.44 455.944 -1493.25 488.456 -1511.94 500.232C-1486.59 496.392 -1453.31 470.792 -1443.07 452.872C-1449.98 470.792 -1452.8 489.48 -1465.86 504.84C-1447.17 493.832 -1424.64 477.704 -1414.4 458.248C-1415.68 478.216 -1420.29 498.696 -1422.59 518.664C-1415.17 512.008 -1407.23 503.816 -1400.83 494.344V1494.28H2056.19V449.288C2059.78 451.336 2063.87 452.616 2067.97 453.128C2063.87 448.52 2060.03 443.656 2056.19 438.792V428.808C2064.38 435.208 2074.37 440.328 2083.07 443.144C2077.18 433.928 2068.48 423.944 2066.18 412.168C2078.21 426.504 2097.41 444.424 2118.14 439.816C2104.06 427.784 2087.68 417.8 2077.44 401.672C2090.75 414.472 2111.23 424.968 2131.71 421.896ZM-358.912 480.52C-358.144 481.288 -357.12 481.8 -356.352 482.568C-356.608 482.824 -356.608 483.08 -356.864 483.336C-357.376 482.312 -358.144 481.544 -358.912 480.52ZM-19.9681 414.984C-19.4561 415.752 -18.6882 416.264 -18.1762 417.032C-18.1762 417.288 -18.4321 417.544 -18.4321 417.8C-18.9441 416.776 -19.4561 416.008 -19.9681 414.984ZM662.272 383.496H662.528C660.992 393.224 657.408 401.928 653.056 409.608C647.68 400.904 643.328 391.688 639.744 381.96C642.304 380.936 644.608 379.656 647.168 378.376C649.728 379.4 652.288 380.424 654.848 381.448C653.056 386.056 650.496 390.664 646.912 395.016C653.056 391.944 658.176 388.104 662.272 383.496ZM822.528 377.864C820.992 380.936 819.456 384.008 817.664 386.824C814.08 385.288 810.496 383.496 807.424 381.704C810.24 380.424 813.056 379.144 815.872 377.864C818.176 378.12 820.48 378.12 822.528 377.864ZM-1035.01 348.424C-1033.98 349.448 -1032.7 350.216 -1031.68 351.24C-1031.94 351.496 -1031.94 352.008 -1032.19 352.264C-1033.22 350.728 -1034.24 349.704 -1035.01 348.424ZM-932.608 475.912L-939.52 474.12C-939.264 472.072 -938.752 470.024 -938.24 468.232C-936.704 470.536 -934.656 473.096 -932.608 475.912ZM-916.48 457.736C-916.224 457.992 -915.968 457.992 -915.712 458.248C-915.968 458.504 -916.48 459.016 -916.736 459.272C-916.736 458.76 -916.48 458.248 -916.48 457.736ZM-894.464 424.2C-893.952 423.432 -893.44 422.664 -893.184 422.152C-893.44 422.92 -893.696 423.944 -893.952 424.968C-894.208 424.456 -894.208 424.456 -894.464 424.2ZM-660.992 427.528C-660.992 427.528 -660.992 427.272 -660.992 427.528C-660.992 427.016 -660.736 426.76 -660.736 426.504C-660.736 426.76 -660.736 427.272 -660.992 427.528ZM-783.104 455.688C-783.36 455.944 -783.616 456.456 -783.616 456.712V456.456C-783.616 456.2 -783.36 455.944 -783.104 455.688ZM-469.248 504.584C-469.504 503.56 -469.76 502.28 -470.272 501.256C-469.504 500.488 -468.736 499.976 -467.968 499.464C-468.224 501.256 -468.736 502.792 -469.248 504.584ZM-829.184 506.12C-828.928 506.888 -828.672 507.4 -828.16 508.168H-829.44C-829.44 507.656 -829.184 506.888 -829.184 506.12ZM404.736 446.216C403.712 442.632 402.944 438.792 402.688 435.464C404.224 436.744 406.272 438.024 408.576 439.56C407.296 441.608 406.016 443.912 404.736 446.216ZM-142.08 405.768C-141.568 406.024 -140.8 406.28 -140.288 406.536C-140.544 407.304 -141.056 408.072 -141.312 408.84C-141.824 407.816 -142.08 407.048 -142.592 406.024C-142.336 406.024 -142.08 405.768 -142.08 405.768ZM-101.12 511.24H-101.376C-101.376 510.984 -101.12 510.728 -101.12 510.472C-101.12 510.984 -101.12 511.24 -101.12 511.24ZM81.1519 391.432C81.1519 391.176 81.1518 391.176 80.8958 390.92C81.4078 390.664 81.6638 390.152 82.1758 389.896C81.9198 390.408 81.4079 390.92 81.1519 391.432ZM-355.84 505.864C-356.096 504.584 -356.352 503.048 -356.608 501.768C-355.84 502.28 -355.072 502.792 -354.304 503.304C-354.56 504.072 -355.328 504.84 -355.84 505.864ZM647.68 442.12C648.704 442.888 649.984 443.912 651.52 445.192C651.008 446.728 650.496 448.52 649.728 450.056C649.216 447.496 648.448 444.936 647.68 442.12ZM655.36 432.648C654.848 431.88 654.592 431.112 654.336 430.344C655.104 429.832 655.872 429.32 656.384 428.552C655.872 429.832 655.616 431.112 655.36 432.648ZM809.728 399.88C809.472 400.392 809.216 400.648 808.704 401.16C806.4 398.088 804.352 395.016 802.56 391.688C801.536 389.64 800.256 387.848 799.232 385.8C804.096 387.592 809.728 388.616 816.64 388.872C814.592 392.712 812.288 396.552 809.728 399.88ZM564.48 407.56C563.2 406.536 562.176 405.768 560.896 404.488C560.896 404.488 560.896 404.232 560.64 404.232C560.384 403.72 560.128 403.208 559.872 402.44C561.408 403.464 563.2 404.744 565.248 406.024C565.248 406.536 564.736 407.048 564.48 407.56ZM944.896 438.792C944.384 439.816 943.872 441.096 943.36 442.12C941.568 439.56 940.032 437 938.496 434.44C938.752 434.184 939.008 433.928 939.264 433.672C941.056 435.464 942.848 437.256 944.896 438.792ZM954.112 444.424C953.856 445.192 953.856 446.216 953.6 446.984C953.088 449.288 952.576 451.336 952.064 453.64C950.016 451.336 948.224 449.032 946.432 446.728C947.968 445.448 949.248 443.912 950.528 442.632C951.808 443.144 952.832 443.912 954.112 444.424ZM1386.75 476.936C1384.7 475.912 1382.66 474.632 1380.61 473.096C1384.19 470.28 1387.26 467.464 1389.06 465.672C1388.54 469.768 1387.78 473.608 1386.75 476.936ZM1361.66 447.752C1361.66 447.752 1361.66 447.496 1361.41 447.496C1361.41 447.496 1361.41 447.496 1361.41 447.24C1361.41 446.984 1361.41 446.728 1361.66 446.216C1363.46 447.496 1365.76 448.776 1368.06 449.8C1367.55 450.312 1367.3 451.08 1366.78 451.592C1364.99 450.568 1363.2 449.288 1361.66 447.752ZM1378.82 486.152C1379.07 486.152 1379.33 486.408 1379.58 486.664H1378.82C1378.82 486.408 1378.82 486.408 1378.82 486.152ZM1367.81 459.528C1368.83 458.76 1370.11 457.736 1371.39 456.712C1372.93 456.968 1374.72 456.968 1376.77 456.968C1375.49 456.456 1374.46 455.944 1373.18 455.432C1373.95 454.92 1374.46 454.152 1375.23 453.64C1376.51 454.408 1377.54 455.176 1378.82 455.432C1378.56 453.896 1378.05 452.616 1377.79 451.336C1378.05 451.336 1378.3 451.336 1378.56 451.08C1378.3 451.08 1378.05 450.824 1377.79 450.824C1380.61 448.008 1382.66 445.192 1383.68 442.632C1382.4 449.544 1378.82 458.248 1373.7 467.208C1371.65 464.904 1369.6 462.344 1367.81 459.528ZM1375.74 436.744C1376 435.976 1376 435.208 1376.26 434.44C1376.51 434.696 1376.51 434.696 1376.77 434.952C1376.51 435.464 1376 435.976 1375.74 436.744ZM1328.13 448.776C1328.13 449.288 1327.87 449.544 1327.87 450.056C1327.87 449.8 1327.62 449.8 1327.62 449.544C1327.87 449.288 1327.87 449.032 1328.13 448.776ZM1376.77 476.168C1377.02 476.168 1377.02 476.168 1376.77 476.168C1379.84 477.96 1382.66 480.008 1385.47 481.032C1385.22 481.8 1384.96 482.568 1384.7 483.336C1381.89 481.288 1379.33 478.984 1376.77 476.168ZM1480.45 416.264C1479.94 415.752 1479.42 414.984 1478.91 414.472C1479.94 413.704 1480.7 412.936 1481.73 412.168C1481.22 413.448 1480.7 414.984 1480.45 416.264ZM1942.78 333.32C1942.53 332.808 1942.27 332.296 1942.02 331.784C1942.27 331.784 1942.78 332.04 1943.04 332.04C1943.04 332.552 1943.04 332.808 1942.78 333.32ZM1789.7 290.056C1784.83 284.168 1779.71 277.768 1775.1 271.88C1784.32 268.296 1793.54 262.664 1801.47 255.752C1797.38 267.272 1794.05 278.792 1789.7 290.056ZM1709.82 353.032C1706.5 346.888 1703.17 341 1700.35 334.856C1699.58 333.576 1699.07 332.04 1698.3 330.76C1705.98 327.944 1712.64 324.104 1719.04 318.984C1719.55 318.984 1720.32 318.984 1720.83 318.984C1718.27 330.76 1714.69 342.28 1709.82 353.032ZM1694.72 323.336C1693.95 321.8 1693.44 320.264 1692.67 318.728C1693.95 319.496 1695.49 320.264 1697.02 321.032C1696.26 321.8 1695.49 322.568 1694.72 323.336ZM1580.8 466.44C1580.54 466.184 1580.29 465.672 1580.29 465.416C1580.54 465.416 1580.8 465.672 1581.06 465.672C1580.8 465.672 1580.8 466.184 1580.8 466.44ZM1474.05 407.304C1473.28 406.28 1472.51 405 1472 403.976C1470.98 402.184 1469.95 400.392 1468.93 398.344C1472 399.368 1475.33 400.136 1479.17 400.648C1477.63 402.952 1475.84 405.256 1474.05 407.304ZM1389.31 407.048C1385.47 403.208 1382.14 398.6 1379.58 394.504C1379.84 394.248 1380.1 394.248 1380.35 393.992C1383.17 396.552 1386.75 398.856 1391.36 400.648C1390.85 402.696 1390.08 405 1389.31 407.048ZM1311.74 364.296C1310.21 363.784 1308.67 363.016 1307.14 362.248C1309.7 360.968 1312.26 359.688 1314.82 358.408C1313.79 360.2 1312.77 362.248 1311.74 364.296ZM1310.21 367.112C1308.93 369.416 1307.65 371.72 1306.11 373.768C1304.58 376.072 1303.04 378.632 1301.5 381.448C1298.18 377.608 1295.1 373.768 1292.54 369.416C1291.26 367.368 1289.73 365.064 1288.45 362.76C1294.34 365.064 1301.5 366.344 1310.21 367.112ZM1154.82 442.632C1153.02 441.096 1151.23 439.56 1149.44 438.024C1153.02 435.976 1156.1 434.184 1158.4 432.904C1157.12 436.232 1156.1 439.56 1154.82 442.632ZM1151.49 449.288C1149.95 452.104 1148.42 454.664 1146.88 457.48C1143.04 453.384 1139.71 449.032 1136.64 444.68C1137.66 444.168 1138.69 443.656 1139.46 443.144C1143.04 445.704 1147.14 447.752 1151.49 449.288ZM1131.78 436.488C1131.52 435.976 1131.26 435.72 1131.01 435.208C1131.01 435.208 1131.01 435.208 1131.01 434.952C1131.26 435.464 1131.52 435.976 1131.78 436.488ZM950.016 425.224C949.504 424.712 949.248 424.2 948.736 423.688C950.016 421.896 951.04 420.104 951.552 418.312C951.296 420.36 950.784 422.664 950.016 425.224ZM936.704 431.624C936.448 431.112 936.192 430.6 935.936 430.344C935.936 430.344 935.936 430.344 935.936 430.088C936.192 430.6 936.704 430.856 936.96 431.368C936.704 431.368 936.704 431.624 936.704 431.624ZM639.744 380.936C638.72 378.12 637.696 375.048 636.928 371.976C639.488 373.768 642.048 375.304 644.608 376.84C642.816 378.632 641.28 379.912 639.744 380.936ZM572.672 394.248C571.392 396.808 570.112 399.112 568.832 401.416C566.272 398.856 563.712 396.04 561.152 392.712C566.784 392.2 571.136 390.92 574.976 389.384C574.208 390.92 573.44 392.712 572.672 394.248ZM525.312 409.352C524.8 411.4 524.032 413.704 523.264 415.752C522.24 413.448 521.472 411.4 520.448 409.096C521.216 408.584 521.984 408.328 522.752 407.816C523.52 408.328 524.288 408.84 525.312 409.352ZM414.72 430.088C410.88 426.248 407.296 422.152 404.224 417.8C404.736 417.544 404.992 417.544 405.504 417.288C409.344 420.616 413.184 423.944 417.024 426.504C416.256 427.784 415.488 428.808 414.72 430.088ZM245.504 318.984C244.736 318.472 244.224 317.96 243.456 317.448C244.48 316.68 245.504 315.912 246.528 315.144C246.272 316.424 245.76 317.704 245.504 318.984ZM224.512 388.872C224.256 389.384 224 390.152 223.744 390.664C223.232 389.384 222.976 388.104 222.464 387.08C222.72 387.08 222.72 386.824 222.976 386.824C223.744 387.592 224 388.104 224.512 388.872ZM-146.176 391.944C-147.2 390.92 -148.224 389.64 -149.248 388.36C-149.248 388.104 -149.504 387.848 -149.504 387.592C-150.016 386.568 -150.272 385.288 -150.528 384.008C-148.736 385.544 -146.688 387.336 -144.384 389.128C-145.152 390.152 -145.664 390.92 -146.176 391.944ZM-236.288 480.52C-236.8 481.8 -237.312 483.08 -237.824 484.104C-239.36 481.288 -240.896 478.216 -242.176 475.4C-238.336 472.584 -234.752 470.28 -232.704 468.488C-233.984 472.84 -235.008 476.936 -236.288 480.52ZM-346.368 489.992C-346.88 491.016 -347.392 492.04 -348.16 493.064C-348.928 492.296 -349.44 491.784 -350.208 491.016C-349.44 490.248 -348.672 489.736 -348.16 488.968C-347.392 489.224 -346.88 489.48 -346.368 489.992ZM-663.808 410.376C-664.832 412.424 -666.112 414.472 -667.648 417.032C-670.464 411.912 -673.28 406.536 -676.096 400.904C-671.744 403.464 -667.392 405.768 -662.528 408.072C-662.784 408.84 -663.296 409.608 -663.808 410.376ZM-784.64 432.136C-785.92 430.6 -787.2 429.064 -788.224 427.272C-786.688 428.552 -785.408 429.576 -783.872 430.856C-784.128 431.368 -784.384 431.624 -784.64 432.136ZM-1026.3 339.976C-1027.07 339.208 -1027.84 338.696 -1028.61 337.928C-1027.07 336.904 -1025.54 336.136 -1024.26 335.112C-1024.77 336.904 -1025.54 338.44 -1026.3 339.976ZM-1168.64 307.208C-1174.53 299.016 -1179.9 290.056 -1184 281.096C-1171.97 278.024 -1161.73 273.416 -1151.49 266.248C-1156.1 280.328 -1161.73 294.152 -1168.64 307.208ZM-956.928 465.16C-956.416 466.696 -956.16 468.232 -955.648 469.768L-956.928 469.512C-956.928 467.976 -956.672 466.44 -956.928 465.16ZM-914.432 481.288C-916.992 472.84 -918.016 468.488 -917.504 462.856C-916.224 462.088 -914.688 461.32 -913.152 460.552C-909.312 463.368 -904.448 466.44 -899.328 469.512C-901.888 474.376 -904.704 479.24 -908.544 483.592L-914.432 481.288ZM1957.38 264.712C1954.56 277.768 1950.46 290.568 1945.09 302.6C1939.2 294.664 1933.82 286.728 1928.96 280.072C1939.71 276.744 1948.93 271.88 1957.38 264.712ZM1782.27 258.824C1780.48 260.616 1778.69 262.664 1776.9 264.456C1775.62 265.736 1774.08 267.272 1772.54 268.552C1771.78 267.784 1771.26 266.76 1770.5 265.992C1765.63 258.568 1761.02 250.376 1758.98 246.536C1764.86 252.424 1772.54 257.288 1782.27 258.824ZM1721.34 317.448C1721.34 317.704 1721.09 318.216 1721.09 318.472C1720.83 318.472 1720.58 318.216 1720.32 318.216C1720.58 317.96 1721.09 317.704 1721.34 317.448ZM1702.66 315.4C1701.63 316.424 1700.86 317.448 1699.84 318.472C1697.28 315.4 1695.49 312.072 1694.72 308.744C1696.26 311.56 1699.07 313.864 1702.66 315.4ZM1665.79 320.52C1664.51 326.408 1662.72 332.04 1660.16 337.672C1657.34 334.088 1654.53 330.504 1651.71 326.664C1657.6 325.896 1662.21 323.592 1665.79 320.52ZM1663.49 311.304C1659.39 317.448 1658.37 321.544 1651.2 325.896C1649.41 323.592 1647.62 321.032 1645.82 318.728C1652.99 318.472 1659.14 316.424 1663.49 311.304ZM1586.43 442.12C1586.18 444.424 1585.66 446.728 1585.15 449.032C1584.38 448.008 1583.36 446.984 1582.59 445.704C1584.38 444.424 1585.66 443.144 1586.43 442.12ZM1581.31 417.8C1580.54 422.92 1578.5 429.064 1575.68 435.72C1574.4 433.928 1573.12 432.136 1571.84 430.344C1576.19 426.504 1580.03 421.896 1581.31 417.8ZM1572.61 413.96C1570.82 417.288 1569.02 420.872 1566.98 424.456C1562.88 419.08 1559.3 413.448 1555.71 407.56C1561.09 409.864 1566.98 411.912 1572.61 413.96ZM1485.57 390.92C1484.29 392.968 1483.01 395.016 1481.73 397.064C1474.05 393.224 1467.14 388.616 1461.25 382.984C1461.25 382.728 1460.99 382.472 1460.99 382.472C1460.48 381.448 1459.97 380.424 1459.71 379.144C1466.37 384.008 1476.61 389.896 1485.57 390.92ZM1395.97 384.008C1395.2 387.848 1394.18 391.688 1393.15 395.528C1391.1 393.992 1389.31 392.2 1387.52 390.152C1390.34 388.36 1393.15 386.312 1395.97 384.008ZM1308.93 354.824C1307.39 356.872 1305.86 358.92 1304.06 360.968C1294.34 356.36 1285.63 351.24 1278.21 344.84C1278.21 344.584 1277.95 344.328 1277.95 344.072C1277.18 343.048 1276.67 341.768 1276.42 340.232C1284.61 345.608 1296.9 352.008 1308.93 354.824ZM1152.51 406.28C1150.46 412.168 1145.86 419.592 1139.97 427.016C1138.18 424.712 1136.64 422.152 1135.1 419.592C1142.53 415.496 1149.7 410.888 1152.51 406.28ZM1142.53 396.808C1138.94 401.16 1134.85 405.768 1130.24 410.376C1126.14 402.184 1122.82 393.736 1119.23 385.544C1126.4 390.92 1134.59 395.016 1142.53 396.808ZM1037.31 387.08C1033.47 394.504 1029.89 401.672 1025.28 408.328C1021.95 405 1018.88 401.416 1016.06 397.32C1023.23 394.248 1030.66 390.92 1037.31 387.08ZM937.728 380.424C936.192 381.96 934.656 383.24 933.376 384.52C936.192 383.752 939.008 382.984 941.312 381.96C945.92 383.752 950.784 385.032 955.136 385.544C952.832 383.496 950.016 381.192 947.2 379.144C951.552 376.84 955.648 373.768 959.488 369.672C957.184 382.728 953.6 395.528 948.736 407.304C947.456 410.12 945.92 413.96 944.384 417.8C934.912 403.464 928.768 387.08 921.856 371.208C926.976 374.792 932.352 377.864 937.728 380.424ZM825.344 372.744C824.832 373.768 824.32 375.048 823.552 376.072C822.784 375.816 822.016 375.304 821.248 375.048C822.784 374.28 824.064 373.512 825.344 372.744ZM807.68 375.56C806.4 376.84 805.376 378.12 804.096 379.656C799.488 376.584 795.136 373.256 791.296 369.416C791.296 369.16 791.04 368.904 791.04 368.648C790.528 367.624 790.016 366.344 789.76 365.32C794.368 368.904 800.768 372.744 807.68 375.56ZM721.408 370.44C718.848 381.96 715.264 393.48 710.656 404.488C705.792 398.344 700.928 392.2 696.576 386.568C696.32 386.056 696.064 385.544 695.552 385.032C699.392 383.752 702.72 382.216 706.048 380.68C708.352 380.936 710.4 381.192 712.96 381.192C711.936 380.936 710.656 380.168 708.864 379.144C713.472 376.584 717.312 373.768 721.408 370.44ZM694.784 376.328C693.76 377.352 692.736 378.12 691.968 378.888C689.92 375.304 688.128 372.232 687.104 370.44C689.408 372.744 691.968 374.792 694.784 376.328ZM660.736 365.832C659.712 368.648 658.688 371.72 657.664 374.792C656.896 374.28 656.384 373.768 655.616 373C657.92 370.952 659.712 368.648 660.736 365.832ZM581.632 371.976C581.376 373 581.12 374.024 580.608 374.792C580.608 375.048 580.352 375.048 580.352 375.304C574.72 381.704 567.808 386.824 559.616 391.176C557.568 388.872 555.52 386.312 553.728 383.752C562.688 385.8 574.72 378.12 581.632 371.976ZM428.032 406.536C425.984 410.632 423.936 414.472 421.888 418.312C419.584 416.52 417.536 414.984 415.488 413.192C419.584 410.888 423.936 408.84 428.032 406.536ZM404.48 416.52C404.224 416.776 403.968 417.032 403.712 417.288C402.944 416.264 402.176 415.24 401.664 413.96C402.688 414.728 403.712 415.496 404.48 416.52ZM310.528 340.744C306.432 351.496 301.312 362.248 295.168 371.976C290.56 365.32 286.72 358.408 283.136 350.984C293.12 349.448 301.824 346.12 310.528 340.744ZM244.736 303.112C244.224 306.952 242.176 311.048 239.872 314.888C238.592 313.864 237.312 312.84 236.032 311.816C239.872 310.024 242.944 307.208 244.736 303.112ZM220.16 316.168C225.024 318.216 229.888 320.008 235.264 321.288C235.008 321.8 234.752 322.056 234.24 322.568C235.008 322.312 235.52 322.056 236.288 321.544C238.592 322.056 241.152 322.824 243.712 323.08C242.176 327.176 240.64 331.272 239.104 335.368C235.264 345.352 230.912 355.848 226.048 365.832C226.048 365.832 226.048 365.576 225.792 365.576C214.784 346.632 206.08 325.64 200.192 304.136C206.08 308.744 212.224 312.328 218.624 315.4C218.112 315.656 217.6 315.912 217.088 316.168C218.368 316.168 219.136 316.168 220.16 316.168ZM-1.53621 379.656C-5.12021 388.872 -8.70421 398.344 -13.0562 406.536C-16.6402 402.44 -19.9681 397.832 -23.0401 392.968C-15.6161 389.128 -8.19221 384.776 -1.53621 379.656ZM-145.664 332.808C-151.808 337.416 -157.184 340.744 -161.28 343.048C-142.592 342.024 -128.512 338.184 -114.688 328.2C-120.576 345.864 -128.256 362.76 -137.728 378.376C-147.2 366.088 -157.44 350.728 -165.632 337.672C-169.728 329.992 -173.568 321.544 -175.36 317.704C-168.192 325.384 -158.72 331.784 -145.664 332.808ZM-236.288 443.912C-238.08 450.056 -241.664 457.736 -246.784 465.416C-248.064 462.6 -249.344 459.784 -250.624 457.48C-244.736 453.384 -238.592 448.52 -236.288 443.912ZM-253.952 450.568C-257.024 444.168 -259.84 437.256 -262.656 430.088C-257.536 433.928 -251.904 437.256 -246.528 440.328C-248.832 443.656 -251.392 447.24 -253.952 450.568ZM-356.096 441.096C-356.352 441.096 -356.352 441.352 -356.096 441.096C-356.096 441.352 -355.84 441.096 -355.328 441.096C-355.328 441.096 -355.328 441.096 -355.072 441.096C-347.136 439.56 -338.944 434.696 -332.032 428.296C-337.664 444.168 -342.528 460.552 -350.72 474.632C-360.96 465.928 -369.152 455.432 -375.04 442.376C-376.064 440.328 -376.832 438.28 -377.856 436.232C-372.224 439.048 -365.312 440.584 -356.096 441.096ZM-453.12 414.216C-457.984 429.32 -464.384 443.912 -472.832 457.48C-473.856 454.92 -474.88 452.616 -475.904 450.568C-479.488 443.4 -482.048 435.464 -484.864 427.528C-484.608 427.528 -484.352 427.528 -484.352 427.272C-478.72 431.88 -472.576 435.72 -466.688 439.048C-470.016 434.696 -473.088 429.832 -475.648 424.968C-467.2 422.664 -460.032 419.08 -453.12 414.216ZM-642.048 358.408C-646.4 373.768 -652.288 388.872 -659.712 402.952C-667.136 393.992 -673.536 384.264 -679.424 374.28C-664.576 371.72 -653.056 367.112 -642.048 358.408ZM-769.28 398.856C-772.864 406.792 -776.192 414.984 -779.776 422.664C-784.384 418.824 -788.224 414.728 -792.064 410.376C-784.128 407.816 -776.192 403.72 -769.28 398.856ZM-876.032 365.576C-879.104 375.304 -882.944 385.032 -887.808 394.248C-894.976 389.64 -900.864 384.008 -905.728 378.12C-894.208 375.816 -884.992 371.976 -876.032 365.576ZM-891.392 400.904C-892.928 403.464 -894.464 406.024 -896 408.584C-896.512 409.096 -896.768 409.864 -897.28 410.632C-905.472 402.696 -912.64 392.712 -917.248 385.288C-911.36 391.688 -902.912 397.832 -891.392 400.904ZM-1189.89 235.016C-1183.23 244.232 -1172.48 247.304 -1160.19 247.048C-1168.9 257.8 -1178.62 266.504 -1187.58 272.904C-1190.91 264.2 -1192.96 255.496 -1193.98 246.792C-1189.12 251.912 -1182.21 255.752 -1173.5 257.032C-1184.26 249.608 -1185.02 244.232 -1189.89 235.016ZM-1263.62 312.584C-1267.2 318.472 -1270.78 324.104 -1274.88 329.48C-1277.44 326.152 -1279.74 323.08 -1281.79 319.496C-1275.65 317.704 -1269.25 315.4 -1263.62 312.584Z" fill="#6E2129"/>
</svg>
