<svg width="1920" height="646" viewBox="0 0 1920 646" fill="none" xmlns="http://www.w3.org/2000/svg">
<path d="M2047.23 274.8C2028.29 271.472 2016.77 266.352 2007.81 259.44C2012.67 261.232 2027.78 262.768 2032.13 262.768C1999.62 249.968 1988.86 236.144 1977.86 216.944C1976.06 213.872 1974.53 210.032 1972.74 206.192C1980.16 210.544 2003.2 221.552 2009.34 221.296C1992.7 211.824 1977.86 194.416 1972.48 182.64C1976.58 188.784 1989.89 194.416 1996.8 197.232C2002.69 199.536 2008.58 199.536 2014.72 199.28C1999.1 199.024 1982.46 179.568 1973.25 168.816C1962.75 156.784 1953.79 142.96 1946.62 128.624C1959.68 135.28 1972.48 137.328 1989.38 136.56C1974.78 130.928 1941.76 114.8 1927.17 80.4961C1927.17 80.4961 1927.42 80.496 1927.42 80.752C1933.31 84.848 1940.22 87.664 1947.39 89.712C1936.13 81.008 1930.5 69.7441 1924.86 61.2961C1930.5 70.5121 1944.83 72.048 1956.86 74.608C1949.7 72.048 1932.03 62.832 1923.07 53.36C1915.14 45.168 1910.27 34.9281 1906.94 24.1761C1905.66 19.8241 1904.38 15.472 1903.36 11.12L1900.29 0.624023C1902.34 10.608 1901.82 20.592 1902.34 30.832C1903.1 55.664 1878.53 87.92 1871.36 92.272C1883.65 89.712 1891.84 82.032 1897.22 73.84C1896.19 77.68 1893.89 86.128 1891.07 93.808C1880.06 118.64 1864.45 152.688 1853.18 158.32C1863.94 159.856 1876.99 148.08 1883.9 139.632C1883.9 140.912 1883.65 141.936 1883.39 142.96C1883.39 143.216 1883.39 143.472 1883.14 143.728C1877.25 153.456 1869.06 161.136 1859.07 168.304C1867.78 166.512 1874.43 163.952 1879.55 160.368C1879.04 162.416 1878.53 164.464 1878.02 166.512C1875.71 174.448 1872.64 181.616 1868.54 188.016C1858.3 178.8 1850.37 166.512 1843.46 155.248C1840.9 151.152 1838.59 147.056 1836.29 142.96C1839.62 144.496 1843.2 145.776 1846.53 146.8C1842.69 143.728 1838.08 139.632 1837.06 135.28C1841.41 141.424 1852.42 142.192 1860.35 141.68C1850.11 138.608 1836.8 131.696 1830.66 124.272C1825.54 118.128 1824.26 109.424 1821.18 102.768V103.536C1821.7 109.424 1820.67 115.568 1818.88 120.944C1815.04 131.44 1807.62 137.84 1797.63 144.752C1796.86 145.264 1795.84 145.776 1795.07 146.288C1789.18 138.864 1783.81 129.648 1780.99 118.896C1785.09 122.736 1789.95 125.808 1795.33 128.112C1787.65 120.176 1784.58 110.704 1781.25 103.536C1784.58 111.216 1795.33 114.288 1804.29 117.36C1799.17 114.544 1786.62 105.328 1780.74 97.1361C1775.62 89.9681 1773.06 81.5201 1771.78 72.8161C1771.26 69.2321 1770.75 65.904 1770.5 62.32L1769.47 53.872C1769.98 61.808 1768.45 69.488 1767.42 77.424C1765.12 96.624 1742.34 118.64 1736.45 121.2C1746.18 120.688 1753.34 115.568 1758.46 109.936C1757.18 112.752 1754.37 118.896 1751.3 124.528C1740.03 142.448 1723.9 166.768 1714.69 169.84C1722.88 172.4 1734.14 164.72 1740.54 159.088C1740.29 160.112 1740.03 160.88 1739.78 161.648C1739.78 161.904 1739.78 161.904 1739.52 162.16C1733.89 168.816 1726.46 173.936 1718.02 178.288C1724.93 178.032 1730.3 176.752 1734.66 174.704C1733.89 176.24 1733.38 177.776 1732.61 179.312C1729.54 186.224 1725.44 192.112 1720.83 197.232C1714.18 188.016 1709.06 177.264 1704.96 167.536C1702.91 163.184 1701.12 158.576 1699.58 154.224C1702.66 156.272 1706.24 158.064 1709.31 159.344C1705.73 155.76 1701.89 150.896 1701.38 146.544C1704.96 153.2 1715.71 155.504 1723.9 156.016C1713.92 151.664 1701.63 142.704 1696.26 134.768C1691.9 128.112 1691.65 119.152 1689.6 111.984V112.752C1689.34 118.64 1687.55 124.784 1684.99 129.904C1679.62 139.888 1671.42 145.52 1660.42 150.896C1659.39 151.408 1658.11 151.664 1657.09 152.176C1664.51 153.456 1671.68 152.688 1676.54 147.568C1672.96 152.688 1671.94 155.76 1665.28 159.344C1670.66 159.344 1675.01 157.552 1678.34 154.992C1673.98 171.888 1661.95 188.016 1647.1 199.536C1645.31 201.072 1643.01 202.608 1640.96 204.144C1647.36 203.632 1654.27 200.816 1660.16 196.72C1655.81 205.68 1651.71 215.152 1645.82 223.088C1637.12 217.2 1624.06 205.68 1619.71 188.272C1622.78 191.088 1626.37 193.392 1630.46 195.184C1624.58 189.04 1622.53 182.128 1619.97 176.752C1622.53 182.64 1630.46 184.688 1637.38 187.248C1633.54 185.2 1624.06 178.288 1619.71 171.888C1615.87 166.512 1613.82 160.112 1613.06 153.712C1612.54 151.152 1612.29 148.336 1612.29 145.776L1611.52 139.376C1611.78 145.264 1610.75 151.152 1609.98 157.04C1608.19 171.376 1591.04 188.016 1586.69 189.808C1594.11 189.296 1599.49 185.712 1603.33 181.36C1602.3 183.408 1600.26 188.272 1597.95 192.368C1589.5 205.68 1577.47 224.112 1570.3 226.416C1576.45 228.208 1584.9 222.576 1589.76 218.224C1589.5 218.992 1589.5 219.504 1589.25 220.272C1589.25 220.272 1589.25 220.528 1588.99 220.528C1584.9 225.648 1579.26 229.232 1572.86 232.56C1577.98 232.304 1582.08 231.28 1585.41 229.744C1584.9 231.024 1584.38 232.048 1583.87 233.072C1582.34 236.4 1580.54 239.216 1578.75 242.032C1578.24 241.52 1577.47 241.008 1576.96 240.496C1562.37 228.208 1550.59 211.568 1546.75 194.16C1550.08 196.976 1554.43 199.024 1559.81 199.024C1552.9 195.184 1552.13 191.856 1548.54 186.736C1553.41 192.112 1560.58 193.392 1568 192.112C1566.98 191.344 1565.7 191.344 1564.67 190.576C1553.92 184.688 1545.47 178.544 1540.61 168.304C1538.3 162.928 1536.51 156.784 1536.51 150.64V149.872C1534.21 157.04 1533.7 166 1529.09 172.912C1523.46 180.848 1510.4 189.552 1500.16 193.648C1508.35 193.392 1519.36 191.6 1523.2 184.944C1522.43 189.552 1518.34 194.16 1514.5 197.744C1517.82 196.464 1521.41 194.928 1524.74 192.88C1522.94 197.488 1520.9 201.84 1518.59 206.192C1516.29 211.056 1513.73 216.176 1510.91 221.04C1501.44 214.384 1485.57 200.304 1480.45 177.264C1483.78 180.848 1487.87 183.664 1492.22 185.712C1486.08 178.288 1483.52 169.84 1480.7 163.44C1483.26 170.608 1492.22 173.168 1499.65 175.984C1495.3 173.424 1485.06 165.232 1480.45 157.552C1476.35 150.896 1474.05 143.216 1473.02 135.536C1472.51 132.464 1472.26 129.136 1472 126.064L1471.23 118.384C1471.49 125.552 1470.46 132.464 1469.7 139.632C1467.9 157.04 1449.22 177.008 1444.35 179.312C1452.29 178.8 1458.18 174.192 1462.27 169.072C1461.25 171.632 1458.94 177.264 1456.38 182.384C1447.17 198.512 1433.86 220.784 1426.43 223.6C1433.09 225.904 1442.3 218.992 1447.68 213.616C1447.42 214.384 1447.42 215.152 1447.17 215.92C1447.17 216.176 1447.17 216.176 1446.91 216.432C1442.3 222.576 1436.42 227.184 1429.5 231.024C1435.14 230.768 1439.49 229.488 1443.07 227.696C1442.56 228.976 1442.05 230.512 1441.54 231.792C1440 235.376 1438.46 238.704 1436.42 241.52C1428.99 233.072 1423.1 223.088 1420.29 212.336C1422.85 214.64 1426.43 216.176 1430.27 215.92C1424.9 213.104 1424.13 210.288 1421.06 205.68C1424.9 210.032 1430.27 210.8 1435.9 209.264C1435.14 208.752 1434.11 208.752 1433.34 208.24C1424.9 203.632 1418.24 199.024 1413.89 190.32C1411.58 185.712 1410.05 180.336 1409.54 175.216V174.448C1408.26 180.848 1408.51 188.784 1405.7 194.928C1402.11 202.352 1393.15 210.544 1385.73 214.64C1391.87 213.872 1399.81 211.568 1402.37 205.68C1402.11 209.776 1399.3 214.128 1396.99 217.456C1399.3 216.176 1401.86 214.64 1404.16 212.592C1403.14 216.688 1401.86 220.784 1400.58 224.624C1398.02 232.304 1395.2 240.496 1391.62 247.92C1382.91 241.008 1372.67 230 1368.58 214.384C1371.9 217.456 1375.74 220.016 1380.1 221.808C1373.95 215.408 1371.39 207.728 1368.83 201.84C1371.39 208.24 1380.1 210.544 1387.52 213.104C1383.42 210.8 1373.18 203.376 1368.58 196.72C1364.48 190.832 1362.18 184.176 1361.41 177.008C1360.9 174.192 1360.64 171.376 1360.38 168.56L1359.62 161.648C1359.87 168.048 1358.85 174.192 1358.08 180.592C1356.29 195.952 1337.86 213.872 1332.99 215.92C1340.93 215.408 1346.56 211.568 1350.66 206.96C1349.63 209.264 1347.33 214.384 1345.02 218.736C1335.81 233.072 1323.01 252.784 1315.33 255.344C1321.98 257.392 1330.94 251.248 1336.32 246.64C1336.06 247.408 1336.06 248.176 1335.81 248.688C1335.81 248.944 1335.81 248.944 1335.55 249.2C1331.2 254.576 1325.31 258.416 1318.66 262C1317.38 260.72 1315.84 258.928 1314.56 257.648C1303.55 245.872 1294.85 230 1292.03 213.616C1294.59 216.176 1297.66 218.224 1301.76 218.48C1296.64 214.896 1296.13 211.824 1293.31 206.704C1296.9 211.824 1302.27 213.104 1307.9 211.824C1307.14 211.312 1306.11 211.056 1305.34 210.288C1297.15 204.656 1291.01 199.024 1287.17 189.04C1285.38 183.92 1284.1 178.032 1284.1 172.144V171.376C1282.3 178.288 1282.05 186.736 1278.46 193.136C1274.11 200.816 1264.64 208.752 1256.96 212.848C1263.1 212.592 1271.3 210.8 1274.11 204.4C1273.6 208.752 1270.53 213.36 1267.71 216.432C1270.27 215.408 1272.83 213.872 1275.39 211.824C1274.11 216.176 1272.58 220.528 1270.78 224.624C1266.18 236.912 1260.54 250.224 1252.61 260.72C1251.33 258.672 1250.05 256.624 1249.02 255.088C1243.65 246.64 1239.3 237.168 1236.22 227.696C1243.65 233.072 1251.58 235.376 1262.08 236.656C1253.63 231.792 1234.43 218.736 1228.8 195.952C1232.13 199.024 1235.97 201.584 1240.32 203.376C1234.18 196.976 1231.62 189.296 1229.06 183.408C1231.62 189.808 1240.32 192.112 1247.74 194.672C1243.65 192.368 1233.41 184.944 1228.8 178.288C1224.7 172.4 1222.4 165.744 1221.63 158.576C1221.12 155.76 1220.86 152.944 1220.61 150.128L1219.84 143.216C1220.1 149.616 1219.07 155.76 1218.3 162.16C1216.51 177.52 1198.59 194.928 1193.47 197.232C1183.49 189.552 1170.69 176.752 1165.31 156.784C1168.9 160.368 1173.25 162.928 1177.86 164.976C1170.94 157.552 1167.87 148.592 1164.8 141.936C1167.87 149.36 1177.34 151.408 1185.02 153.968C1180.42 151.664 1169.41 143.472 1164.03 135.536C1159.42 128.88 1156.61 120.688 1155.07 112.496C1154.3 109.168 1153.79 105.84 1153.54 102.256L1152.26 94.064C1153.02 101.744 1152.26 109.424 1151.74 117.104C1150.98 135.792 1132.54 158.576 1127.68 161.392C1135.87 160.368 1141.76 154.992 1145.6 149.104C1144.58 151.92 1142.78 158.064 1140.48 163.696C1131.78 181.616 1119.49 206.448 1111.81 210.032C1118.72 211.824 1127.94 203.888 1133.06 198C1133.06 199.024 1132.8 199.792 1132.54 200.56C1132.54 200.816 1132.54 200.816 1132.54 201.072C1128.19 207.984 1122.3 213.36 1115.14 217.968C1121.02 217.2 1125.38 215.664 1128.96 213.36C1128.45 214.896 1127.94 216.432 1127.42 217.968C1125.63 223.344 1123.33 228.208 1120.51 232.816C1111.04 220.528 1104.13 204.144 1098.5 189.04C1096.7 184.176 1094.91 179.312 1093.38 174.192C1096.19 176.496 1099.01 178.288 1101.82 179.568C1098.75 175.728 1095.17 170.352 1094.4 165.488C1097.73 172.912 1106.94 174.96 1113.86 175.216C1105.15 170.608 1094.4 161.392 1089.54 152.432C1085.44 145.008 1085.18 135.024 1083.14 127.088V128.112C1083.14 134.768 1081.86 141.68 1079.81 147.824C1075.71 159.344 1068.8 166 1059.58 172.912C1058.82 173.68 1057.54 173.936 1056.77 174.704C1063.17 175.984 1069.06 174.448 1073.15 168.56C1070.34 174.448 1069.57 178.288 1063.94 182.384C1068.54 182.128 1072.13 179.824 1074.94 176.752C1072.38 192.368 1065.73 207.472 1056.51 220.016C1051.9 214.896 1048.06 209.008 1044.99 202.096C1044.22 200.56 1043.71 199.024 1042.94 197.232C1047.3 199.28 1052.67 200.56 1059.58 200.816C1050.88 196.208 1043.46 191.088 1037.82 183.92C1037.82 183.664 1037.82 183.664 1037.57 183.408C1037.31 182.64 1037.06 181.616 1036.8 180.592C1043.2 186.736 1054.72 194.416 1062.91 191.6C1053.44 188.528 1037.06 162.672 1025.28 143.984C1022.21 138.096 1019.39 131.44 1017.86 128.368C1022.98 134.256 1030.14 139.376 1040.13 139.888C1033.98 137.328 1010.94 114.288 1008.38 93.808C1007.36 85.36 1005.57 77.168 1006.08 68.72L1005.06 77.68C1004.8 81.52 1004.54 85.104 1004.03 88.944C1003.01 98.16 1000.45 107.12 995.328 115.056C989.696 124.016 977.152 134 972.032 137.072C980.992 133.488 991.744 130.16 994.816 121.968C991.488 129.648 988.672 139.632 981.248 148.336C986.624 145.776 991.488 142.448 995.328 138.352C990.72 158.32 978.944 172.912 968.448 182.384C963.584 178.544 958.72 173.68 956.16 169.072C952.832 162.928 952.32 154.992 950.784 148.592V149.36C950.784 154.736 949.76 160.368 947.968 165.232C944.384 174.448 938.752 180.08 931.072 185.456C930.304 185.968 929.28 186.224 928.768 186.736C934.144 187.76 939.264 186.48 942.592 181.616C940.288 186.48 939.52 189.296 934.656 192.88C938.496 192.624 941.568 190.832 943.872 188.272C943.104 193.648 941.312 199.28 939.264 204.4C929.536 198 917.248 186.992 911.872 170.352C915.456 173.168 919.552 175.472 924.16 177.264C917.504 171.12 914.432 163.44 911.36 157.808C914.432 163.952 923.392 165.744 930.816 168.048C926.464 166 915.712 159.088 910.592 152.688C905.984 147.056 903.424 140.144 901.888 133.232C901.12 130.416 900.864 127.6 900.352 124.784L899.072 117.872C899.84 124.272 899.072 130.672 898.56 137.072C897.792 152.944 880.128 171.888 875.264 174.448C883.2 173.424 888.832 169.072 892.672 164.208C891.648 166.512 889.856 171.888 887.552 176.496C879.104 191.6 867.328 212.336 859.904 215.408C866.56 216.944 875.52 210.288 880.384 205.168C880.384 205.936 880.128 206.704 879.872 207.216C879.872 207.472 879.872 207.472 879.872 207.728C875.52 213.616 869.888 217.968 863.232 222.064C868.864 221.296 873.216 220.272 876.544 218.224C876.032 219.504 875.52 220.784 875.264 222.064C872.192 230.512 867.328 237.168 861.184 242.8C852.736 232.816 846.08 221.04 840.704 209.776C838.4 205.68 836.352 201.328 834.816 196.72C837.888 198.768 841.472 200.304 844.8 201.328C841.216 198 837.12 193.392 836.352 189.04C840.192 195.44 850.944 197.232 858.88 197.488C848.896 193.392 836.352 185.456 830.72 177.52C826.112 171.12 825.6 162.16 823.296 155.248V156.016C823.296 161.904 821.76 168.048 819.456 173.168C814.592 183.152 806.656 189.04 796.16 194.928C795.136 195.44 793.856 195.696 792.832 196.464C800.256 197.488 807.168 196.208 811.776 191.088C808.448 196.208 807.68 199.536 801.024 203.12C806.4 202.864 810.496 200.816 813.568 198.256C811.008 211.056 803.84 223.6 794.368 234.096C792.576 231.28 791.296 227.696 790.528 223.856C792.064 225.648 793.856 226.928 795.904 228.208C793.088 224.624 792.064 220.784 791.04 217.712C792.064 221.04 796.416 222.576 800 224.112C797.952 222.832 793.344 218.736 791.04 214.896C789.248 211.824 788.48 208.24 788.224 204.656C788.224 203.12 787.968 201.84 788.224 200.304V196.72C788.224 200.048 787.2 203.12 786.688 206.192C785.152 213.872 774.912 222.064 772.608 222.832C776.704 222.832 779.776 221.296 781.824 218.992C781.312 220.016 779.776 222.576 778.496 224.624C777.984 225.392 777.472 226.16 776.96 226.672C770.816 224.112 760.064 208.752 752.64 197.232C750.592 193.648 748.544 189.552 747.776 187.504C751.104 191.088 755.968 194.416 762.368 194.672C758.272 193.136 743.168 178.8 741.376 166C740.608 160.88 739.584 155.76 739.84 150.384L739.328 156.016C739.328 158.32 739.072 160.624 738.56 162.928C737.792 168.56 736.256 174.192 732.928 179.056C729.088 184.688 720.896 190.832 717.568 192.88C723.456 190.576 730.624 188.528 732.672 183.408C730.624 188.272 728.576 194.416 723.712 199.792C727.296 198.256 730.368 196.208 733.184 193.648C730.624 204.4 724.48 212.592 718.336 218.224C716.288 216.176 714.496 213.616 713.216 211.568C710.144 206.448 708.864 200.56 708.608 194.672C708.352 192.368 708.352 189.808 708.352 187.504L708.096 181.616C707.84 186.992 706.56 192.112 705.28 197.232C703.488 205.424 696.064 213.872 689.92 219.248C682.496 211.568 674.56 200.304 672.256 185.712C675.328 189.04 679.168 192.112 683.264 194.16C677.632 186.992 675.84 179.056 673.536 173.168C675.584 179.824 684.288 182.896 691.456 186.224C687.36 183.664 677.888 175.216 673.536 167.792C669.952 161.392 668.416 154.48 667.904 147.312C667.648 144.496 667.648 141.424 667.648 138.608L667.392 131.696C667.136 138.096 665.344 144.24 664.064 150.64C660.736 166.256 640.512 182.384 635.648 184.176C643.584 184.432 649.984 180.848 654.336 176.752C653.056 179.056 650.24 183.92 647.424 188.272C639.744 198.256 630.016 210.8 622.08 217.456C614.656 207.728 608.768 196.72 603.648 186.224C601.344 181.616 599.04 177.008 597.248 172.4C600.576 174.448 604.416 176.24 607.744 177.264C603.904 173.68 599.552 168.816 598.784 164.208C602.88 171.12 614.4 172.912 622.848 173.168C612.096 168.816 598.784 160.112 592.896 151.92C588.032 145.008 587.52 135.536 584.96 128.368V129.392C584.96 135.536 583.424 142.192 580.864 147.824C575.744 158.576 567.296 164.72 556.032 171.12C555.008 171.888 553.472 171.888 552.448 172.656C560.384 173.68 567.808 172.4 572.672 166.768C569.088 172.4 568.32 175.728 561.152 179.824C566.784 179.568 571.136 177.52 574.72 174.448C571.136 191.856 559.616 208.752 545.28 221.552C540.16 215.408 534.016 205.936 532.224 192.88C534.016 195.44 536.576 197.744 539.136 199.536C535.552 194.16 534.528 188.016 533.248 183.152C534.528 188.272 539.904 190.576 544.256 193.136C541.696 191.088 535.808 184.688 533.248 179.056C530.944 174.192 529.92 168.816 529.664 163.184C529.408 160.88 529.408 158.832 529.664 156.528L529.408 151.152C529.408 156.272 528.128 160.88 527.36 165.744C525.312 177.776 512.768 190.32 509.696 191.6C514.56 191.856 518.4 189.04 521.216 185.712C520.448 187.504 518.656 191.344 516.864 194.672C510.464 205.424 501.248 219.76 496.384 221.04C500.48 223.088 506.368 218.992 509.952 215.664C509.696 216.176 509.696 216.688 509.44 217.2V217.456C506.368 221.296 502.272 224.112 497.92 226.416C501.504 226.672 504.064 226.16 506.368 225.136C505.856 226.16 505.6 226.928 505.088 227.952C504.064 230.256 503.04 232.048 501.76 234.096C492.032 224.624 485.12 212.08 479.232 200.56C477.184 196.72 475.392 192.88 473.856 189.04C476.672 190.832 479.744 192.112 482.816 193.136C479.488 190.064 475.904 185.968 475.136 182.128C478.72 188.016 488.192 189.552 495.36 189.552C486.4 185.968 475.136 178.8 470.016 171.888C465.92 166 465.408 158.32 463.36 152.176V152.944C463.36 158.064 462.08 163.696 459.776 168.304C455.424 177.264 448.256 182.64 438.784 187.76C437.76 188.272 436.736 188.528 435.712 189.04C442.368 190.064 448.768 188.784 452.864 184.176C449.792 188.784 449.28 191.6 443.136 194.928C448 194.672 451.584 192.88 454.656 190.576C451.584 205.68 441.344 220.272 428.544 231.024C427.52 231.792 426.496 232.816 425.216 233.584C424.448 232.56 423.68 231.792 423.168 231.024C415.488 221.808 409.344 211.568 405.248 201.072C416 206.96 427.52 209.776 442.88 211.056C430.592 205.68 402.944 191.088 395.264 166.256C395.264 166.256 395.264 166.256 395.52 166.512C400.384 169.84 406.016 172.656 412.16 174.704C403.2 167.536 399.872 159.344 396.032 152.944C399.616 159.856 412.416 162.416 422.912 165.488C416.768 162.928 402.176 154.736 395.52 147.312C389.632 140.912 386.56 133.488 385.28 125.808C384.768 122.736 384.256 119.664 384 116.592L382.976 109.168C383.488 116.08 381.44 122.736 380.16 129.648C377.088 146.288 349.952 165.232 342.784 167.536C354.304 167.28 362.752 162.928 368.896 158.064C367.36 160.624 364.032 166 360.192 170.864C349.696 182.896 335.616 198.256 324.608 205.68C321.792 201.328 319.488 196.976 317.44 192.624C316.16 190.064 314.88 187.504 313.856 184.688C315.648 185.968 317.952 186.736 319.744 187.504C317.696 185.456 315.136 182.64 314.624 180.08C316.928 183.92 323.584 184.944 328.192 185.2C322.048 182.896 314.624 177.776 311.04 173.168C308.224 169.328 307.968 163.952 306.432 159.6V160.112C306.432 163.696 305.408 167.28 304.128 170.608C301.056 176.752 296.448 180.336 290.048 183.92C289.536 184.176 288.768 184.432 288 184.688C292.608 185.2 296.704 184.688 299.52 181.36C297.472 184.432 296.96 186.48 293.12 188.784C296.448 188.784 298.752 187.504 300.8 185.712C298.752 195.952 291.84 205.936 283.136 213.104C282.112 214.128 280.832 215.152 279.552 215.92C283.392 215.408 287.488 213.616 290.816 211.056C288.768 215.664 286.976 220.272 284.672 224.624C278.528 217.456 272.896 207.984 270.848 196.208C273.664 199.536 277.248 202.096 281.088 204.144C275.712 197.488 274.176 190.064 272.128 184.432C274.176 190.576 282.112 193.392 288.768 196.464C284.928 193.904 275.968 186.224 272.128 179.312C268.8 173.424 267.264 166.768 267.008 160.112C266.752 157.296 266.752 154.736 266.752 151.92L266.496 145.264C266.24 151.408 264.704 157.04 263.424 163.184C260.352 177.776 241.408 192.88 236.8 194.416C244.224 194.672 250.112 191.344 254.464 187.248C253.184 189.296 250.624 193.904 248.064 198C239.872 209.008 228.352 223.088 220.672 228.208C217.088 221.808 214.784 214.896 213.76 207.984C216.064 210.288 219.392 212.336 223.744 212.848C218.624 209.264 218.112 206.704 215.808 202.352C219.136 206.96 224.768 208.496 230.912 207.984C230.144 207.472 229.12 207.216 228.352 206.448C220.16 201.072 214.016 195.696 210.688 187.248C209.152 182.896 208.384 177.776 208.64 172.912V172.144C206.336 177.52 205.312 184.688 201.216 189.808C196.096 195.696 185.344 201.584 176.896 204.144C183.296 204.4 192.256 203.888 195.84 198.768C194.816 202.352 191.232 205.68 188.16 208.24C190.976 207.472 193.792 206.448 196.608 205.168C194.816 208.752 193.024 212.08 190.976 215.408C185.344 225.136 178.432 235.376 169.728 243.056C168.96 241.264 168.192 239.472 167.424 238.192C163.072 229.232 160.256 219.504 158.208 209.52C164.608 215.408 171.264 218.736 180.736 220.784C173.568 215.152 157.44 200.56 153.856 177.264C156.672 180.592 160 183.408 163.584 185.712C158.464 178.8 156.928 170.864 154.88 164.976C156.672 171.376 164.352 174.448 170.752 177.776C167.168 175.216 158.72 166.768 154.88 159.6C151.552 153.456 150.272 146.544 150.016 139.376C149.76 136.56 149.76 133.744 149.76 130.928L149.504 124.016C149.248 130.416 147.712 136.56 146.432 142.704C143.616 158.064 125.44 173.936 121.088 175.728C128.256 175.984 133.632 172.4 137.728 168.304C136.704 170.608 134.144 175.472 131.584 179.824C130.304 181.872 128.768 183.92 127.232 186.224C119.552 181.872 113.664 177.52 110.08 169.84C108.288 166 107.264 161.392 107.264 156.784V156.272C105.472 161.392 105.216 168.048 101.632 172.912C99.0719 176.24 94.9758 179.824 90.3678 182.64C84.2238 175.216 78.8479 165.488 76.7999 153.712C79.8719 157.04 83.7118 160.112 87.8078 162.16C82.1758 154.992 80.3839 147.056 78.0799 140.912C80.1279 147.568 88.8319 150.64 95.9999 153.968C91.9039 151.408 82.4319 142.96 78.0799 135.536C74.4959 129.136 72.9598 122.224 72.4478 115.056C72.1918 112.24 72.1919 109.168 72.1919 106.352L71.9358 99.44C71.6798 106.096 69.8878 112.24 68.6078 118.64C65.7918 131.696 51.1999 145.264 43.5199 150.128C30.4639 135.536 20.9918 117.616 18.6878 99.6961C22.0158 103.28 26.8798 105.84 33.0238 106.608C25.5998 101.488 25.0879 97.904 21.7599 91.504C26.6239 97.904 34.5598 100.208 43.2638 99.6961C42.2398 98.9281 40.7038 98.416 39.4238 97.648C27.6478 89.712 18.9438 82.288 14.3358 70C12.0318 63.6 11.0079 56.432 11.5199 49.52V48.4961C8.19186 56.4321 6.65582 66.416 0.767824 73.584C-6.65618 82.032 -22.0161 90.48 -34.0481 94.064C-24.8321 94.576 -12.0322 93.552 -6.91218 86.384C-8.19218 91.504 -13.3121 96.368 -17.9201 99.952C-14.0801 98.928 -9.72811 97.392 -5.88811 95.6C-8.44811 100.464 -11.0081 105.328 -14.0801 110.192C-23.0401 125.04 -33.5362 141.424 -47.6162 152.688C-41.4722 150.64 -35.0722 148.592 -29.1842 145.776C-32.5122 151.408 -36.0962 156.784 -39.9362 161.648C-48.8962 153.968 -60.6722 140.912 -63.7442 122.224C-60.6722 125.552 -56.8322 128.624 -52.7362 130.672C-58.3682 123.504 -60.1602 115.568 -62.4642 109.424C-60.4162 116.08 -51.7122 119.152 -44.5442 122.48C-48.6402 119.92 -58.1122 111.472 -62.4642 104.048C-66.0482 97.648 -67.5842 90.736 -68.0962 83.568C-68.3522 80.752 -68.3522 77.68 -68.3522 74.864L-68.6081 67.952C-68.8641 74.608 -70.6562 80.752 -71.9362 87.152C-75.2642 102.768 -95.4881 119.152 -100.608 120.688C-92.4161 120.944 -86.2722 117.36 -81.6642 113.008C-82.9442 115.312 -85.5042 120.176 -88.5762 124.528C-99.0722 138.352 -114.176 157.296 -122.112 159.088C-115.712 161.648 -105.728 156.272 -100.096 152.176C-100.352 152.944 -100.608 153.712 -100.864 154.224C-100.864 154.48 -100.864 154.48 -101.12 154.736C-106.24 159.856 -112.64 163.44 -119.808 166.512C-114.176 166.768 -109.568 166 -105.984 164.72C-106.752 166 -107.264 167.024 -108.032 168.304C-114.176 179.056 -122.624 186.224 -133.12 191.856C-137.216 193.904 -141.056 195.696 -145.664 197.232C-135.68 201.072 -128 196.208 -120.064 190.576C-125.952 197.744 -134.4 202.608 -142.08 207.472C-137.216 210.032 -127.232 205.68 -122.624 203.376C-123.904 210.288 -129.792 218.48 -133.632 223.344C-141.568 233.584 -153.088 241.52 -163.328 249.2C-151.296 250.992 -139.008 244.592 -130.048 237.168C-136.192 246.64 -145.92 252.528 -154.112 259.696C-141.824 262.256 -130.304 251.76 -123.136 243.312C-124.416 250.224 -129.536 256.112 -133.12 261.744C-128 260.208 -122.112 257.136 -117.248 253.296V259.44C-119.552 262.256 -121.856 265.072 -124.16 267.888C-121.6 267.632 -119.296 266.608 -117.248 265.584V887.664H1939.2V293.744C1943.04 299.376 1947.65 304.24 1952 308.08C1950.72 296.304 1947.9 284.016 1947.14 272.24C1953.28 283.76 1966.59 293.488 1977.86 299.888C1970.18 290.672 1968.38 279.664 1964.29 268.912C1970.43 279.408 1990.4 294.768 2005.25 297.072C1993.98 290.16 1979.9 270.704 1974.78 259.696C1987.58 274.544 2013.7 284.528 2047.23 274.8ZM538.88 248.176C539.136 249.2 539.904 250.224 540.672 251.248C540.416 251.504 540.16 251.76 539.904 252.272C539.392 250.736 539.136 249.456 538.88 248.176ZM619.776 223.856C621.312 224.624 623.104 225.392 624.64 226.16C622.592 227.184 620.544 228.208 618.496 229.232C617.472 227.44 616.704 225.648 615.68 223.856C616.96 224.112 618.24 224.112 619.776 223.856ZM720.128 234.352C718.08 231.792 716.544 228.976 715.52 226.16C717.056 225.648 718.592 225.136 720.128 224.368C721.664 225.136 722.944 225.904 724.48 226.416C722.432 232.048 719.872 237.68 716.544 242.8C713.984 238.192 711.936 233.072 710.912 227.184C713.472 230 716.544 232.304 720.128 234.352ZM280.064 282.992C279.552 280.944 279.04 278.64 278.784 276.336C279.808 277.36 281.6 278.896 283.904 280.688C282.624 281.456 281.344 282.224 280.064 282.992ZM282.112 262.768C282.624 264.304 283.904 266.096 285.696 267.632C285.44 267.632 285.44 267.632 285.184 267.888C285.44 267.888 285.44 267.888 285.696 267.888C285.44 268.656 285.184 269.424 285.184 270.192C285.952 269.936 286.72 269.424 287.232 269.168C287.744 269.424 288 269.936 288.512 270.192C287.744 270.448 287.232 270.96 286.464 271.216C287.744 271.216 288.512 271.216 289.536 271.216C290.304 271.728 291.072 272.24 291.584 272.752C290.56 274.544 289.28 276.08 288 277.36C284.928 271.984 282.624 266.608 282.112 262.768ZM295.168 264.816C295.168 265.072 295.168 265.072 295.168 265.328V265.584C294.144 266.608 293.376 267.376 292.096 267.888C291.84 267.632 291.584 267.12 291.328 266.864C292.608 266.352 293.888 265.584 295.168 264.816ZM284.928 288.624H284.416C284.672 288.624 284.672 288.624 284.928 288.624ZM286.464 257.648C286.72 258.16 286.72 258.672 286.72 258.928C286.464 258.672 286.208 258.16 286.208 257.904C286.208 257.904 286.208 257.648 286.464 257.648ZM285.952 282.48C284.672 284.272 282.88 285.552 281.344 286.832C281.088 286.32 281.088 285.808 280.832 285.552C282.624 284.784 284.16 283.76 285.952 282.48ZM314.88 266.096C314.88 266.352 315.136 266.608 315.136 266.608C315.136 266.608 315.136 266.864 314.88 266.864C315.136 266.864 315.136 266.352 314.88 266.096ZM224.512 246.896C224.256 246.128 224 245.36 223.744 244.336C224.256 244.848 224.768 245.36 225.536 245.616C225.024 246.128 224.768 246.64 224.512 246.896ZM546.304 257.392C546.56 257.648 546.56 257.648 546.816 257.904C546.048 259.44 545.024 260.976 544 262.512C543.744 261.744 543.232 261.232 542.976 260.464C544.256 259.44 545.28 258.416 546.304 257.392ZM541.952 265.072C540.928 266.352 539.904 267.888 538.624 269.168C538.368 267.888 537.856 266.608 537.6 265.328C537.6 264.816 537.344 264.304 537.344 263.792C538.112 263.536 538.88 263.024 539.392 262.512C540.416 263.28 541.184 264.048 541.952 265.072ZM718.592 266.864C718.336 265.84 717.824 265.072 717.568 264.048C718.592 263.28 719.36 262.768 719.872 262.256C719.36 264.048 718.848 265.584 718.592 266.864ZM715.264 256.624C715.008 255.856 714.752 255.088 714.752 254.32C715.264 254.576 715.52 255.088 716.032 255.344C715.776 255.6 715.52 256.112 715.264 256.624ZM771.584 239.728C771.328 239.728 771.328 239.984 771.584 239.728C770.816 240.496 770.048 241.264 769.536 241.776C769.28 241.52 769.024 241.264 768.768 240.752C770.048 239.984 771.072 239.472 772.096 238.704C771.84 239.216 771.584 239.472 771.584 239.728ZM627.712 232.304C626.688 234.352 625.408 236.144 624.128 237.936C623.872 237.68 623.872 237.424 623.616 237.168C622.08 235.12 620.8 232.816 619.52 230.512C623.616 230.512 626.944 229.744 629.76 228.72C628.992 230 628.224 231.28 627.712 232.304ZM1056.26 231.024C1056.51 231.28 1056.77 231.536 1057.02 231.536V231.792C1056.77 231.792 1056.51 231.536 1056.26 231.024ZM1316.86 300.144C1316.61 299.632 1316.1 299.12 1315.84 298.608C1316.35 298.352 1316.86 298.096 1317.38 297.584C1317.12 298.608 1317.12 299.376 1316.86 300.144ZM1189.63 240.496L1189.89 240.752C1189.63 241.264 1189.38 241.776 1189.12 242.288C1188.86 241.776 1188.61 241.264 1188.61 241.008C1188.86 241.008 1189.38 240.752 1189.63 240.496ZM1165.31 302.96C1165.31 303.216 1165.57 303.216 1165.57 303.472H1165.31C1165.31 303.216 1165.31 303.216 1165.31 302.96ZM861.952 260.72C863.232 259.952 864.512 258.928 865.536 258.416C865.536 260.464 865.024 262.512 864.256 264.816C863.488 263.28 862.72 262 861.952 260.72ZM1498.11 253.04C1498.11 253.296 1498.37 253.296 1498.37 253.552C1498.37 253.296 1498.11 253.296 1498.11 253.04ZM1384.19 299.376C1383.94 298.352 1383.68 297.328 1383.42 296.304C1383.68 296.56 1384.19 297.072 1384.7 297.328C1384.7 298.096 1384.45 298.608 1384.19 299.376ZM1571.07 270.448C1571.33 270.704 1571.33 270.704 1571.58 270.96C1571.58 270.96 1571.58 270.96 1571.58 271.216C1571.33 270.704 1571.07 270.704 1571.07 270.448ZM1597.7 301.68C1597.95 301.168 1598.21 300.912 1598.21 300.4C1598.21 300.912 1598.21 301.168 1598.46 301.68H1597.7ZM1636.35 250.224C1636.61 250.736 1636.86 250.992 1637.12 251.504L1636.86 251.76C1636.86 251.248 1636.61 250.736 1636.35 250.224ZM1650.43 271.472C1650.43 271.728 1650.43 271.984 1650.69 272.24C1650.43 271.984 1650.43 271.728 1650.18 271.728C1650.18 271.728 1650.18 271.728 1650.43 271.472ZM1659.9 282.48C1661.18 280.944 1662.46 279.152 1663.23 277.872C1663.49 278.896 1663.74 280.176 1664 281.456L1659.9 282.48ZM1719.3 208.752C1719.3 208.496 1719.04 208.24 1719.04 208.24C1719.81 207.728 1720.32 207.216 1721.09 206.704C1720.32 207.216 1719.81 207.984 1719.3 208.752ZM1800.45 181.872C1796.35 174.192 1793.02 166 1790.21 157.552C1796.1 161.904 1802.24 164.464 1809.41 166.256C1807.1 171.888 1804.03 177.008 1800.45 181.872ZM1715.71 201.584C1715.2 200.56 1714.94 199.792 1714.43 198.768C1715.2 199.28 1716.22 199.792 1716.99 200.304C1716.48 200.816 1716.22 201.072 1715.71 201.584ZM1571.84 256.368C1571.58 256.112 1571.58 255.856 1571.33 255.6C1572.1 254.832 1573.12 254.32 1573.89 253.552C1573.38 254.576 1572.61 255.344 1571.84 256.368ZM1502.21 247.408C1501.44 246.128 1500.67 244.592 1499.9 243.568C1499.65 243.056 1499.39 242.544 1499.14 242.032C1501.95 240.752 1504.51 239.472 1507.07 237.936C1505.54 241.008 1504 244.336 1502.21 247.408ZM1317.38 286.832C1317.38 286.576 1317.12 286.576 1317.12 286.32C1317.63 285.808 1318.14 285.552 1318.66 285.04C1318.14 285.552 1317.89 286.064 1317.38 286.832ZM1313.28 291.184C1312.77 291.696 1312.51 291.952 1312 292.464C1311.74 291.952 1311.23 291.184 1310.98 290.672C1311.23 290.416 1311.74 290.16 1312 290.16C1312.51 290.416 1313.02 290.928 1313.28 291.184ZM1246.72 287.344C1246.46 286.576 1246.21 285.808 1245.95 285.04C1245.18 282.992 1244.42 280.432 1243.9 277.872C1245.18 278.896 1247.23 280.432 1249.54 281.968C1248.26 283.76 1247.49 285.552 1246.72 287.344ZM1194.24 230C1194.24 230.256 1194.24 230.256 1193.98 230.512C1193.47 231.28 1192.7 231.792 1192.19 232.56C1191.94 232.048 1191.42 231.536 1191.17 231.024C1192.45 230 1193.73 228.976 1194.75 227.952C1194.5 228.464 1194.5 229.232 1194.24 230ZM1116.16 247.92C1116.16 247.664 1115.9 247.664 1115.9 247.408C1116.16 246.896 1116.67 246.64 1116.93 246.128C1116.67 246.64 1116.42 247.152 1116.16 247.92ZM972.544 229.488C972.288 230.256 972.032 231.024 971.776 231.536C971.52 231.28 971.52 230.768 971.264 230.512C971.52 230 971.776 229.744 972.032 229.232C972.544 229.488 972.544 229.488 972.544 229.488ZM958.464 186.736C958.976 187.248 959.744 187.76 960.256 188.016C959.744 188.272 959.488 188.528 958.976 188.784C958.976 188.272 958.72 187.504 958.464 186.736ZM858.368 255.088C857.856 254.32 857.344 253.552 856.832 252.784C859.136 251.248 861.44 249.456 863.744 247.408C864 247.408 864.256 247.664 864.512 247.664C862.72 250.48 860.672 252.784 858.368 255.088ZM795.648 242.8C795.136 244.08 794.624 245.36 793.856 246.64C793.344 245.36 793.088 244.08 792.576 242.8C793.088 242.544 793.6 242.288 794.112 241.776C794.624 242.032 795.136 242.544 795.648 242.8ZM766.72 237.936C765.952 236.656 765.184 235.12 764.416 233.84C763.904 232.816 763.648 231.792 763.136 230.768C765.44 231.792 768 232.56 771.328 232.816C769.792 234.608 768.256 236.4 766.72 237.936ZM724.48 225.904C723.712 225.136 722.688 224.368 721.664 223.6C723.2 222.832 724.736 221.808 726.272 220.784C725.76 222.32 725.248 224.112 724.48 225.904ZM548.352 255.344C548.096 255.6 548.096 255.856 547.84 256.112C547.84 256.112 547.84 256.112 547.584 255.856C548.096 255.6 548.096 255.344 548.352 255.344C548.352 255.344 548.352 255.088 548.352 255.344ZM432.384 258.16C432.384 258.416 432.128 258.672 431.872 258.928C431.872 258.928 431.872 258.928 431.616 258.672C431.872 258.672 432.128 258.416 432.384 258.16ZM428.8 263.792C427.008 266.352 424.96 268.912 422.656 271.472C421.632 269.936 420.864 268.4 419.84 266.608C422.656 265.584 424.96 264.304 426.752 263.024C427.776 263.28 428.288 263.536 428.8 263.792ZM418.048 262.512C417.28 260.72 416.512 258.672 416 256.88C417.28 257.648 419.072 258.672 421.376 259.952C420.352 260.72 419.328 261.744 418.048 262.512ZM336.384 218.992C334.848 221.552 333.056 223.856 331.008 226.16C329.984 224.368 329.216 222.832 328.192 221.552C327.424 220.272 326.4 218.992 325.632 217.712C330.752 217.2 335.104 216.432 338.688 215.152C337.92 216.432 337.152 217.712 336.384 218.992ZM324.608 215.92C324.096 214.64 323.328 213.616 322.816 212.336C324.352 213.104 325.888 213.872 327.424 214.64C326.4 215.152 325.632 215.664 324.608 215.92ZM284.416 233.84C282.88 236.144 280.832 238.96 278.784 241.264C278.272 239.984 278.016 238.704 277.504 237.424C280.064 236.4 282.368 235.12 283.904 233.584C283.904 233.584 284.16 233.84 284.416 233.84ZM229.376 239.728C228.864 240.496 228.608 241.008 228.096 241.776C227.072 240.496 226.048 239.216 225.024 237.936C227.328 237.68 229.376 237.168 231.168 236.656C230.656 237.424 230.144 238.448 229.376 239.728ZM164.864 276.592C164.864 276.336 164.864 276.336 164.608 276.08C164.864 276.08 164.864 276.08 165.12 275.824C165.12 276.336 164.864 276.592 164.864 276.592ZM97.0238 191.6C96.5118 191.088 95.9998 190.832 95.4878 190.32C96.2558 189.808 97.2798 189.296 98.0478 188.784C97.7918 189.552 97.2798 190.576 97.0238 191.6ZM94.7199 196.208C94.2079 196.976 93.9519 197.744 93.4399 198.768C91.6479 202.352 89.8558 205.936 87.8078 209.52C84.9918 203.12 82.9438 196.208 81.4078 189.296C81.6638 189.296 82.1759 189.296 82.4319 189.296C86.2719 192.112 90.1119 194.416 94.7199 196.208ZM40.4478 171.888C37.8878 165.232 35.8398 158.32 33.5358 151.408C38.1438 155.504 43.7759 158.832 49.1519 160.88C46.3359 164.464 43.5198 168.304 40.4478 171.888ZM-50.1762 196.72C-50.4322 196.976 -50.4321 197.232 -50.6881 197.488C-50.6881 197.232 -50.6882 196.976 -50.9442 196.72C-50.6882 196.72 -50.4322 196.72 -50.1762 196.72ZM1639.94 278.64C1643.01 276.848 1645.82 275.056 1648.13 273.264C1649.15 273.776 1649.92 274.288 1650.69 274.544C1650.94 277.872 1650.43 280.432 1648.9 285.552L1645.06 286.832C1643.01 284.272 1641.47 281.456 1639.94 278.64ZM1674.24 276.08C1674.24 276.848 1674.24 277.872 1674.24 278.64L1673.47 278.896C1673.73 277.872 1673.98 276.848 1674.24 276.08ZM1867.52 189.552C1866.24 191.6 1864.96 193.648 1863.42 195.44C1861.12 192.112 1858.82 188.784 1856.77 185.456C1860.35 186.992 1863.94 188.272 1867.52 189.552ZM1812.99 139.12C1810.18 144.752 1809.66 147.824 1803.26 152.176C1808.38 151.408 1812.48 149.104 1815.3 146.032C1814.78 151.152 1813.25 156.528 1811.46 161.648C1806.34 157.808 1800.45 152.688 1795.33 146.288C1802.5 146.288 1808.9 144.496 1812.99 139.12ZM1638.91 243.568C1638.66 243.056 1638.4 242.8 1638.14 242.288C1637.12 240.752 1636.35 239.216 1635.33 237.68C1642.24 235.888 1647.1 232.048 1650.69 228.464C1647.87 232.816 1643.78 238.704 1638.91 243.568ZM1644.03 224.112C1640.96 227.696 1637.63 231.024 1633.28 233.84C1630.46 228.464 1628.16 222.832 1626.37 216.944C1631.49 220.528 1637.12 222.832 1644.03 224.112ZM1576.19 243.312C1574.14 245.872 1571.58 248.432 1569.02 250.736C1566.72 246.128 1564.93 241.264 1562.62 236.656C1566.98 239.472 1571.58 242.032 1576.19 243.312ZM1509.12 221.808C1505.79 227.696 1501.95 233.584 1497.34 238.704C1492.99 230.512 1489.41 221.552 1486.85 212.336C1493.76 217.712 1500.67 220.528 1509.12 221.808ZM1387.78 252.016C1386.24 255.088 1384.45 257.904 1382.4 260.464C1385.98 258.416 1389.57 256.112 1392.9 253.296H1393.15C1391.62 258.16 1390.08 262.768 1387.78 267.12C1387.26 268.4 1386.5 269.68 1385.98 271.216C1381.12 263.28 1377.28 254.576 1374.46 245.616C1378.82 248.688 1382.91 250.736 1387.78 252.016ZM1316.61 261.744C1316.86 261.744 1317.12 261.744 1317.12 261.744C1317.12 261.744 1317.12 261.744 1316.86 261.488C1322.24 261.232 1326.34 260.208 1329.66 258.672C1329.15 259.952 1328.64 261.232 1328.13 262.256C1324.54 269.936 1319.68 276.08 1313.79 281.456C1308.93 273.264 1306.11 263.28 1302.78 254.064C1306.88 257.904 1312 260.72 1316.61 261.744ZM1261.31 255.088C1259.78 259.184 1257.98 263.28 1256.19 267.12C1254.66 265.072 1253.12 263.024 1251.58 260.976C1254.91 259.44 1258.24 257.392 1261.31 255.088ZM1254.14 271.472C1253.38 273.008 1252.61 274.544 1251.84 276.08C1248.77 271.472 1246.72 266.864 1245.7 263.28C1246.98 266.096 1250.56 269.168 1254.14 271.472ZM1200.9 203.376C1198.59 202.096 1195.26 200.048 1191.68 197.232C1199.36 196.72 1205.25 192.624 1209.09 188.272C1208.06 190.576 1205.76 195.696 1203.46 200.048C1198.59 207.728 1192.7 216.944 1186.82 224.368C1181.18 215.152 1176.58 205.168 1173.25 194.672C1181.44 200.304 1189.89 202.864 1200.9 203.376ZM1112.83 241.008C1110.27 236.144 1108.22 230.512 1105.92 225.136C1109.76 228.208 1114.37 230.768 1118.72 233.072C1116.93 235.888 1115.14 238.704 1112.83 241.008ZM985.856 180.336C982.272 193.136 977.152 205.68 970.496 216.944C970.496 216.944 970.496 216.944 970.496 217.2C967.68 211.312 965.12 205.168 962.816 199.024C961.792 196.72 961.024 194.16 960 191.6C961.536 191.344 963.072 191.088 964.352 190.576C964.608 190.832 965.12 191.088 965.376 191.088C965.12 190.832 965.12 190.576 964.864 190.32C967.936 189.552 971.008 188.528 973.824 187.248C974.336 187.248 975.104 187.248 975.616 187.248C975.36 186.992 975.104 186.992 974.848 186.736C978.688 185.2 982.272 182.896 985.856 180.336ZM964.608 184.688C963.84 185.456 963.072 185.968 962.304 186.48C961.024 184.176 959.744 181.872 959.488 179.568C960.512 181.872 962.304 183.664 964.608 184.688ZM936.704 208.24C934.656 212.592 932.352 216.688 929.536 220.528C925.952 214.64 922.88 208.24 920.576 201.84C925.696 205.168 930.816 207.216 936.704 208.24ZM866.048 245.36C865.536 246.128 865.28 246.64 864.768 247.152C864.512 246.896 864.512 246.896 864.256 246.64C865.024 246.384 865.536 245.872 866.048 245.36ZM854.272 248.176C852.992 245.872 851.712 243.568 850.688 241.264C852.992 242.8 855.552 244.08 858.112 245.104C856.832 246.128 855.552 247.152 854.272 248.176ZM775.68 227.696C774.656 229.232 773.376 230.512 772.096 232.048C767.232 229.488 763.136 226.416 759.808 222.576C759.808 222.576 759.808 222.32 759.552 222.32C759.296 221.808 759.04 221.296 759.04 220.528C763.136 224.112 770.304 228.72 775.68 227.696ZM715.008 221.04C714.496 221.296 714.24 221.808 713.728 222.064C712.96 220.272 712.448 218.48 711.936 216.688C712.704 218.48 713.728 220.016 715.008 221.04ZM696.32 219.76C695.808 220.784 694.784 222.576 693.504 224.88C692.992 224.368 692.48 223.856 691.712 223.344C693.504 222.064 695.04 221.04 696.32 219.76ZM685.056 225.648C687.104 226.672 689.152 227.44 691.2 228.208C690.944 228.464 690.688 228.72 690.688 229.232C688.128 232.56 685.312 236.144 682.496 239.728C679.68 233.328 677.632 226.416 676.096 219.504C678.4 221.552 680.704 223.088 683.264 224.624C682.24 225.136 681.472 225.648 680.96 225.904C682.496 225.904 683.776 225.904 685.056 225.648ZM635.392 216.432C635.136 217.2 634.88 217.968 634.624 218.48C634.624 218.736 634.624 218.736 634.368 218.992C632.064 221.296 629.504 223.344 626.688 225.136C625.92 224.368 625.152 223.6 624.64 222.832C628.736 221.04 632.576 218.736 635.392 216.432ZM615.168 222.832C614.912 222.064 614.4 221.552 614.144 220.784C614.912 221.296 615.68 221.808 616.448 222.064C615.936 222.576 615.68 222.832 615.168 222.832ZM541.44 224.88C539.904 226.16 538.112 227.44 536.832 228.72C539.648 228.464 542.464 227.696 545.024 226.416C546.56 226.928 548.096 227.44 549.888 227.952C549.12 227.44 548.352 226.416 547.328 225.648C550.656 224.112 553.728 222.32 556.8 220.272C552.704 229.744 549.12 239.472 543.488 247.92C542.464 245.616 541.44 243.568 540.928 241.776C538.112 234.864 535.808 227.184 534.528 219.504C536.32 221.552 538.88 223.344 541.44 224.88ZM495.104 242.032C492.544 238.192 490.24 233.84 487.936 229.488C491.776 231.792 496.384 233.84 500.48 235.376C498.944 237.936 497.152 240.24 495.104 242.032ZM439.296 228.72C437.248 233.584 435.2 238.704 432.64 243.568C429.824 240.752 427.52 237.936 425.216 235.376C430.08 234.352 434.944 231.792 439.296 228.72ZM429.824 248.944C429.056 250.48 428.032 252.016 427.008 253.296C423.424 248.944 420.864 244.336 419.584 241.008C421.12 243.568 425.472 246.384 429.824 248.944ZM345.856 201.584C345.6 202.352 345.344 203.12 344.832 203.888C344.832 204.144 344.576 204.144 344.576 204.4C340.224 208.24 335.104 211.312 329.216 214.128C328.192 213.104 327.168 211.824 326.4 210.544C333.568 208.496 340.992 204.912 345.856 201.584ZM276.48 234.608C275.712 232.304 275.2 230 274.688 227.696C276.224 228.976 278.016 230.256 279.808 231.28C278.784 232.56 277.76 233.584 276.48 234.608ZM236.8 224.88C236.544 225.648 236.288 226.16 236.032 226.672C236.032 226.672 236.032 226.928 235.776 226.928C232.448 230.512 228.096 233.072 223.744 235.376C222.976 234.096 222.208 233.072 221.44 231.792C226.816 231.28 232.704 227.696 236.8 224.88ZM179.712 241.52C177.664 245.104 175.36 248.432 173.056 251.504C171.776 249.456 170.752 247.408 169.728 245.36C173.056 244.336 176.384 243.056 179.712 241.52ZM169.984 255.344C169.216 256.368 168.448 257.392 167.68 258.416C165.888 254.576 164.864 250.736 164.352 247.664C165.12 250.224 167.424 253.04 169.984 255.344ZM163.584 264.56C163.072 265.328 162.56 265.84 162.048 266.352C161.792 265.072 161.536 263.536 161.28 262.256C161.792 262.768 162.56 263.536 163.584 264.56ZM125.952 188.784C124.928 190.32 123.904 191.6 122.88 193.136C118.528 190.576 118.016 188.272 115.712 184.432C118.272 187.504 121.856 188.784 125.952 188.784ZM122.368 193.648C120.576 195.952 119.04 198 117.248 200.304C115.712 196.976 114.688 193.648 113.92 190.064C116.224 191.856 119.04 193.136 122.368 193.648ZM97.0238 182.896C96.7678 184.944 95.4879 186.736 93.9519 188.528C93.4399 188.016 92.9279 187.248 92.1599 186.736C94.2079 185.968 95.9998 184.688 97.0238 182.896ZM81.4078 188.784C81.4078 188.528 81.4079 188.272 81.1519 188.272C81.4079 188.528 81.4078 188.528 81.6638 188.784C81.6638 188.528 81.4078 188.528 81.4078 188.784ZM58.6238 146.032C57.3438 148.336 54.7839 153.2 51.7119 157.552C51.4559 158.064 50.9438 158.576 50.6878 159.088C49.9198 158.32 48.8958 157.296 48.1278 156.528C47.1038 155.504 46.0798 154.224 45.0558 153.2C50.6878 152.176 55.0398 149.36 58.6238 146.032ZM-42.2401 166C-45.0561 169.84 -48.3842 174.704 -51.7122 179.312C-54.7842 172.144 -57.3442 164.464 -59.1362 156.784C-54.2722 161.136 -48.8961 163.952 -42.2401 166Z" fill="#9C242D"/>
</svg>
