<svg width="837" height="325" viewBox="0 0 837 325" fill="none" xmlns="http://www.w3.org/2000/svg">
<path d="M820.546 100.256C821.531 95.358 821.782 88.9189 817.431 87.2858C810.804 84.8447 806.07 97.4836 798.596 94.5133C795.473 93.1762 794.615 87.8348 793.745 84.7004C792.409 80.8037 790.293 77.1743 788.012 73.9601C785.248 69.7845 772.354 62.0639 777.252 56.0292C781.588 50.4438 794.113 56.1906 797.811 47.852C798.505 46.5892 798.221 45.6108 797.555 44.8656C799.313 44.314 800.622 43.1993 800.52 42.0047C800.4 40.6111 798.307 39.5869 795.719 39.8084C793.33 40.0129 791.441 41.3779 791.344 42.5895C787.891 42.0828 784.057 41.8093 782.163 40.7681C779.206 39.0157 778.336 35.8813 774.485 35.4087C773.671 35.2778 772.858 35.1468 772.062 35.215C771.994 34.4186 771.925 33.6223 772.107 33.4061C772.671 32.9568 774.047 32.6384 775.424 32.3201C776.601 32.0187 777.597 31.9335 778.558 31.4501C782.603 29.4995 785.567 26.6387 787.484 23.2658C791.017 22.3618 794.498 20.8605 795.881 15.9289C796.752 12.0439 796.343 7.26566 794.79 3.18694C794.523 2.40761 793.494 2.09462 792.714 2.36188C791.935 2.62913 791.622 3.65868 791.889 4.43801C793.191 7.93649 793.731 11.9013 792.809 15.189C792.217 17.6463 790.909 18.761 788.969 19.5287C789.265 18.3001 789.544 16.8724 789.425 15.4787C789.556 14.6653 789.289 13.886 789.22 13.0896C789.186 12.6914 789.152 12.2932 789.135 12.0941C789.067 11.2977 788.202 10.5695 787.406 10.6377C786.61 10.7059 785.882 11.5704 785.95 12.3668C785.984 12.7649 786.018 13.1631 786.052 13.5613C786.103 14.1586 786.171 14.955 786.222 15.5523C786.279 18.5557 785.306 21.2462 783.701 23.5895C783.502 23.6066 783.121 23.8397 782.075 23.3277C780.613 22.6506 780.709 21.439 781.284 18.7826C781.267 18.5835 781.433 18.1683 781.415 17.9692C781.546 17.1558 781.08 16.3935 780.067 16.2796C779.254 16.1487 778.509 16.8141 778.179 17.6446C778.196 17.8437 778.014 18.0598 778.048 18.458C777.655 20.8982 776.949 24.368 780.322 26.2854C780.538 26.4674 780.737 26.4504 780.737 26.4504C779.611 27.349 778.467 28.0485 777.125 28.7651C776.545 29.0153 775.566 29.2996 774.77 29.3677C772.995 29.7202 771.021 30.0897 769.73 31.4035C768.439 32.7174 768.592 34.5092 768.694 35.7038C768.296 35.7379 767.699 35.789 767.3 35.8231C765.913 31.3291 761.499 31.3058 758.114 31.5955C754.514 31.7031 750.282 31.4637 746.562 30.1776C746.744 29.9615 746.909 29.5463 747.091 29.3302C748.263 26.6227 746.762 23.1412 745.96 20.8032C745.943 20.6041 745.71 20.223 745.693 20.0239C745.425 19.2446 744.396 18.9316 743.616 19.1988C742.837 19.4661 742.325 20.5127 742.791 21.275C742.808 21.4741 743.042 21.8552 743.059 22.0543C743.792 23.5959 744.861 26.7132 744.383 28.158C744.4 28.3571 744.218 28.5733 743.837 28.8064C741.511 27.4011 739.531 25.3645 738.098 22.6794C737.365 21.1378 737.046 19.7611 736.944 18.5666C736.876 17.7702 736.011 17.042 735.232 17.3092C734.436 17.3774 733.707 18.242 733.776 19.0383C733.912 20.6311 734.446 22.1897 735.214 24.1295C735.697 25.0909 736.181 26.0523 736.846 26.7976C734.423 26.6039 732.558 23.5547 732.342 23.3726C730.943 21.0858 730.056 17.7523 729.681 13.3723C729.612 12.5759 728.748 11.8477 727.969 12.1149C727.172 12.1831 726.444 13.0476 726.512 13.844C726.921 18.6222 727.842 22.3539 729.474 25.0219C730.657 27.1267 733.951 30.4548 737.716 29.9319C738.114 29.8978 738.695 29.6477 739.093 29.6136C744.297 34.1819 751.8 35.1442 757.989 34.815C761.59 34.7074 763.199 34.7702 763.933 36.3118C759.155 36.7208 739.603 42.6057 750.513 45.8836C756.452 44.9742 753.977 44.1832 757.709 43.2622C750.791 51.4752 758.241 65.879 760.35 74.1216C762.545 83.3597 759.467 87.233 750.649 91.9987C743.374 96.0308 737.549 95.9277 730.114 95.7618C725.865 95.3233 716.456 95.5269 711.502 98.5582C710.251 95.657 707.725 94.2687 704.403 92.9486C700.285 91.6967 693.101 92.111 690.223 88.9479C691.895 94.4203 694.414 100.422 700.375 102.118C702.218 102.562 704.624 102.556 706.797 102.17C706.797 102.17 706.598 102.187 706.615 102.386C686.461 105.916 665.743 109.895 645.111 114.87C644.662 114.306 644.031 113.959 643.217 113.828C640.544 113.055 638.092 114.869 635.873 117.064C632.141 117.985 628.211 118.923 624.496 120.043C623.717 120.311 622.721 120.396 621.942 120.663C620.759 118.558 620.321 115.788 619.77 114.03C618.434 110.134 616.352 106.902 614.088 103.887C611.341 99.9108 598.566 93.5838 603.414 86.9519C607.698 80.7692 620.12 85.3214 623.785 76.5846C624.462 75.1228 624.178 74.1444 623.529 73.5982C625.27 72.8476 626.561 71.5337 626.476 70.5383C626.357 69.1446 624.281 68.3195 621.727 68.9393C619.372 69.5419 617.483 70.9069 617.403 72.3176C613.984 72.2091 610.185 72.3338 608.307 71.4917C605.384 70.1375 604.514 67.0031 600.68 66.7296C599.867 66.5986 599.07 66.6668 598.274 66.735C598.206 65.9386 598.138 65.1422 598.32 64.9261C598.866 64.2777 600.242 63.9593 601.42 63.658C602.597 63.3566 603.576 63.0723 604.52 62.3899C608.531 60.0411 611.461 56.782 613.361 53.21C616.86 51.9078 620.307 50.0084 621.673 44.8777C622.527 40.7936 622.118 36.0153 620.582 32.1357C620.315 31.3564 619.285 31.0434 618.523 31.5098C617.761 31.9761 617.448 33.0057 617.698 33.5859C618.983 36.8853 619.54 41.0492 618.618 44.3369C618.026 46.7942 616.735 48.108 614.829 49.2739C615.108 47.8462 615.404 46.6175 615.268 45.0248C615.2 44.2284 615.131 43.432 615.063 42.6356C615.029 42.2375 614.995 41.8393 614.978 41.6402C614.91 40.8438 614.062 40.3147 613.266 40.3829C612.487 40.6501 611.758 41.5146 611.826 42.311C611.861 42.7092 611.895 43.1074 611.929 43.5056C611.98 44.1029 612.048 44.8992 612.099 45.4965C612.156 48.5 611.2 51.3895 609.595 53.7329C609.396 53.7499 609.032 54.1822 607.986 53.6701C606.524 52.993 606.638 51.9805 607.212 49.3241C607.195 49.125 607.36 48.7098 607.343 48.5107C607.474 47.6973 607.008 46.935 605.995 46.8211C605.182 46.6902 604.454 47.5547 604.124 48.3852C604.141 48.5843 603.976 48.9995 603.993 49.1986C603.6 51.6388 602.911 55.3077 606.25 56.8269C606.449 56.8098 606.665 56.9919 606.665 56.9919C605.539 57.8905 604.413 58.7891 603.087 59.7048C602.507 59.955 601.529 60.2393 600.749 60.5066C598.991 61.0581 597.035 61.6267 595.743 62.9405C594.469 64.4535 594.605 66.0462 594.707 67.2408C594.11 67.2919 593.729 67.5251 593.331 67.5591C591.943 63.0652 587.58 63.6392 584.213 64.1279C580.646 64.6337 576.448 64.7925 572.745 63.7056C572.927 63.4894 573.092 63.0742 573.274 62.8581C574.429 59.9515 572.945 56.6691 572.143 54.3311C572.126 54.1321 571.893 53.7509 571.876 53.5518C571.609 52.7725 570.579 52.4595 569.817 52.9258C569.055 53.3922 568.526 54.2397 568.992 55.002C569.009 55.2011 569.242 55.5822 569.259 55.7813C569.993 57.3229 571.045 60.2412 570.584 61.885C570.601 62.0841 570.419 62.3003 570.038 62.5334C567.728 61.3272 565.766 59.4896 564.333 56.8046C563.599 55.2629 563.281 53.8864 563.179 52.6918C563.111 51.8954 562.263 51.3663 561.467 51.4345C560.687 51.7017 559.959 52.5662 560.027 53.3626C560.164 54.9554 560.698 56.514 561.449 58.2547C561.932 59.2161 562.416 60.1775 563.081 60.9228C560.675 60.9282 558.81 57.879 558.61 57.896C557.211 55.6091 556.324 52.2757 555.967 48.0947C555.898 47.2984 555.051 46.7692 554.255 46.8374C553.475 47.1046 552.747 47.9692 552.815 48.7655C553.224 53.5438 554.145 57.2755 555.777 59.9435C556.96 62.0483 560.219 64.9782 563.951 64.0571C564.349 64.0231 564.929 63.7729 565.311 63.5397C570.481 67.7099 577.915 67.8757 584.07 67.1484C587.637 66.6426 589.247 66.7054 589.963 68.0479C585.236 69.0542 565.821 76.5319 576.662 79.0133C582.567 77.7057 580.093 76.9147 583.808 75.7946C576.941 84.605 584.356 98.6105 586.449 106.654C588.643 115.892 585.582 119.965 576.833 125.527C569.625 130.355 564.034 130.633 556.451 131.082C552.236 131.041 542.896 132.041 537.975 135.471C536.724 132.569 534.215 131.38 530.928 130.458C526.827 129.406 519.693 130.417 516.832 127.453C518.487 132.727 521.006 138.728 526.933 140.026C528.759 140.27 531.148 140.066 533.304 139.48C531.598 140.629 530.608 143.121 530.016 145.578C513.183 150.428 496.351 155.278 479.519 160.128C479.428 156.726 478.592 153.99 475.936 153.415C469.395 151.97 464.763 165.803 457.374 163.828C454.285 162.889 453.427 157.548 452.574 154.613C451.238 150.716 449.156 147.485 446.909 144.669C444.18 140.891 431.421 134.763 436.252 127.932C440.519 121.551 452.907 125.705 456.555 116.769C457.232 115.307 456.947 114.328 456.299 113.782C458.04 113.032 459.331 111.718 459.229 110.523C459.11 109.13 457.051 108.504 454.497 109.123C452.142 109.726 450.27 111.29 450.19 112.701C446.788 112.791 442.989 112.916 441.129 112.273C438.205 110.919 437.352 107.984 433.535 107.909C432.722 107.778 431.925 107.846 431.146 108.114C431.078 107.317 431.01 106.521 431.192 106.305C431.738 105.656 433.098 105.139 434.275 104.837C435.453 104.536 436.414 104.053 437.375 103.569C441.369 101.022 444.299 97.7625 446.182 93.9914C449.664 92.4901 453.111 90.5906 454.46 85.2608C455.313 81.1767 454.905 76.3985 453.369 72.5189C453.102 71.7396 452.089 71.6257 451.327 72.092C450.565 72.5583 450.252 73.5879 450.519 74.3672C451.804 77.6666 452.361 81.8305 451.439 85.1183C450.847 87.5755 449.573 89.0885 447.667 90.2544C447.946 88.8266 448.225 87.3989 448.106 86.0052C448.237 85.1918 447.969 84.4125 447.901 83.6161C447.867 83.2179 447.833 82.8197 447.816 82.6206C447.748 81.8243 446.9 81.2951 446.121 81.5624C445.342 81.8296 444.613 82.6942 444.682 83.4906C444.716 83.8888 444.75 84.2869 444.784 84.6851C444.835 85.2824 444.903 86.0788 444.954 86.6761C445.011 89.6795 444.055 92.569 442.467 95.1115C442.268 95.1286 441.904 95.5608 440.875 95.2478C439.43 94.7698 439.527 93.5582 440.102 90.9019C440.085 90.7028 440.25 90.2875 440.233 90.0884C440.363 89.275 439.897 88.5128 438.885 88.3989C438.088 88.467 437.343 89.1325 437.013 89.9629C437.03 90.162 436.865 90.5772 436.882 90.7763C436.489 93.2165 435.801 96.8854 439.122 98.2055C439.321 98.1885 439.339 98.3876 439.538 98.3706C438.428 99.4683 437.302 100.367 435.976 101.283C435.396 101.533 434.435 102.016 433.655 102.283C431.898 102.835 429.958 103.603 428.666 104.916C427.392 106.429 427.545 108.221 427.648 109.416C427.05 109.467 426.669 109.7 426.271 109.734C424.884 105.24 420.538 106.013 417.17 106.502C413.621 107.207 409.423 107.366 405.737 106.478C405.919 106.262 406.084 105.846 406.266 105.63C407.421 102.724 405.937 99.4414 405.135 97.1034C405.118 96.9043 404.885 96.5232 404.868 96.3241C404.6 95.5448 403.571 95.2318 402.808 95.6981C402.046 96.1645 401.534 97.2111 402 97.9734C402.018 98.1724 402.251 98.5536 402.268 98.7527C403.001 100.294 404.053 103.213 403.592 104.856C403.41 105.073 403.427 105.272 403.046 105.505C400.737 104.299 398.792 102.66 397.359 99.9751C396.625 98.4334 396.324 97.2559 396.221 96.0614C396.153 95.265 395.306 94.7359 394.526 95.0031C393.747 95.2704 393.019 96.1349 393.087 96.9313C393.223 98.524 393.758 100.083 394.508 101.823C394.992 102.785 395.458 103.547 396.141 104.491C393.735 104.497 391.886 101.647 391.67 101.465C390.271 99.1778 389.384 95.8444 389.026 91.6634C388.958 90.867 388.111 90.3379 387.331 90.6051C386.552 90.8724 385.824 91.7369 385.892 92.5333C386.301 97.3116 387.222 101.043 388.837 103.512C390.02 105.617 393.279 108.547 396.994 107.427C397.392 107.393 397.972 107.142 398.353 106.909C403.523 111.079 410.941 111.046 417.062 109.921C420.611 109.216 422.221 109.279 422.937 110.621C418.227 111.826 398.863 119.901 409.671 121.985C415.559 120.478 413.084 119.687 416.799 118.567C409.949 127.576 417.348 141.383 419.44 149.426C421.635 158.664 418.591 162.936 409.858 168.697C402.668 173.725 397.093 174.202 389.511 174.65C385.296 174.61 375.972 175.809 371.051 179.238C369.8 176.337 367.292 175.148 364.004 174.226C359.92 173.372 352.787 174.384 349.909 171.221C351.564 176.494 354.083 182.496 360.01 183.793C361.836 184.038 364.225 183.834 366.381 183.248C364.492 184.613 363.536 187.503 362.796 190.574C334.491 192.596 307.335 189.304 278.951 185.717C256.608 182.415 238.855 183.534 219.917 189.567C212.318 189.816 204.968 190.645 197.687 192.271C196.026 191.611 194.234 191.765 192.642 191.901C187.033 191.98 181.458 192.457 175.804 194.345C173.665 195.13 171.128 195.948 169.239 197.313C163.158 201.243 159.187 206.396 156.313 212.659C156.558 210.833 156.621 209.223 156.866 207.397C156.234 207.05 155.819 206.885 155.205 206.737C153.102 193.881 145.805 181.269 135.664 172.912C138.019 172.309 139.794 171.957 140.556 171.491C145.414 169.671 151.86 165.309 153.84 160.326C155.359 156.987 155.365 152.374 155.059 148.79C155.008 148.193 154.922 147.198 154.655 146.418C156.032 146.1 157.022 143.608 155.56 142.931C157.978 140.719 155.851 139.297 153.791 138.671C153.774 138.472 153.774 138.472 153.757 138.272L153.74 138.073C154.918 137.772 156.209 136.458 157.102 135.178C157.683 134.928 158.246 134.479 158.445 134.462C159.64 134.36 164.605 136.141 163.701 132.608C163.684 132.409 160.186 133.711 158.326 133.068C159.816 131.737 167.951 126.027 165.426 124.639C164.595 124.309 160.607 129.263 157.774 131.31C157.757 131.111 157.541 130.929 157.325 130.747C158.133 128.472 166.052 122.58 165.466 120.424C165.148 119.047 160.727 123.637 160.164 124.087C159.055 125.184 156.21 129.439 154.913 128.346C157.098 125.753 163.242 120.213 161.78 119.536C160.068 118.279 156.347 124.012 152.058 127.789C151.694 128.221 151.33 128.653 150.966 129.085C150.749 128.903 150.533 128.721 150.516 128.522C150.482 128.124 150.448 127.726 150.613 127.311C150.778 126.895 150.744 126.497 150.909 126.082C150.875 125.684 151.04 125.269 150.989 124.671C150.972 124.472 150.955 124.273 150.739 124.091C150.522 123.909 150.505 123.71 150.289 123.528C150.073 123.346 150.056 123.147 149.658 123.181C149.459 123.198 149.442 122.999 149.26 123.215C149.061 123.232 148.879 123.448 148.896 123.647C148.532 124.079 148.566 124.478 148.418 125.092C148.287 125.905 148.372 126.901 148.241 127.714C148.309 128.511 148.377 129.307 148.263 130.319C148.332 131.116 148.201 131.929 148.286 132.925C148.354 133.721 148.422 134.517 148.507 135.513C148.541 135.911 148.775 136.292 149.008 136.673C149.025 136.873 149.224 136.855 149.241 137.055L149.258 137.254C149.343 138.249 149.445 139.444 149.531 140.439L149.332 140.456C147.95 138.368 143.449 144.369 148.228 143.96C146.521 145.109 147.408 148.442 149.262 146.679C148.79 150.53 147.953 154.813 145.786 157.606L145.603 157.822C143.527 156.997 142.998 157.845 143.783 159.983C139.852 160.922 123.828 163.496 118.703 164.537C118.287 164.372 117.872 164.207 117.258 164.059C115 163.45 112.559 163.057 110.335 162.846C111.297 162.363 112.258 161.879 113.219 161.396C113.8 161.146 114.164 160.714 114.727 160.264C114.909 160.048 115.091 159.832 115.472 159.599C115.654 159.383 115.819 158.967 115.785 158.569C115.751 158.171 115.734 157.972 115.501 157.591C115.268 157.21 114.87 157.244 114.471 157.278C113.874 157.329 113.294 157.579 112.714 157.829C112.133 158.08 111.752 158.313 111.189 158.762C110.609 159.012 110.228 159.246 109.647 159.496C109.05 159.547 108.635 159.382 108.203 159.018C108.186 158.819 108.186 158.819 108.169 158.62C108.066 157.425 108.163 156.213 108.442 154.786C108.573 153.972 108.704 153.159 108.835 152.345C110.94 151.162 111.913 148.472 109.951 146.634C111.06 145.537 111.919 143.859 111.185 142.317C110.668 140.958 108.757 139.717 107.465 141.031C108.968 137.493 104.4 135.678 102.216 138.272C102.859 136.412 101.129 134.955 99.5367 135.092C99.3376 135.109 98.9395 135.143 98.7404 135.16C98.2911 134.597 97.6597 134.249 97.2274 133.885C94.0365 131.752 90.7317 130.631 87.0288 129.544C85.3849 129.083 83.1267 128.474 81.6021 129.407C80.0775 130.339 79.4857 132.797 78.8086 134.258C78.1656 136.118 77.5225 137.978 76.8795 139.838C76.5665 140.868 75.9236 142.728 75.6446 144.156C74.3819 143.462 72.078 144.662 72.8287 146.402C69.8763 147.056 70.7633 150.39 72.7372 150.02C71.548 152.528 75.6492 153.581 76.2751 151.522C78.1351 152.165 80.5019 149.355 78.7898 148.098C80.2974 146.966 79.3647 145.442 78.119 144.947C78.4661 144.315 78.614 143.701 78.796 143.485C79.6552 141.807 80.2983 139.947 80.9413 138.087C80.8274 139.099 80.6166 141.324 81.4811 142.052C82.3914 140.971 82.8864 139.725 83.1653 138.298C82.7725 140.738 83.1761 143.11 83.3806 145.499C83.4658 146.495 83.5339 147.291 83.6191 148.286C82.3734 147.791 81.6453 148.656 81.5484 149.868C81.4686 151.278 82.134 152.024 82.9985 152.752C81.7358 152.058 81.0247 153.121 80.9278 154.333C80.848 155.743 81.8945 156.256 82.9411 156.768C83.3734 157.132 83.9878 157.28 84.5851 157.229C84.3062 158.656 84.0272 160.084 83.3501 161.546C83.151 161.563 82.9349 161.381 82.7358 161.398C82.3206 161.233 82.1044 161.051 81.6892 160.886C81.274 160.721 80.8588 160.556 80.4606 160.59L80.2615 160.607L80.2785 160.806C80.5969 162.183 81.2965 163.326 82.1781 164.253C81.3189 165.931 80.4426 167.41 79.9987 169.253C77.7118 170.652 75.6581 172.432 73.8035 174.196C70.8342 174.65 67.7339 175.918 64.8157 176.97C60.1567 178.773 53.7401 181.127 49.7977 184.272C48.2901 185.404 46.7825 186.536 45.6902 187.833C41.9873 186.746 37.505 185.926 31.8452 185.408C25.1729 184.775 11.1969 183.164 10.9682 192.208C10.8884 193.619 11.0076 195.013 10.9278 196.423C11.013 197.419 11.2974 198.397 11.5816 199.376L11.5987 199.575C11.5189 200.985 11.6381 202.379 11.5583 203.79C13.1044 212.482 17.9445 217.482 26.9719 217.512C35.0038 217.627 40.4188 219.971 44.7585 223.811C44.8608 225.006 44.98 226.399 45.0993 227.793C45.65 236.57 42.4349 245.87 42.5874 254.681C43.0753 265.068 46.0428 278.652 53.9259 286.401C52.1618 291.566 47.8097 296.952 43.1848 299.153C42.4225 299.619 41.6432 299.886 40.8468 299.954C40.2495 300.005 39.8343 299.84 39.22 299.692C39.0209 299.71 39.0038 299.51 38.8047 299.527C38.5886 299.345 38.1733 299.18 37.9742 299.197C36.2963 298.338 34.5843 297.081 33.4696 295.773C31.9226 294.1 31.1548 292.16 31.2176 290.55C31.4454 288.525 29.8984 286.853 27.8734 286.625C27.2761 286.676 26.878 286.71 26.4798 286.744L26.2806 286.761C24.2556 286.534 22.5831 288.081 22.3553 290.106C22.0818 293.939 23.401 297.637 26.495 300.982C27.8259 302.473 29.3219 303.548 31.0168 304.606C31.233 304.788 31.4491 304.97 31.6652 305.152C31.9208 308.139 33.354 310.824 35.7825 313.424C37.1134 314.914 38.6093 315.989 40.3043 317.048C41.584 317.941 42.8468 318.635 44.2916 319.113C47.8295 320.615 51.2993 321.321 54.1036 321.282C63.5121 321.078 108.189 315.85 146.489 308.762C146.688 308.745 146.887 308.728 147.086 308.711C147.484 308.677 147.883 308.642 148.082 308.625C174.158 303.987 197.395 298.99 204.659 297.165C217.845 294.231 236.316 287.436 242.559 266.646C245.74 256.948 245.286 246.959 241.305 240.281C239.439 237.231 237.244 235.013 234.303 233.459C233.769 231.901 233.035 230.359 232.319 229.017C229.037 223.481 223.753 220.324 217.081 219.692C217.081 219.692 217.081 219.692 216.882 219.709C214.06 219.549 211.273 219.787 208.918 220.39C203.378 221.265 198.605 224.081 193.837 229.302C192.927 230.383 192.034 231.662 191.157 233.141C189.338 228.283 187.467 222.828 186.609 217.486C186.626 217.685 194.516 213.801 195.278 213.335C197.747 211.72 200.182 209.706 200.922 206.635C201.383 204.991 201.429 203.182 201.275 201.39C203.397 200.406 205.519 199.423 207.624 198.24C211.27 196.323 214.735 194.623 217.67 193.77C218.449 193.503 219.03 193.253 219.627 193.201C228.04 193.083 236.919 193.727 246.663 195.099C284.825 200.456 321.093 204.773 361.117 196.734C360.804 197.764 360.691 198.777 360.361 199.607C358.136 206.416 353.84 214.805 346.809 217.012C340.557 218.95 336.934 216.453 332.752 223.83C328.57 231.207 321.05 237.065 312.699 235.574C311.493 237.883 309.28 242.485 309.883 244.84C309.883 244.84 314.297 244.863 317.414 243.794C324.36 240.592 330.526 237.658 335.408 231.424C337.41 229.047 338.252 227.17 339.942 225.822C338.843 231.732 332.881 237.055 327.927 240.087C326.038 241.452 324.064 241.821 322.374 243.169C320.07 244.369 320.207 245.962 319.831 248.601C319.717 249.614 319.278 253.863 320.325 254.375C321.787 255.052 325.098 251.56 326.207 250.462C333.842 243.591 340.294 234.616 349.276 229.435C352.325 227.57 355.807 226.068 359.055 224.186C365.227 223.658 371.843 221.287 376.792 215.849C380.319 212.539 381.639 209.217 384.734 205.543C387.249 202.119 390.833 201.812 394.598 201.289C402.147 200.443 409.03 198.851 416.493 197.009C423.94 194.968 431.204 193.143 438.565 190.106C442.444 188.571 445.926 187.069 448.975 185.204C449.174 185.187 449.373 185.17 449.555 184.954C453.071 183.851 455.836 181.007 459.3 179.306C461.422 178.323 466.974 175.24 469.482 176.429C467.502 181.412 464.777 187.06 462.262 190.484C461.898 190.917 461.534 191.349 461.153 191.582C460.607 192.23 459.861 192.896 459.315 193.544C458.934 193.777 458.536 193.811 458.32 193.629C458.155 194.045 457.99 194.46 457.842 195.074C457.296 195.723 456.533 196.189 455.788 196.854C454.861 197.736 453.934 198.618 452.739 198.72C451.345 198.839 450.845 197.679 449.684 198.179C448.143 198.913 445.44 207.166 445.149 210.801C448.403 211.325 455.156 203.527 457.375 201.331C457.557 201.115 457.938 200.882 458.12 200.666C458.705 202.822 460.053 204.511 461.68 204.773C464.086 204.768 467.068 195.087 467.893 193.011C468.371 191.566 469.065 190.303 469.743 188.841C474.015 184.866 484.011 172.779 480.815 168.24C496.321 164.305 511.845 160.57 527.551 156.619C525.326 163.427 521.014 171.618 513.983 173.824C507.731 175.763 504.108 173.265 499.926 180.643C495.744 188.02 488.223 193.878 479.89 192.585C478.684 194.895 476.471 199.496 477.073 201.851C477.073 201.851 481.487 201.875 484.406 200.823C491.351 197.621 497.501 194.488 502.399 188.453C504.402 186.075 505.244 184.198 506.934 182.85C505.835 188.76 499.873 194.084 494.935 197.314C493.046 198.679 491.073 199.049 489.383 200.397C487.079 201.597 487.215 203.189 486.84 205.829C486.726 206.841 486.287 211.09 487.334 211.602C488.796 212.28 492.107 208.787 493.216 207.69C500.85 200.819 507.285 191.645 516.285 186.663C519.334 184.797 522.832 183.495 526.064 181.414C532.235 180.885 538.868 178.713 543.818 173.276C547.345 169.966 548.665 166.644 551.777 163.169C554.292 159.745 557.892 159.637 561.658 159.114C569.207 158.268 576.124 157.074 583.587 155.232C591.067 153.589 598.332 151.764 605.727 149.125C609.623 147.789 613.122 146.487 616.171 144.622C616.37 144.605 616.569 144.587 616.751 144.371C620.284 143.467 623.049 140.624 626.53 139.122C628.652 138.138 634.238 135.454 636.747 136.643C634.766 141.626 632.007 146.876 629.492 150.3C629.128 150.732 628.764 151.165 628.383 151.398C627.837 152.046 627.092 152.712 626.546 153.36C626.164 153.593 625.766 153.627 625.55 153.445C625.385 153.861 625.22 154.276 625.072 154.89C624.526 155.539 623.764 156.005 623.001 156.471C622.074 157.353 621.13 158.035 619.935 158.137C618.541 158.257 618.024 156.897 616.864 157.398C615.322 158.131 612.602 166.186 612.311 169.82C615.582 170.543 622.352 162.944 624.571 160.749C624.753 160.533 625.134 160.3 625.316 160.084C625.902 162.24 627.267 164.128 628.876 164.191C631.299 164.385 634.281 154.704 635.123 152.827C635.618 151.581 636.296 150.119 636.99 148.856C641.461 144.864 652.22 132.311 647.448 128.107C651.378 127.169 655.309 126.231 659.041 125.309C673.188 121.893 687.369 118.874 701.368 116.071C701.055 117.101 700.942 118.113 700.612 118.944C698.369 125.553 694.04 133.545 686.958 135.154C680.672 136.695 677.032 133.998 672.816 140.977C668.6 147.956 661.045 153.416 652.678 151.725C651.472 154.034 649.241 158.437 649.844 160.792C649.844 160.792 654.275 161.014 657.409 160.144C664.389 157.341 670.573 154.606 675.488 148.77C677.491 146.393 678.35 144.715 680.057 143.566C678.958 149.476 672.945 154.202 667.99 157.233C666.084 158.399 664.11 158.769 662.404 159.918C660.083 160.918 660.219 162.511 659.843 165.151C659.73 166.163 659.291 170.412 660.338 170.924C661.799 171.601 665.127 168.308 666.254 167.41C673.922 160.937 680.408 152.36 689.459 147.976C692.542 146.508 696.041 145.206 699.306 143.523C705.512 143.393 712.196 141.818 717.179 136.779C720.741 133.867 722.078 130.744 725.207 127.468C727.738 124.243 731.356 124.334 735.156 124.21C742.773 124.159 749.724 123.364 757.256 122.318C764.787 121.273 772.119 120.244 779.582 118.402C783.513 117.464 787.029 116.361 790.129 115.093C790.328 115.076 790.527 115.059 790.726 115.041C794.293 114.536 797.075 111.891 800.59 110.788C802.729 110.003 808.367 107.916 810.909 109.504C808.895 114.088 806.118 119.139 803.57 122.165C803.206 122.597 802.625 122.847 802.443 123.063C801.897 123.712 801.334 124.161 800.589 124.827C800.208 125.06 799.792 124.895 799.576 124.713C799.411 125.128 799.246 125.543 799.081 125.958C798.518 126.408 797.756 126.874 796.993 127.34C796.049 128.023 795.105 128.705 793.893 128.608C792.482 128.529 791.965 127.169 790.805 127.67C789.246 128.204 786.509 136.059 786.201 139.495C789.489 140.417 796.344 133.814 798.58 131.817C798.762 131.601 799.143 131.368 799.325 131.152C799.928 133.507 801.276 135.196 802.92 135.657C805.36 136.05 808.393 126.966 809.235 125.089C809.73 123.844 810.424 122.581 811.118 121.318C816.568 117.041 829.101 104.136 820.546 100.256ZM635.297 126.74C637.914 124.51 639.308 124.391 639.825 125.751C638.25 126.086 636.873 126.404 635.297 126.74ZM626.231 123.906C627.209 123.622 628.187 123.337 629.166 123.053C628.404 123.52 627.226 123.821 626.231 123.906ZM528.985 152.284C514.258 155.951 499.53 159.618 484.803 163.286C499.678 159.004 514.554 154.723 529.23 150.458C529.281 151.056 529.133 151.67 528.985 152.284ZM147.146 283.637C147.215 284.433 146.902 285.462 146.589 286.492C146.406 286.708 146.423 286.907 146.241 287.123L146.042 287.14C145.843 287.157 145.644 287.174 145.661 287.374C145.28 287.607 145.098 287.823 144.717 288.056C144.336 288.289 143.972 288.721 143.608 289.154C142.032 289.489 140.439 289.625 138.863 289.961C138.664 289.978 138.465 289.995 138.266 290.012C138.744 288.567 139.438 287.305 140.548 286.207C141.111 285.758 141.458 285.126 142.021 284.677C143.597 284.341 145.372 283.989 147.146 283.637ZM105.222 295.247C104.426 295.315 103.646 295.582 102.651 295.667C102.998 295.036 103.328 294.206 103.675 293.574L103.658 293.375C104.306 293.921 104.756 294.485 105.222 295.247ZM74.4819 299.282C73.8846 299.333 73.2874 299.384 72.6901 299.435C73.0031 298.405 73.1169 297.393 73.2478 296.58C73.5321 297.558 74.0155 298.519 74.4819 299.282ZM55.4225 191.412C55.4225 191.412 59.7003 189.842 64.1602 188.057C62.6069 190.997 61.2697 194.12 60.3477 197.408C59.1819 195.502 57.6179 193.63 55.4907 192.208C55.4566 191.81 55.4395 191.611 55.4225 191.412ZM61.8035 291.743C62.2188 291.908 62.8331 292.056 63.2483 292.221C63.8627 292.369 64.2779 292.534 64.8922 292.682C64.5451 293.313 64.3972 293.928 64.2663 294.741C64.2206 296.55 63.7936 298.592 62.9515 300.469C59.9651 300.725 57.1779 300.963 54.7887 301.168C57.7868 298.705 60.1023 295.298 61.8035 291.743ZM52.8875 311.759C52.1252 312.225 51.3458 312.493 50.5494 312.561C49.9522 312.612 49.537 312.447 48.9226 312.299C47.0456 311.457 45.3506 310.399 44.0368 309.107C44.435 309.073 44.8502 309.238 45.2484 309.204C47.4554 309.216 51.8355 308.841 57.4102 308.364C56.1358 309.877 54.6282 311.008 52.8875 311.759ZM64.0762 313.609C65.9308 311.846 67.7513 309.685 69.1566 307.358C73.1384 307.018 77.5015 306.444 82.0636 305.853C82.0349 307.861 82.6035 309.817 83.7523 311.524C75.8057 312.405 69.0535 313.183 64.0762 313.609ZM82.8267 298.367C81.9963 298.037 81.1488 297.508 80.6825 296.745C80.017 296 79.7327 295.022 79.4655 294.242C82.4689 294.186 85.4554 293.93 88.2427 293.692C88.2427 293.692 91.8092 293.186 97.5488 292.294L97.5659 292.493C97.2358 293.323 96.9058 294.154 96.1606 294.819C95.1651 294.904 94.1697 294.989 93.1742 295.075C90.586 295.296 88.066 296.314 86.1943 297.878C84.8007 297.997 83.8222 298.282 82.8267 298.367ZM106.421 304.57C105.96 306.214 104.487 307.744 102.581 308.91C98.8153 309.433 95.2486 309.938 91.881 310.427C91.0506 310.097 90.2031 309.568 89.7367 308.806C88.8381 307.679 88.3206 306.32 88.5995 304.892C90.3914 304.739 92.1662 304.386 93.958 304.233C94.3733 304.398 94.7715 304.364 95.3687 304.313C95.5678 304.296 95.9661 304.262 96.1481 304.046C96.3472 304.028 96.7453 303.994 96.9444 303.977C97.3426 303.943 97.7238 303.71 98.3211 303.659C101.091 303.221 103.862 302.784 106.848 302.528C106.717 303.341 106.569 303.956 106.421 304.57ZM122.68 288.338C122.948 289.117 123.215 289.896 123.465 290.477C123.715 291.057 124.182 291.819 124.83 292.365C120.484 293.138 116.32 293.695 111.974 294.468C111.457 293.109 110.74 291.766 109.842 290.64C113.772 289.702 118.135 289.128 122.68 288.338ZM111.688 307.529C112.035 306.897 112.365 306.067 112.712 305.436C113.008 304.207 113.304 302.978 113.168 301.385C119.306 300.459 125.244 299.55 131.365 298.424C131.684 299.801 132.002 301.177 132.485 302.139C132.735 302.719 133.202 303.481 133.833 303.828C126.535 305.255 119.02 306.5 111.688 307.529ZM131.827 289.761C130.78 289.249 130.115 288.504 129.649 287.741C129.632 287.542 129.415 287.36 129.398 287.161C130.576 286.86 131.97 286.74 133.147 286.439C132.436 287.503 132.123 288.532 131.827 289.761ZM155.609 298.154C155.097 299.201 154.169 300.082 153.225 300.765C151.45 301.117 149.675 301.47 147.901 301.822C146.325 302.158 144.931 302.277 143.356 302.612C141.097 302.003 139.402 300.945 138.686 299.603C138.436 299.022 138.185 298.442 137.918 297.663C138.117 297.646 138.316 297.629 138.515 297.612C138.914 297.578 139.312 297.543 139.511 297.526C141.883 297.123 144.454 296.702 146.826 296.299C147.025 296.282 147.424 296.248 147.623 296.23C147.822 296.213 148.22 296.179 148.402 295.963C148.601 295.946 148.999 295.912 149.198 295.895C149.597 295.861 149.796 295.844 149.978 295.628C151.951 295.258 153.925 294.889 155.899 294.519C156.383 295.481 156.286 296.692 155.609 298.154ZM153.324 285.514C153.637 284.485 153.733 283.273 153.648 282.278C158.774 281.237 163.683 280.015 167.613 279.077C168.762 280.784 170.11 282.473 171.441 283.964C167.095 284.737 162.567 285.726 157.624 286.55C156.361 285.856 154.933 285.577 153.324 285.514ZM161.917 299.219C162.742 297.143 163.152 294.901 162.799 293.127C167.726 292.103 172.47 291.296 176.6 290.341C177.765 292.247 179.131 294.135 180.66 295.609C174.921 296.501 168.618 297.843 161.917 299.219ZM234.005 255.746C234.631 253.687 235.075 251.844 235.502 249.802C236.707 254.512 236.405 260.354 234.493 266.133C230.572 278.903 220.798 286.558 202.504 290.731C201.128 291.049 199.171 291.618 196.6 292.039C196.4 292.056 196.201 292.073 195.803 292.107C191.639 292.664 188.699 291.11 186.253 288.312C190.582 287.339 193.932 286.651 195.889 286.083C209.473 283.115 227.762 276.536 234.005 255.746ZM211.189 256.295C212.486 257.387 214.13 257.848 216.103 257.479C216.303 257.462 216.701 257.428 216.883 257.212C217.082 257.195 217.48 257.161 217.679 257.143C218.658 256.859 219.437 256.592 220.182 255.926C220.051 256.74 219.738 257.769 219.044 259.032C218.151 260.312 216.842 261.427 215.085 261.978C212.912 262.365 210.653 261.756 209.556 260.646C208.691 259.918 208.191 258.758 207.69 257.597C208.868 257.296 210.045 256.995 211.189 256.295ZM207.623 249.782C208.084 248.138 208.943 246.46 209.853 245.379L210.036 245.163C210.417 244.93 210.798 244.697 210.98 244.48C210.849 245.294 210.536 246.323 209.842 247.586C209.512 248.417 208.584 249.298 207.623 249.782ZM226.918 247.93C225.121 245.677 222.612 244.488 219.99 244.311C220.235 242.485 220.099 240.892 219.564 239.334C220.759 239.231 221.953 239.129 223.364 239.209C224.576 239.306 225.804 239.602 226.834 239.915C227.237 242.287 227.277 245.091 226.918 247.93ZM197.931 241.987C198.057 238.768 199.212 235.861 200.85 233.916C203.78 230.657 206.63 228.809 209.765 227.939C211.158 227.819 212.552 227.7 214.162 227.763C217.597 228.071 220.521 229.425 222.5 231.461C220.908 231.598 219.514 231.717 218.154 232.234C216.579 232.57 215.202 232.888 213.643 233.423C211.783 232.78 209.758 232.552 207.819 233.32C207.221 233.371 206.425 233.439 205.845 233.689C202.494 234.377 199.979 237.801 200.269 241.186C200.354 242.181 200.639 243.159 201.105 243.922C200.411 245.184 199.734 246.646 199.256 248.091C198.505 246.35 197.937 244.394 197.931 241.987ZM194.312 255.935C195.392 256.845 196.854 257.522 198.282 257.801C198.788 261.368 200.255 264.451 202.45 266.67C205.277 269.235 209.577 270.271 214.321 269.464C214.72 269.43 215.101 269.197 215.499 269.163C215.698 269.146 215.897 269.129 215.897 269.129C210.663 273.588 203.319 276.823 193.484 279.069C192.107 279.387 190.133 279.757 187.579 280.376C187.38 280.393 187.181 280.411 186.783 280.445C184.61 280.831 182.767 280.387 181.106 279.727C180.873 279.346 180.623 278.766 180.39 278.385C179.906 277.423 179.423 276.462 178.956 275.7C179.338 275.466 179.537 275.449 179.918 275.216C188.553 270.667 192.769 263.688 194.312 255.935ZM206.754 195.105C205.03 196.055 203.107 197.022 201.168 197.79L201.151 197.59C201.099 196.993 201.031 196.197 200.781 195.617C203.153 195.213 205.724 194.792 208.097 194.389C207.715 194.622 207.334 194.855 206.754 195.105ZM234.57 189.716C248.189 187.147 261.829 187.183 278.08 189.602C302.216 192.751 325.52 195.57 349.548 195.118C314.678 200.108 282.243 196.065 248.347 191.345C243.484 190.758 239.019 190.138 234.57 189.716ZM659.081 121.094C654.951 122.05 650.821 123.005 646.691 123.96C646.936 122.134 646.982 120.325 646.647 118.749C665.72 114.309 684.845 110.466 703.605 107.056C703.127 108.5 702.848 109.928 702.586 111.555C688.189 114.392 673.609 117.444 659.081 121.094ZM807.719 100.351C812.208 96.5571 814.051 97.001 814.056 99.4072C812.048 99.3785 809.875 99.765 807.719 100.351Z" fill="#5A1721"/>
</svg>
